{"glyphs":{"0":{"ha":546,"x_min":28,"x_max":524,"o":"m 247 717 q 231 740 244 718 q 213 761 217 761 q 216 752 211 761 q 230 731 221 743 q 247 711 239 718 q 258 704 258 700 q 247 717 258 708 m 199 789 l 200 782 l 201 797 q 199 789 200 794 m 193 811 q 193 807 193 807 l 196 817 l 196 818 q 193 811 194 814 m 193 822 q 192 840 190 833 q 204 849 193 846 q 264 851 215 851 q 358 846 335 851 q 450 806 428 829 q 457 788 457 799 q 453 747 457 776 q 443 697 449 703 q 442 680 438 694 q 454 658 447 665 q 465 600 464 650 q 466 582 465 592 q 467 569 467 572 q 460 542 467 549 q 449 501 449 528 q 454 465 449 482 q 461 444 461 447 q 459 440 461 442 q 451 435 457 438 q 442 428 446 432 l 431 419 l 444 424 q 465 428 457 428 q 482 406 482 428 q 481 385 482 393 q 478 373 479 376 q 474 368 478 369 q 464 367 471 367 q 376 386 413 367 q 315 442 321 418 q 311 547 311 463 q 306 649 311 629 q 276 668 300 668 q 263 685 264 668 l 260 699 l 260 682 q 251 663 260 665 q 242 635 244 660 l 239 611 l 219 614 q 179 629 207 615 q 81 653 143 649 q 36 661 42 656 q 33 675 33 667 q 51 742 33 706 q 160 836 82 808 q 169 838 165 838 q 175 839 172 839 q 181 837 178 839 q 185 833 183 835 q 189 827 186 831 q 193 822 192 824 m 471 750 q 474 779 471 779 l 479 775 q 500 741 488 768 q 515 696 513 714 q 517 684 518 688 q 513 679 515 681 q 501 676 511 678 q 472 683 482 674 q 467 714 451 704 q 471 750 471 717 m 508 667 q 513 669 511 669 q 522 551 521 669 l 522 494 q 515 438 522 438 q 515 435 499 438 q 522 399 524 433 q 519 369 521 375 q 507 361 517 364 q 492 360 494 357 q 494 374 489 363 q 499 407 499 382 q 493 443 499 443 q 468 486 482 443 q 465 503 465 500 q 475 532 465 511 q 485 578 485 551 l 485 594 q 478 644 485 631 l 471 660 q 489 663 471 663 q 508 667 507 665 m 28 435 l 28 650 l 51 647 q 87 640 57 646 q 131 633 117 633 l 139 633 q 142 634 140 633 q 146 635 144 635 q 182 621 154 635 q 217 607 213 607 q 238 597 235 607 q 240 531 240 588 l 240 461 l 224 464 l 217 464 q 182 454 200 464 q 136 443 158 443 l 121 443 l 104 443 q 76 436 85 443 q 47 431 67 426 l 28 435 m 51 424 q 89 428 68 424 q 128 433 110 433 q 182 444 158 433 q 225 457 217 457 l 240 457 l 240 222 l 210 190 q 174 139 181 158 q 147 99 169 124 q 128 64 128 79 q 118 44 128 51 q 108 42 108 38 q 96 33 108 46 q 74 15 82 19 q 71 3 65 10 q 67 -15 76 -4 q 50 -22 58 -25 q 34 25 38 -18 q 29 222 31 68 l 28 424 l 51 424 m 311 350 q 315 415 311 415 q 321 414 319 415 q 336 400 332 408 q 361 382 342 389 q 378 364 382 374 q 325 294 369 339 l 311 281 l 311 350 m 433 -81 q 426 -64 433 -72 q 424 -65 424 -62 q 428 -78 424 -68 q 433 -81 433 -89 m 421 -22 q 424 19 426 1 l 421 40 l 418 21 q 415 -21 415 1 l 415 -44 l 421 -22 m 419 56 q 428 78 422 68 q 432 94 433 88 l 431 101 q 429 93 431 101 q 421 75 429 81 q 415 54 415 71 l 415 40 l 419 56 m 467 232 q 464 239 479 233 l 450 243 l 450 199 l 450 176 q 443 135 450 150 q 435 114 432 114 q 443 124 438 115 q 460 196 460 143 q 458 211 460 207 q 467 232 456 231 m 431 258 q 432 258 431 258 q 433 261 433 258 q 431 264 433 264 q 428 261 428 264 q 431 258 428 258 m 426 278 l 422 288 l 421 288 q 424 279 415 288 q 426 278 425 278 m 388 356 q 399 367 392 367 q 442 360 414 367 q 474 350 471 354 q 482 347 479 343 q 504 353 485 353 l 522 353 l 522 231 q 507 229 517 231 q 492 228 497 228 l 507 224 l 522 221 l 522 135 q 499 -36 522 15 q 467 -78 489 -54 q 439 -101 446 -101 l 438 -101 q 433 -104 433 -100 q 407 -120 433 -110 q 356 -136 381 -131 q 275 -142 319 -142 q 196 -136 232 -142 q 117 -106 156 -128 q 69 -64 79 -83 q 68 -56 68 -61 q 108 10 68 -35 q 144 62 125 29 q 188 117 164 94 q 229 165 219 146 l 238 182 l 240 119 q 248 56 243 68 q 271 43 253 43 l 278 43 q 306 62 301 44 q 311 167 311 79 l 311 267 l 344 301 q 388 333 375 333 q 407 314 396 333 l 414 306 l 414 307 q 403 327 414 314 q 388 340 393 340 l 386 340 q 382 342 382 338 l 388 356 m 207 169 q 226 193 222 193 q 228 190 228 193 q 210 153 228 176 q 197 142 200 142 q 196 143 196 142 q 207 169 196 153 z "},"1":{"ha":557,"x_min":32,"x_max":526,"o":"m 33 832 q 126 838 35 838 l 215 838 l 222 822 q 228 788 228 811 q 231 750 228 761 l 235 731 l 214 719 q 179 697 193 710 q 129 660 139 665 q 97 654 119 654 l 92 654 q 53 663 57 654 q 54 675 51 667 q 51 688 57 683 q 47 690 49 690 q 46 686 46 690 q 47 676 46 683 q 49 664 49 668 q 43 656 49 656 l 42 656 q 32 742 33 657 q 33 832 32 829 m 275 -79 q 275 -58 278 -76 l 274 -40 l 271 -58 q 272 -81 267 -81 l 275 -79 m 282 4 l 283 -1 q 285 11 288 4 q 282 4 283 7 m 296 35 q 293 38 296 38 q 290 35 290 38 q 293 33 290 33 q 296 35 296 33 m 353 110 q 357 108 354 108 q 360 111 361 110 q 357 113 360 113 q 353 110 354 111 m 340 113 q 342 115 342 113 q 340 118 342 118 q 338 115 338 118 q 340 113 338 113 m 310 118 q 307 124 315 121 q 301 118 301 126 q 301 94 300 114 l 303 69 l 303 89 q 310 118 306 115 m 265 183 q 267 186 267 183 q 265 189 267 189 q 263 186 263 189 q 265 183 263 183 m 250 199 q 254 197 251 197 q 253 203 256 200 q 250 201 251 203 q 250 199 249 200 m 353 279 q 357 278 354 278 q 360 281 361 279 q 357 282 360 282 q 353 279 354 281 m 238 825 l 233 839 q 310 838 258 839 q 388 836 361 836 l 386 664 l 386 353 l 388 228 q 371 224 382 226 q 354 222 360 222 l 368 222 q 386 214 383 222 q 389 157 389 206 l 389 57 l 451 57 q 521 51 515 57 q 526 -43 526 46 l 526 -132 l 282 -132 q 35 -126 36 -132 q 32 -89 32 -121 q 89 29 32 -28 l 117 57 l 172 57 l 172 131 l 208 167 q 247 215 246 207 q 253 225 249 224 q 278 224 258 226 q 314 217 307 221 q 339 217 324 213 l 350 221 l 342 221 q 328 228 328 221 l 333 233 q 338 251 338 236 q 328 293 338 283 q 313 335 313 308 q 317 357 313 347 q 325 396 325 374 l 325 408 q 318 453 325 439 q 317 460 315 460 q 333 464 319 461 q 357 474 353 467 q 357 478 361 478 q 344 475 353 478 q 318 478 328 469 q 311 500 311 485 q 313 525 311 514 q 319 567 315 563 q 324 583 324 571 q 318 618 324 596 q 294 660 313 638 q 251 721 256 707 q 249 731 250 725 q 242 783 242 751 q 238 825 242 804 m 182 313 q 179 315 182 315 q 178 313 178 315 q 179 311 178 311 q 182 313 182 311 m 161 664 q 197 688 168 671 q 236 704 225 704 l 239 704 q 275 666 246 703 q 307 618 304 629 q 308 613 307 617 q 308 607 308 610 q 294 494 308 557 q 297 464 289 471 q 314 411 314 453 q 304 365 314 381 q 296 336 296 349 q 301 307 296 324 q 306 290 307 293 q 299 281 306 286 l 296 279 q 293 275 290 275 q 303 275 294 274 l 304 275 l 321 275 l 321 228 l 297 229 q 196 275 246 231 q 185 282 189 282 l 178 282 q 172 468 172 282 l 172 654 l 163 654 q 161 664 153 654 m 172 210 q 181 274 172 274 q 203 257 186 274 q 224 240 219 240 q 227 239 225 240 q 231 236 229 238 q 236 233 233 235 q 242 226 242 229 q 233 211 242 224 q 203 173 225 197 q 178 149 182 149 q 172 210 172 149 m 36 51 q 57 57 36 57 q 79 47 79 57 q 64 19 79 39 q 43 -11 47 -3 q 38 -15 42 -15 q 32 11 32 -15 q 33 21 32 15 q 33 28 33 26 q 36 51 36 44 z "},"2":{"ha":544,"x_min":29,"x_max":519,"o":"m 375 465 q 379 465 379 464 q 374 475 382 469 q 368 471 368 479 q 375 465 368 469 m 358 521 q 357 522 358 522 q 354 521 354 522 q 357 518 354 518 q 358 521 358 518 m 335 583 q 331 599 335 592 q 326 601 326 604 l 331 586 q 335 583 335 578 m 328 718 q 306 739 313 739 q 303 738 301 739 q 317 728 304 738 l 328 718 m 297 751 q 296 753 297 753 q 293 751 293 753 q 296 749 293 749 q 297 751 297 749 m 292 763 q 290 768 292 764 q 278 781 289 772 l 271 783 q 279 774 272 782 q 292 763 292 756 m 264 800 q 265 797 264 797 q 268 804 269 800 q 265 804 267 806 q 264 800 264 803 m 260 826 q 261 822 260 822 l 263 831 l 263 832 q 260 826 260 831 m 190 844 q 233 851 225 851 q 251 844 244 851 q 260 844 260 838 q 292 853 260 853 q 461 794 399 853 q 492 756 478 779 q 507 721 507 732 q 504 715 507 718 q 504 711 496 711 q 508 697 508 711 q 513 681 508 682 q 518 619 518 676 l 518 567 q 513 453 517 460 q 497 439 508 447 q 513 442 507 443 q 519 429 519 442 q 517 400 519 417 q 511 388 515 389 q 493 389 507 386 q 389 446 440 399 q 372 455 381 454 q 356 461 364 456 q 326 474 346 467 l 310 478 l 308 550 l 308 585 q 314 621 308 621 q 322 615 322 621 l 322 614 l 325 628 q 328 660 326 642 q 329 688 329 678 l 329 704 q 326 683 328 701 q 326 679 326 681 q 311 626 321 626 q 307 639 307 626 q 297 660 307 651 q 275 669 288 669 q 250 660 261 669 l 235 651 q 146 671 221 665 q 96 681 108 674 q 74 685 86 685 q 51 690 63 685 q 36 704 36 697 q 53 747 36 711 q 190 844 88 821 m 29 485 l 29 679 q 94 668 56 674 q 157 657 144 663 q 203 650 178 650 l 213 650 q 238 640 235 650 q 242 581 242 631 l 242 564 l 242 485 l 29 485 m 307 456 q 309 469 307 467 q 318 468 311 471 q 365 444 332 464 q 401 418 399 425 q 428 400 406 411 l 449 390 l 438 371 q 404 326 429 356 q 367 286 379 296 q 343 272 364 283 q 315 251 322 260 q 293 226 314 249 q 258 185 272 204 q 240 157 243 167 q 215 117 235 139 q 194 85 194 93 q 179 60 194 74 q 175 58 175 54 l 165 53 q 147 39 156 46 l 138 32 q 138 21 132 31 q 136 6 142 11 q 110 -18 132 1 q 90 -33 94 -32 q 82 -28 86 -35 q 68 -19 76 -19 q 44 3 61 -19 q 31 28 33 18 q 29 78 29 38 q 64 217 29 163 q 189 333 99 272 q 280 406 253 378 q 307 456 307 433 m 504 -92 q 503 -85 504 -85 q 500 -92 500 -85 q 496 -99 500 -99 q 486 -119 492 -99 l 496 -108 q 504 -92 504 -97 m 496 -65 q 497 -72 496 -71 l 500 -64 q 499 -60 499 -61 q 496 -65 497 -60 m 496 -50 q 493 -47 496 -47 q 490 -50 490 -47 q 493 -51 490 -51 q 496 -50 496 -51 m 486 -1 q 490 35 493 18 l 489 54 l 485 38 q 482 3 482 29 l 482 -17 l 486 -1 m 451 371 q 461 384 457 382 q 481 383 465 386 q 506 378 503 381 q 507 375 507 376 q 489 335 507 361 q 484 329 486 331 q 479 331 482 328 q 469 343 476 333 q 451 360 456 363 q 463 343 447 356 q 476 321 476 329 q 439 274 476 310 q 361 211 401 238 q 242 76 242 132 l 242 57 l 519 57 l 519 -132 l 274 -132 q 29 -125 29 -132 q 50 -115 29 -117 q 82 -99 74 -111 q 107 -77 89 -87 q 136 -65 125 -67 q 132 -61 142 -65 q 119 -56 119 -56 l 133 -31 q 173 26 142 -14 q 211 81 204 67 q 256 138 221 103 q 299 190 292 174 q 319 238 314 228 q 328 253 325 247 q 344 265 332 260 q 368 276 357 269 q 413 322 382 286 q 451 371 444 357 m 269 163 l 260 156 q 258 158 258 156 q 272 186 258 165 q 290 207 285 207 q 292 206 292 207 q 269 163 294 185 m 29 -36 l 29 7 l 40 -7 q 64 -25 54 -24 q 76 -39 76 -29 q 64 -66 76 -51 q 40 -81 51 -81 q 31 -75 32 -81 q 29 -36 29 -69 m 118 -22 q 126 -17 124 -17 q 128 -18 128 -17 q 120 -33 128 -22 q 108 -43 113 -43 q 118 -22 100 -43 z "},"3":{"ha":549,"x_min":29,"x_max":524,"o":"m 203 550 q 174 543 193 550 q 140 536 156 536 q 103 529 110 536 l 100 526 q 96 523 96 524 q 106 525 96 522 l 107 525 q 142 529 132 529 q 189 540 169 533 q 207 549 207 547 q 203 550 207 550 m 217 651 q 228 651 221 649 q 222 654 226 654 l 215 653 l 217 651 m 196 654 q 199 657 199 654 q 196 660 199 660 q 194 657 194 660 q 196 654 194 654 m 149 678 q 114 682 138 682 q 106 681 106 682 q 133 676 106 679 l 150 676 l 149 678 m 232 678 l 233 672 q 235 685 238 678 q 232 678 233 681 m 206 753 q 203 761 211 753 q 200 763 201 763 l 200 761 q 203 756 201 758 l 206 753 m 219 546 q 226 542 222 544 q 232 540 231 540 q 236 536 233 539 q 240 531 239 533 q 241 522 240 528 q 242 510 242 517 l 242 485 l 29 485 l 29 536 l 51 529 q 79 524 69 524 l 81 524 q 58 533 81 525 l 29 543 l 29 604 l 29 619 q 32 676 29 665 q 50 688 35 688 q 58 687 51 688 q 68 686 64 686 l 103 683 l 79 689 q 47 694 63 694 l 44 694 q 39 703 39 694 q 46 731 39 710 q 92 797 61 769 q 153 824 124 824 l 157 824 l 164 824 q 201 838 181 824 l 225 853 l 290 851 q 371 840 364 849 q 376 824 376 835 q 375 794 376 807 q 367 722 372 749 q 372 688 363 697 q 382 646 382 678 q 375 604 382 614 q 368 581 368 594 q 374 551 368 571 q 369 529 378 535 q 365 523 364 524 q 375 524 365 522 q 387 522 385 525 q 390 501 389 518 l 392 479 l 367 482 q 326 490 344 485 l 311 496 l 311 568 q 305 651 311 635 q 275 668 299 668 q 251 659 261 668 q 240 639 242 650 l 242 619 q 242 588 242 601 l 242 568 q 240 549 242 553 q 231 546 238 546 l 219 546 m 206 -39 q 197 -17 199 -18 q 190 -28 194 -17 q 165 -54 186 -40 q 144 -83 149 -64 q 143 -93 143 -87 q 151 -108 143 -108 q 164 -90 160 -108 q 179 -62 167 -78 q 193 -51 188 -51 q 211 -54 199 -50 q 231 -68 228 -61 q 252 -85 232 -74 q 278 -97 272 -97 l 279 -96 l 260 -85 q 236 -65 240 -74 q 221 -52 233 -60 q 206 -39 208 -44 m 340 82 q 338 85 340 85 q 335 82 335 85 q 338 81 335 81 q 340 82 340 81 m 354 126 q 358 135 361 133 q 354 132 357 136 q 353 129 353 131 q 351 124 350 124 q 354 126 351 124 m 357 160 q 358 163 358 160 q 357 165 358 165 q 354 163 354 165 q 357 160 354 160 m 354 218 q 350 226 354 226 q 344 211 344 226 q 347 200 344 200 q 350 203 349 200 q 354 218 354 208 m 353 269 q 358 282 361 278 q 351 276 357 286 q 350 274 350 275 l 347 265 q 353 269 349 265 m 368 314 q 372 322 375 319 q 368 319 371 324 q 367 317 367 318 q 365 311 364 311 q 368 314 365 311 m 378 357 q 376 365 378 364 q 372 363 374 367 q 372 351 368 353 q 376 351 375 350 q 378 357 378 353 m 436 374 q 442 374 439 371 q 439 376 444 376 q 436 374 433 376 m 424 379 l 417 381 q 414 378 415 379 q 424 379 419 375 m 378 382 q 379 388 385 382 l 375 390 q 372 386 372 390 q 378 382 372 382 m 472 468 q 469 471 472 471 q 467 468 467 471 q 469 467 467 467 q 472 468 472 467 m 389 811 q 397 833 390 833 q 424 822 401 833 q 463 792 440 814 q 494 754 486 769 q 497 746 497 749 q 465 722 497 732 q 457 717 456 718 q 483 722 474 717 q 500 728 493 728 q 514 706 508 728 q 524 519 524 679 q 521 472 524 481 q 517 444 521 471 q 503 402 515 426 q 479 368 492 378 l 468 360 l 481 346 q 507 304 494 332 q 519 265 517 283 q 522 175 521 246 l 522 129 q 519 38 522 71 q 360 -136 500 -107 q 329 -140 339 -140 q 311 -126 319 -140 q 293 -104 303 -110 q 288 -101 288 -101 l 297 -111 q 313 -132 313 -126 q 294 -143 313 -140 q 288 -144 293 -143 q 278 -144 282 -144 q 163 -128 213 -144 q 118 -108 142 -121 q 94 -90 94 -94 q 100 -82 94 -87 q 101 -78 101 -81 q 91 -47 101 -67 q 72 -24 81 -28 q 67 -25 67 -21 l 78 -47 q 89 -76 89 -65 q 88 -79 89 -79 q 74 -68 83 -79 q 29 86 29 -15 q 31 117 29 111 q 39 122 32 122 q 63 138 47 122 q 82 154 78 153 q 90 161 90 157 q 114 211 88 175 l 125 226 l 242 226 l 242 143 q 249 51 242 58 q 276 43 257 43 q 303 51 294 43 q 311 156 311 60 q 307 260 311 251 q 250 268 303 268 l 199 268 l 199 290 q 203 318 199 303 q 217 350 208 333 q 226 372 225 367 q 250 394 231 383 q 294 433 269 406 q 322 457 314 457 q 342 446 326 457 q 325 474 321 467 q 353 478 328 481 q 385 471 381 475 q 410 471 389 467 q 447 474 431 476 q 459 472 458 472 q 453 475 460 472 q 419 478 440 481 q 396 482 396 475 q 401 488 396 485 q 406 503 406 492 q 394 543 406 525 q 383 578 383 565 q 390 607 383 586 q 396 644 396 626 q 389 685 396 668 q 389 690 388 689 q 397 692 390 692 q 418 699 408 692 q 421 704 426 704 q 410 703 417 704 l 404 703 q 379 719 379 703 q 381 725 379 724 q 389 811 388 740 m 199 357 l 199 451 l 249 451 q 297 447 297 451 q 274 424 297 444 q 249 401 267 418 q 225 379 232 385 l 199 357 m 204 353 q 211 354 211 360 q 206 340 211 350 q 199 338 199 326 q 204 353 199 347 m 39 197 q 29 217 29 207 q 63 226 29 226 q 100 217 100 226 q 83 196 100 208 q 58 185 64 181 q 54 185 50 192 q 50 165 57 179 q 36 150 43 150 q 29 171 29 150 q 33 190 29 189 q 50 188 38 192 l 39 197 z "},"4":{"ha":639,"x_min":33,"x_max":607,"o":"m 451 53 q 468 57 467 53 l 464 61 q 444 57 456 61 q 451 53 442 53 m 414 64 q 401 69 408 67 q 390 70 394 71 q 386 67 386 69 q 399 60 386 64 q 418 57 411 57 q 421 58 421 57 q 414 64 421 61 m 376 76 q 367 85 371 85 q 374 75 354 85 q 381 71 381 71 q 376 76 381 71 m 226 135 q 224 136 226 136 q 221 135 221 136 q 224 132 221 132 q 226 135 226 132 m 218 150 q 221 153 221 150 q 218 156 221 156 q 217 153 217 156 q 218 150 217 150 m 583 196 q 586 203 588 197 q 582 207 585 208 q 579 200 579 206 q 583 196 579 194 m 499 638 q 497 640 499 640 q 463 621 493 640 q 426 603 435 603 q 413 596 419 603 q 387 583 407 590 q 357 575 367 575 q 346 567 349 575 q 345 562 344 563 q 349 563 346 561 q 371 568 354 565 q 409 583 382 569 q 447 606 436 596 q 457 610 449 607 q 472 616 465 613 q 479 624 479 619 q 486 629 479 629 q 499 638 499 629 m 524 646 q 528 644 525 644 q 528 650 531 647 q 524 649 525 650 q 524 646 522 647 m 475 736 q 486 736 479 733 q 481 739 485 739 l 474 738 l 475 736 m 513 760 q 512 767 513 767 q 506 764 511 767 q 499 743 499 761 q 529 703 499 719 l 543 696 l 533 707 q 522 724 522 718 q 518 729 522 729 q 513 739 513 729 q 508 749 513 749 q 504 754 504 749 q 507 756 504 757 q 513 760 513 754 m 431 769 q 411 776 424 776 l 408 775 q 420 768 408 774 q 436 763 432 763 l 438 763 l 431 769 m 371 789 q 364 808 371 808 l 361 806 q 364 792 357 799 q 371 789 371 785 m 607 253 q 606 240 607 246 q 605 232 606 235 q 602 226 604 229 q 599 223 600 224 q 593 220 597 222 q 586 217 589 218 l 597 217 q 606 208 604 217 q 607 156 607 200 l 607 94 l 550 94 l 550 46 q 544 -3 550 -3 l 543 -3 l 542 -1 q 533 4 533 1 q 524 24 536 24 q 521 21 522 22 q 528 10 528 17 q 539 -7 528 0 q 549 -22 547 -12 q 550 -74 550 -31 l 550 -132 l 339 -132 l 340 -19 l 340 44 q 337 86 340 75 q 329 99 333 97 q 304 101 325 100 l 289 101 l 292 99 q 274 94 288 96 q 249 100 247 94 q 263 104 249 103 l 271 106 q 265 108 269 106 q 244 104 244 118 q 243 99 244 100 q 231 96 242 97 q 202 94 221 94 q 146 94 183 94 q 47 99 47 94 q 79 122 47 108 q 133 169 89 125 q 179 207 169 207 q 199 188 188 207 q 207 181 207 171 q 192 204 207 189 q 181 231 175 221 q 196 240 186 240 q 238 234 213 240 q 265 224 263 228 q 276 221 269 217 q 307 229 278 222 q 326 232 324 232 q 361 225 340 232 q 418 217 390 217 q 454 211 447 217 q 498 199 464 206 q 554 193 532 193 q 568 196 568 193 q 554 203 568 203 q 532 211 546 203 q 496 213 518 219 q 465 214 465 206 q 428 221 465 221 q 378 228 392 221 q 328 238 358 238 q 304 235 311 238 q 289 231 294 231 q 283 236 283 231 q 288 250 283 239 q 292 267 292 261 q 294 276 292 275 q 311 278 297 278 q 329 269 329 278 q 336 275 329 261 q 340 319 340 283 q 340 343 340 325 q 339 372 339 361 l 336 454 l 307 400 q 272 342 275 344 q 264 350 269 338 q 258 376 258 363 q 269 410 258 388 q 279 468 279 429 q 271 518 276 508 q 265 531 265 528 q 267 535 264 535 q 281 536 269 536 q 319 549 297 536 q 336 560 336 557 l 333 560 q 300 551 328 560 q 289 548 294 550 q 280 545 283 546 q 274 543 276 544 q 271 542 272 542 l 269 542 l 269 543 q 269 549 269 546 q 263 558 268 553 q 258 585 251 569 q 264 631 264 601 q 271 675 264 658 q 276 692 276 689 q 271 718 276 693 l 264 746 q 307 838 279 776 l 550 838 l 550 776 q 547 718 550 718 l 546 718 q 543 715 542 719 q 544 713 543 715 q 550 679 550 703 q 546 657 550 661 q 546 650 539 650 q 550 464 550 650 l 550 278 l 607 278 l 607 253 m 103 328 q 101 329 103 329 q 99 328 99 329 q 101 325 99 325 q 103 328 103 325 m 96 343 q 99 346 99 343 q 96 349 99 349 q 94 346 94 349 q 96 343 94 343 m 174 544 q 251 706 247 706 q 254 699 254 706 q 253 674 256 683 q 249 647 253 672 q 242 596 246 621 q 236 571 238 571 q 235 554 231 569 q 246 532 239 539 q 258 474 257 522 l 258 449 q 251 414 258 421 q 240 376 240 400 q 247 340 240 358 l 256 318 l 242 307 q 239 297 236 297 q 246 288 247 297 q 247 280 244 282 q 258 278 250 278 q 274 274 271 278 q 274 253 276 269 l 271 239 l 242 242 q 143 278 182 247 q 113 303 122 296 q 99 307 110 304 q 83 315 89 310 q 76 328 76 319 q 79 340 76 332 q 90 358 85 358 q 94 365 94 358 q 174 544 94 376 m 50 279 q 71 311 65 311 q 103 294 78 311 q 129 272 128 278 q 153 256 132 264 q 174 243 174 247 q 152 208 174 236 q 113 163 131 179 q 68 127 94 146 q 36 108 42 108 q 33 157 33 108 l 33 178 q 37 243 35 229 q 50 279 39 257 m 518 197 q 501 203 501 197 q 515 207 501 207 q 532 203 532 207 q 518 197 532 197 z "},"5":{"ha":551,"x_min":32,"x_max":526,"o":"m 328 58 q 326 61 328 61 q 324 58 324 61 q 326 57 324 57 q 328 58 328 57 m 160 110 q 164 108 161 108 q 167 111 168 110 q 164 113 167 113 q 160 110 161 111 m 147 117 q 126 121 144 121 q 114 119 113 121 q 118 117 114 118 q 147 117 139 110 m 86 124 l 94 125 q 82 129 93 126 l 67 135 l 67 83 q 58 25 67 35 q 50 11 50 17 l 60 21 q 72 78 71 33 q 76 116 74 110 q 86 124 78 122 m 511 143 q 510 146 511 146 q 507 143 507 146 q 510 142 507 142 q 511 143 511 142 m 56 143 q 53 146 56 146 q 50 143 50 146 q 53 142 50 142 q 56 143 56 142 m 518 176 q 518 164 518 164 l 519 190 q 518 176 518 183 m 404 224 q 406 219 404 219 l 407 228 l 406 229 l 404 224 m 451 250 l 461 258 l 457 258 q 415 244 429 258 q 419 240 413 240 q 451 250 435 240 m 349 669 q 354 668 351 667 q 354 672 358 671 q 351 674 353 674 q 349 672 350 674 q 349 669 347 671 m 378 678 q 379 678 378 678 q 381 681 381 678 q 378 683 381 683 q 375 681 375 683 q 378 678 375 678 m 299 760 l 311 761 l 304 761 q 299 760 299 760 m 279 772 l 275 782 l 274 782 q 276 774 268 782 q 279 772 278 772 m 338 769 q 333 793 338 781 q 326 790 329 804 q 322 765 322 775 q 335 740 322 751 q 358 724 353 725 q 360 729 368 719 l 356 733 q 346 750 342 747 q 343 753 349 753 q 338 769 338 753 m 253 793 q 233 800 242 800 l 232 800 q 245 792 232 799 q 261 786 258 786 q 257 792 265 786 l 253 793 m 186 817 q 194 817 194 810 q 190 833 194 825 q 185 831 189 833 q 181 828 182 829 q 181 824 181 826 q 186 817 182 821 m 203 588 q 231 602 214 588 q 254 617 247 617 q 257 585 257 617 l 257 553 l 304 554 l 318 554 q 519 417 486 554 q 525 290 525 390 l 525 200 q 515 7 524 7 q 507 24 514 7 q 499 40 503 38 q 483 39 496 42 l 457 32 q 472 32 458 31 l 496 33 l 504 11 q 509 -6 507 1 q 510 -12 511 -12 q 463 -18 507 -15 q 417 -21 418 -21 q 399 -12 404 -24 q 382 8 396 -3 q 361 19 368 19 q 358 22 356 19 q 356 34 361 25 q 346 43 351 43 q 347 38 344 43 q 353 28 350 33 q 356 21 356 22 q 371 8 356 17 q 396 -24 396 -6 q 394 -31 396 -29 q 393 -39 390 -37 q 403 -76 401 -42 q 422 -93 403 -79 l 442 -107 l 414 -119 q 283 -143 361 -143 q 107 -96 167 -143 q 69 -54 88 -81 q 50 -14 50 -28 q 44 1 50 -1 q 35 136 35 4 q 36 165 35 160 q 38 174 38 174 q 42 167 39 174 q 44 165 44 165 q 40 176 44 175 q 36 196 36 178 l 36 213 q 141 211 71 211 q 246 210 211 211 q 247 145 247 189 q 249 79 247 101 q 208 94 218 89 q 189 101 190 103 l 194 97 q 208 87 200 92 q 218 82 215 82 q 249 64 249 76 q 281 43 249 43 q 314 67 314 43 q 322 71 314 78 q 328 67 328 67 q 322 74 328 67 q 314 150 314 83 l 314 217 l 339 214 q 347 213 342 214 q 356 213 353 213 q 389 222 389 213 q 378 224 389 226 l 374 224 q 355 229 367 224 q 335 235 343 235 l 331 235 l 314 232 l 314 294 q 310 361 314 357 q 278 367 304 368 l 250 365 l 249 332 l 246 299 l 206 299 q 165 308 165 299 q 156 323 165 317 q 135 329 147 329 q 135 326 125 329 l 142 324 q 156 318 153 321 q 158 308 160 315 q 135 297 157 299 q 115 298 118 296 q 111 313 113 300 q 117 331 110 331 q 113 335 122 331 q 82 389 93 342 q 90 428 78 401 q 101 490 101 450 q 94 533 101 521 q 88 548 89 543 q 91 554 88 553 q 103 556 94 556 q 136 565 114 556 q 158 578 158 574 q 151 578 158 579 q 128 572 143 576 q 103 567 107 567 q 89 576 99 568 q 82 604 78 588 q 86 650 86 617 q 91 685 86 671 q 96 713 96 699 l 96 725 q 68 792 93 761 q 56 822 54 810 q 63 833 57 832 q 97 838 68 835 q 332 842 164 842 l 526 843 l 526 660 l 496 660 q 399 703 440 660 q 385 714 392 710 q 378 717 379 718 q 385 703 376 713 q 389 688 393 693 q 385 683 386 685 q 389 686 386 685 q 394 689 392 689 q 435 665 399 689 l 438 663 q 381 660 438 660 l 315 660 q 283 660 293 660 q 267 657 272 660 q 263 653 263 654 q 263 644 263 651 q 249 626 263 632 q 233 617 233 621 q 212 603 233 613 q 182 593 190 593 q 168 586 172 593 q 168 578 163 579 q 175 582 171 578 q 203 588 179 586 m 53 736 l 56 786 l 67 771 q 79 732 79 754 q 64 610 79 671 q 57 567 57 575 q 63 556 57 556 q 78 533 72 556 q 85 482 85 510 q 74 432 85 446 q 64 393 64 417 q 71 356 64 369 q 73 350 72 353 q 74 346 74 347 q 76 342 75 344 q 76 339 76 340 q 53 318 76 335 q 47 314 47 314 q 63 317 47 314 q 97 306 97 325 q 92 299 97 300 q 64 297 88 297 l 32 297 l 35 326 q 44 538 38 353 q 53 736 51 722 m 340 217 q 326 222 326 217 q 338 226 326 226 q 351 221 351 226 q 340 217 351 217 m 436 -32 q 485 -29 472 -29 q 499 -31 497 -29 q 500 -33 500 -32 q 467 -85 500 -51 q 444 -93 450 -101 q 435 -87 439 -83 q 422 -81 432 -90 q 413 -67 413 -72 q 426 -67 413 -56 l 428 -68 q 425 -61 428 -67 q 418 -43 418 -50 q 436 -32 418 -33 z "},"6":{"ha":554,"x_min":29,"x_max":526,"o":"m 71 67 q 71 58 69 60 q 75 63 72 56 q 76 71 78 68 q 71 67 74 79 m 399 90 q 404 89 401 88 q 401 94 406 92 q 399 93 400 94 q 399 90 397 92 m 372 107 q 376 107 375 106 l 369 113 l 368 113 q 367 108 360 113 q 372 107 369 108 m 356 119 q 347 128 350 128 q 351 118 340 128 q 354 117 353 118 q 356 119 364 108 m 64 136 q 65 128 64 128 l 67 144 q 64 136 65 142 m 369 204 q 369 200 369 200 l 372 210 l 372 211 q 369 204 371 207 m 367 217 l 363 226 l 361 226 l 361 225 q 364 219 363 222 l 367 217 m 86 224 q 81 224 86 231 q 79 221 81 222 q 81 218 76 217 q 86 224 86 221 m 232 257 q 231 258 232 258 q 228 257 228 258 q 231 254 228 254 q 232 257 232 254 m 194 258 q 181 264 186 264 q 181 258 174 264 q 194 254 186 254 q 194 258 200 254 m 164 268 q 167 271 167 268 q 164 274 167 274 q 163 271 163 274 q 164 268 163 268 m 131 279 q 138 279 133 276 q 133 282 135 281 q 131 279 128 282 m 90 260 q 90 283 93 272 q 89 283 89 288 l 88 271 l 90 258 l 90 260 m 246 356 q 228 357 228 351 q 218 363 228 363 q 217 357 208 363 q 251 346 233 346 q 260 349 257 346 q 268 349 265 354 q 281 343 271 343 q 278 351 293 343 q 246 356 263 358 m 181 360 q 178 363 181 363 q 176 360 176 363 q 178 358 176 358 q 181 360 181 358 m 321 358 q 332 363 329 358 q 331 367 336 367 q 317 363 325 367 q 321 358 318 358 m 164 367 q 129 369 146 374 q 153 365 131 368 l 165 365 l 164 367 m 146 400 q 147 403 147 400 q 146 406 147 406 q 143 403 143 406 q 146 400 143 400 m 147 413 q 146 414 147 414 q 143 413 143 414 q 146 410 143 410 q 147 413 147 410 m 125 415 q 129 414 126 414 q 129 419 132 417 q 126 418 128 419 q 125 415 124 417 m 368 611 q 349 624 361 621 q 347 618 333 628 q 367 607 353 614 l 374 604 q 368 611 372 607 m 394 715 q 397 718 397 715 q 394 721 397 721 q 393 718 393 721 q 394 715 393 715 m 167 735 q 161 739 167 739 q 165 729 158 738 q 167 735 167 729 m 186 849 q 275 857 215 857 q 356 850 321 857 q 515 686 494 819 q 519 572 519 658 l 519 490 l 313 490 l 313 563 q 315 636 313 636 q 328 631 317 636 q 333 628 331 629 l 335 629 l 332 632 q 319 640 326 640 q 310 651 313 640 q 296 668 307 658 q 278 678 285 678 q 267 681 268 678 q 268 683 267 682 q 267 688 269 688 q 261 699 261 688 q 256 711 261 711 q 253 706 253 711 q 251 696 253 699 q 251 688 247 688 q 258 680 256 688 q 257 669 261 672 q 242 638 242 660 q 232 622 242 629 q 169 590 193 597 l 150 583 l 167 586 q 207 603 186 589 q 236 617 228 617 q 242 544 242 617 l 242 472 l 296 474 l 321 474 q 436 449 392 474 q 474 419 453 439 q 496 392 496 399 q 474 389 496 386 l 465 389 q 438 385 451 389 q 424 376 424 381 q 425 374 424 375 q 436 376 431 371 q 468 382 442 382 q 494 379 481 382 q 524 254 519 372 l 526 182 l 507 185 l 497 185 q 461 181 481 185 q 426 176 442 176 q 385 186 399 176 q 343 194 374 194 l 313 196 l 313 233 q 308 285 313 275 q 279 296 304 297 q 247 278 251 294 q 242 172 242 261 q 242 103 242 125 q 247 68 243 82 q 257 51 251 54 q 276 49 263 49 l 282 49 q 307 60 301 49 q 313 106 313 71 q 314 137 313 132 q 322 140 315 142 q 331 142 329 139 q 322 149 331 146 q 314 167 314 149 l 313 183 l 339 183 q 362 182 358 183 q 364 172 365 181 q 372 165 360 153 q 401 165 378 171 q 429 163 421 163 q 461 169 457 163 q 494 174 464 174 l 525 174 l 525 114 q 513 -1 525 40 q 468 -75 500 -43 q 321 -136 417 -126 q 272 -139 288 -139 q 44 -6 92 -139 q 31 178 32 32 l 31 247 q 32 342 31 338 q 42 353 35 353 q 46 364 49 353 q 47 372 44 371 q 67 371 49 372 q 97 364 93 368 q 115 363 101 360 l 122 365 l 119 367 q 114 393 113 367 q 108 426 115 419 q 97 457 97 438 q 103 485 97 465 q 108 518 111 506 q 103 558 103 547 q 111 565 103 565 q 129 571 121 565 l 128 574 q 121 572 124 572 q 99 578 108 569 q 94 594 89 586 q 101 676 101 606 q 97 700 101 692 q 65 742 92 708 q 60 756 60 747 q 85 793 60 768 q 186 849 122 832 m 42 719 q 53 740 47 740 q 76 717 60 740 l 92 696 l 89 650 q 82 586 86 601 q 88 560 79 568 q 96 525 96 551 q 88 481 96 497 q 86 443 81 467 q 83 415 92 422 q 78 410 78 411 q 89 411 79 410 q 101 410 99 413 q 103 393 103 407 l 103 374 l 83 375 q 46 382 71 375 l 29 388 l 31 540 q 42 719 32 692 z "},"7":{"ha":567,"x_min":33,"x_max":536,"o":"m 124 822 q 131 840 128 839 q 175 843 136 843 q 218 839 218 843 q 217 835 218 836 q 167 814 199 814 q 132 806 144 814 q 78 777 117 796 q 36 758 39 758 q 33 800 33 758 l 33 843 l 78 843 q 117 841 110 843 q 124 832 124 839 l 124 822 m 192 697 q 186 706 196 697 q 192 697 182 706 m 174 733 q 174 742 176 736 q 171 736 171 742 q 174 733 172 735 m 231 826 q 254 841 246 839 q 299 843 263 843 q 343 842 335 843 q 360 831 351 840 q 386 768 386 800 q 374 651 386 726 q 382 622 371 633 q 392 574 392 613 q 385 528 392 538 q 376 503 376 519 q 382 469 376 494 q 379 440 388 447 q 374 436 375 436 l 383 436 q 400 433 394 439 q 406 414 406 428 q 383 386 406 386 q 274 435 332 386 q 260 440 265 440 q 253 447 253 440 q 285 579 254 467 q 301 651 301 639 q 263 660 301 660 q 218 665 224 660 q 214 667 214 668 l 214 664 q 125 660 214 660 l 33 660 l 33 740 l 72 758 q 135 778 111 778 q 160 768 150 778 q 164 771 163 771 q 231 826 164 782 m 354 71 q 356 96 363 90 q 353 96 354 97 q 349 76 349 94 q 350 63 349 64 q 354 71 351 63 m 358 106 q 356 108 358 108 q 354 106 354 108 q 356 104 354 104 q 358 106 358 104 m 351 122 q 353 122 351 122 q 354 125 354 122 q 351 128 354 128 q 349 125 349 128 q 351 122 349 122 m 363 149 q 353 143 363 156 q 349 137 349 138 q 356 140 350 136 q 363 149 363 144 m 376 207 q 378 204 376 204 q 381 211 382 207 q 378 210 379 213 q 376 207 376 208 m 386 243 q 382 250 386 250 q 376 243 376 250 q 382 235 376 235 q 386 243 386 235 m 388 274 q 383 282 393 274 q 382 278 382 282 q 388 274 382 274 m 342 343 q 343 343 342 343 q 344 346 344 343 q 342 349 344 349 q 339 346 339 349 q 342 343 339 343 m 333 353 l 333 356 q 331 361 332 358 l 328 363 l 332 353 l 333 353 m 431 378 q 436 376 433 375 q 436 381 440 379 q 433 382 435 382 q 431 381 432 382 q 431 378 429 379 m 436 438 q 438 438 436 438 q 439 440 439 438 q 436 443 439 443 q 433 440 433 443 q 436 438 433 438 m 524 822 q 521 824 524 824 q 518 822 518 824 q 521 819 518 819 q 524 822 524 819 m 374 828 l 363 843 l 418 843 q 481 838 475 843 q 485 835 485 835 q 484 838 486 835 q 488 842 482 840 q 508 843 493 843 l 536 843 l 536 776 q 533 694 536 708 q 479 660 528 672 l 464 656 l 481 656 q 508 663 499 656 q 522 667 522 672 q 507 599 522 663 q 475 472 492 535 l 460 410 q 454 393 458 404 q 450 374 450 382 q 421 261 447 356 q 392 144 419 246 q 363 36 365 42 q 358 21 358 31 q 340 -57 358 13 l 322 -128 l 217 -128 q 107 -124 107 -128 q 149 44 107 -112 q 200 228 190 201 q 219 270 214 263 q 242 288 225 278 q 288 328 257 296 q 326 376 319 361 q 340 386 331 386 q 372 380 350 386 q 396 371 393 374 q 413 371 397 368 l 419 376 l 418 376 q 410 383 413 376 q 414 393 408 390 q 417 406 417 396 q 404 457 417 442 q 393 494 393 472 q 400 528 393 514 q 407 557 407 542 q 406 579 407 569 q 399 618 400 615 q 399 625 396 622 q 414 629 403 628 q 439 638 433 632 q 436 642 443 643 l 424 639 q 405 635 410 635 q 394 643 400 635 q 390 668 385 654 q 394 706 394 678 q 400 738 394 729 q 403 767 407 744 q 374 828 397 800 m 247 432 q 250 433 247 433 q 269 426 257 433 q 285 413 282 418 q 303 400 286 410 q 321 386 321 390 q 281 331 321 374 q 254 308 272 322 q 222 283 236 293 q 207 275 207 272 q 226 351 207 276 q 247 432 244 425 z "},"8":{"ha":551,"x_min":31,"x_max":525,"o":"m 250 763 q 251 763 250 763 q 253 765 253 763 q 250 768 253 768 q 247 765 247 768 q 250 763 247 763 m 271 789 q 268 790 271 790 q 267 789 267 790 q 268 786 267 786 q 271 789 271 786 m 332 851 q 321 842 332 853 q 318 839 319 840 l 307 826 l 319 838 q 332 851 332 850 m 207 863 q 274 865 226 865 q 338 861 338 865 q 346 860 338 858 l 349 861 q 353 861 351 861 q 447 824 393 861 q 489 783 474 806 q 504 743 504 760 q 486 725 504 725 q 480 724 481 725 q 479 718 479 722 q 479 714 479 715 q 440 675 479 697 q 368 651 401 653 q 326 643 339 651 l 314 635 l 314 649 q 303 674 314 664 q 278 683 292 683 q 253 674 263 683 q 243 615 243 664 q 235 563 243 565 q 231 561 233 563 q 206 614 219 561 q 197 654 197 646 q 203 682 197 657 q 210 719 210 710 q 222 736 210 729 q 229 753 239 750 q 225 749 222 753 q 218 742 225 742 q 211 744 213 740 q 213 763 210 747 l 213 771 q 192 849 213 825 q 193 860 185 857 q 207 863 197 861 m 135 839 q 168 853 163 853 q 189 835 176 853 q 201 813 199 822 q 203 768 203 803 q 196 706 203 719 q 186 671 189 693 l 183 647 l 163 649 q 56 679 115 651 q 38 690 40 686 q 38 708 36 694 q 71 783 43 747 q 135 839 99 819 m 521 700 q 522 690 521 699 q 524 674 524 681 q 521 668 524 668 q 510 679 515 668 q 508 700 506 690 q 513 710 510 707 q 519 710 517 713 q 521 700 521 707 m 425 -75 q 419 -80 424 -75 q 410 -83 415 -85 q 403 -87 403 -81 q 421 -82 403 -100 q 425 -75 428 -75 m 158 -74 q 156 -71 158 -71 q 153 -74 153 -71 q 156 -75 153 -75 q 158 -74 158 -75 m 457 -57 q 458 -57 457 -57 q 460 -54 460 -57 q 457 -51 460 -51 q 454 -54 454 -51 q 457 -57 454 -57 m 214 -44 q 207 -37 214 -37 q 200 -42 200 -37 q 208 -49 200 -47 q 214 -44 213 -47 m 483 -26 q 471 -31 483 -19 q 465 -37 464 -36 q 472 -33 465 -37 q 483 -26 483 -28 m 511 106 q 513 101 511 101 l 514 110 l 514 111 q 511 106 511 110 m 486 143 l 499 144 l 492 144 q 486 143 486 143 m 367 146 q 376 151 375 146 q 371 156 375 154 q 361 150 361 156 q 367 146 361 146 m 379 229 q 363 249 379 233 q 343 264 347 264 q 342 263 342 264 q 357 243 342 257 q 378 229 372 229 l 379 229 m 153 278 q 154 275 153 275 q 157 281 158 276 q 154 281 156 282 q 153 278 153 279 m 124 378 q 122 410 124 410 l 117 394 q 115 381 115 390 q 124 334 115 360 q 144 301 133 308 q 151 298 150 297 q 149 306 151 299 q 139 318 143 315 q 124 378 126 326 m 119 450 q 111 479 113 476 q 106 478 106 489 q 112 452 106 471 q 121 431 118 433 l 119 450 m 101 522 q 99 542 101 542 q 97 535 97 542 q 83 521 97 529 q 61 513 69 513 q 50 506 54 513 q 61 503 40 494 q 72 508 65 506 q 96 510 90 517 q 101 522 100 511 m 128 569 q 128 574 131 574 q 115 564 125 574 l 108 557 q 114 560 110 557 q 128 569 126 565 m 163 629 q 158 631 163 631 q 153 621 153 631 q 140 596 153 608 q 132 585 129 585 q 139 589 133 585 q 153 607 144 592 q 163 629 163 622 m 475 678 q 492 689 492 701 q 508 665 492 685 l 525 646 l 525 563 q 517 447 525 481 q 486 388 510 413 l 472 372 l 489 353 q 517 297 511 326 q 522 167 522 267 q 513 18 522 18 q 508 19 510 18 q 501 43 501 24 q 494 65 501 61 q 488 79 488 69 q 467 107 488 86 q 446 119 446 128 q 442 115 446 114 l 439 115 l 439 111 q 453 100 440 106 q 476 75 464 94 q 490 40 489 56 q 500 8 493 25 q 504 -8 504 -3 q 482 -50 504 -19 q 321 -126 435 -114 q 272 -129 290 -129 l 257 -129 q 228 -112 231 -126 q 208 -81 226 -106 q 188 -51 189 -57 q 175 -40 186 -46 q 150 28 157 -32 l 147 56 l 169 72 q 193 103 193 92 q 190 110 193 107 q 186 124 186 114 l 183 131 q 165 140 181 128 q 160 143 153 153 l 169 131 q 182 97 189 108 q 163 76 178 89 l 150 67 l 139 99 q 114 142 129 129 l 100 154 l 110 171 q 121 199 121 190 q 131 224 121 211 q 138 238 140 235 q 125 232 136 242 q 115 206 115 224 q 108 178 115 190 q 94 167 101 167 l 92 167 q 83 163 83 169 q 79 156 83 156 q 63 144 76 156 q 46 108 49 133 q 44 94 44 103 q 49 82 44 82 q 58 96 51 82 q 58 106 61 106 q 56 108 56 104 q 56 115 54 111 q 65 131 58 128 q 71 129 71 132 q 69 124 71 128 l 71 121 l 79 129 q 99 136 90 142 q 117 107 106 129 q 129 76 129 85 q 88 61 129 64 q 81 60 81 61 l 85 58 q 111 53 106 54 q 123 47 117 51 q 129 38 129 42 q 131 21 129 35 q 149 -35 132 -1 q 172 -68 165 -68 q 191 -84 178 -68 q 207 -111 204 -100 q 208 -114 207 -112 l 208 -117 q 201 -122 208 -122 q 167 -112 199 -122 q 51 -11 85 -85 q 40 31 40 15 q 41 38 40 32 q 42 47 42 43 l 42 72 q 38 65 39 65 q 31 163 31 65 q 39 293 31 256 q 72 358 47 331 l 85 371 l 68 389 q 46 424 53 406 q 33 481 33 454 q 36 493 33 490 q 36 499 40 499 q 31 601 31 499 q 35 675 31 671 q 43 674 39 678 q 95 653 51 667 q 161 638 139 640 l 190 635 l 199 608 q 207 567 207 578 q 218 537 208 556 q 233 517 228 518 q 245 488 238 515 q 253 447 253 461 q 263 421 253 433 q 278 382 274 404 q 294 304 282 329 q 303 285 304 289 q 283 282 301 282 q 251 272 257 282 q 243 211 244 261 q 242 150 242 189 q 254 63 242 71 q 278 56 265 56 q 304 65 294 56 q 314 106 314 75 q 319 136 314 136 q 329 142 329 136 q 322 143 329 144 l 321 142 l 319 142 q 314 199 314 142 q 315 250 314 242 q 324 263 317 258 q 331 267 329 265 q 329 268 332 268 q 324 267 328 267 q 314 272 314 265 q 293 353 313 329 q 285 374 279 368 q 288 381 288 376 q 269 418 288 396 q 261 449 261 429 q 263 464 261 461 q 271 464 265 467 q 292 466 278 461 q 310 476 306 471 q 314 544 314 485 l 314 606 l 328 619 q 378 636 343 633 q 433 651 417 640 q 457 664 451 664 q 475 678 464 664 m 224 544 q 233 550 224 556 q 242 535 240 543 q 242 524 243 525 q 233 529 240 522 q 224 544 224 539 m 290 332 q 294 335 290 340 q 297 332 296 333 q 304 313 308 318 l 297 315 q 290 332 290 319 z "},"9":{"ha":546,"x_min":31,"x_max":522,"o":"m 194 860 q 272 865 214 865 q 515 718 478 865 l 518 704 l 500 708 q 381 771 443 719 q 344 796 350 796 q 301 814 340 796 q 242 833 263 833 q 199 844 218 833 l 178 854 l 194 860 m 440 14 q 428 24 440 24 l 418 22 l 419 21 q 425 17 422 19 q 431 13 428 14 q 440 8 440 4 q 440 14 440 10 m 418 214 q 415 217 418 217 q 414 214 414 217 q 415 213 414 213 q 418 214 418 213 m 432 343 q 433 340 432 340 q 436 347 438 343 q 433 347 435 349 q 432 343 432 344 m 425 481 q 417 466 424 481 q 407 451 410 451 q 411 417 410 429 q 419 385 413 401 q 429 368 425 368 q 432 371 432 368 q 426 386 435 378 q 419 431 419 396 q 424 468 419 456 l 425 481 m 425 499 q 428 501 428 499 q 425 504 428 504 q 424 501 424 504 q 425 499 424 499 m 86 518 q 89 522 89 521 q 78 517 88 526 q 78 513 74 513 q 86 518 83 513 m 51 518 q 65 514 61 513 q 65 521 72 515 q 54 522 61 522 q 51 518 46 522 m 99 522 q 111 529 106 522 q 114 535 115 533 q 101 529 111 536 q 99 522 93 522 m 140 554 q 135 556 140 560 q 131 549 125 549 q 133 549 131 547 q 140 554 140 551 m 428 529 q 421 557 428 557 q 418 540 418 557 q 424 518 418 518 q 428 529 428 518 m 197 563 l 214 568 l 197 568 q 157 560 165 568 l 156 558 q 163 556 156 556 q 197 563 179 556 m 451 635 q 456 643 458 642 q 451 640 454 644 q 450 638 450 639 q 448 632 447 632 q 451 635 449 632 m 301 675 q 276 682 294 682 q 251 675 258 682 q 244 626 244 668 q 236 583 244 583 q 221 579 228 583 q 221 576 215 576 q 229 578 224 576 l 243 581 q 244 508 244 557 q 246 436 244 460 l 272 435 l 283 435 q 306 446 303 435 q 310 508 310 457 l 310 568 l 340 572 q 383 582 371 575 q 415 581 411 594 q 418 585 417 581 l 418 597 l 392 590 q 344 579 382 589 q 324 575 332 575 q 313 584 315 575 q 310 622 310 593 q 301 675 310 668 m 479 661 q 493 690 503 685 q 490 690 492 692 q 489 685 489 688 q 479 664 489 676 l 468 651 l 479 661 m 117 829 q 147 842 138 842 q 152 841 149 842 q 158 840 156 840 q 238 807 200 835 q 317 786 268 786 q 378 758 354 786 q 431 725 388 747 q 500 696 474 703 l 522 690 l 522 369 q 519 58 522 108 q 496 -29 515 7 q 451 -76 469 -76 q 442 -54 442 -76 q 427 -12 442 -42 q 403 25 413 17 q 390 72 392 35 l 390 86 q 395 122 390 111 q 415 139 400 132 q 444 167 444 153 q 442 174 444 168 q 439 187 439 181 q 429 200 439 193 l 415 210 l 426 192 q 438 168 438 172 q 422 151 438 164 q 400 138 406 138 l 399 138 q 390 164 396 140 q 385 193 385 188 q 376 213 385 201 q 367 231 367 225 q 378 249 367 239 q 388 271 385 253 q 403 296 389 282 q 410 313 414 306 q 406 311 407 317 l 406 310 q 396 300 403 303 q 383 279 388 299 q 372 253 381 264 q 357 242 364 242 l 354 242 q 338 235 347 244 q 317 226 325 224 q 310 242 310 228 l 310 257 l 251 254 l 238 254 q 46 363 92 254 q 33 538 35 392 l 33 588 q 38 713 33 694 q 117 829 51 786 m 251 814 q 256 815 253 815 q 283 810 264 815 q 307 800 303 804 q 304 796 310 797 q 290 797 299 796 q 251 814 253 803 m 329 -21 q 326 -19 329 -19 q 324 -21 324 -19 q 326 -24 324 -24 q 329 -21 329 -24 m 239 -21 q 238 -19 239 -19 q 235 -21 235 -19 q 238 -24 235 -24 q 239 -21 239 -24 m 31 197 l 33 240 l 244 240 l 244 156 q 250 65 244 71 q 256 48 256 60 q 251 29 256 36 q 252 19 247 22 q 260 25 257 15 q 261 35 261 29 q 263 47 263 44 q 265 53 264 50 q 269 57 267 57 q 278 57 272 57 q 304 69 299 57 q 310 128 310 81 q 317 183 310 183 q 315 188 321 183 q 312 201 310 192 q 321 211 314 210 q 325 206 326 213 q 325 200 324 200 q 335 206 326 199 q 351 217 346 217 q 366 197 358 217 q 374 160 374 176 l 374 139 q 348 140 365 139 q 322 142 331 142 l 346 131 l 369 121 l 369 82 q 378 28 369 44 q 383 4 386 11 q 384 -1 382 0 q 390 -1 386 -3 l 393 -1 q 425 -58 411 -1 q 429 -85 429 -76 q 421 -100 429 -94 q 383 -114 413 -106 q 276 -125 346 -125 q 181 -118 206 -125 q 46 -6 78 -87 q 31 158 31 33 l 31 197 z "},"\u0000":{"ha":222,"x_min":0,"x_max":0,"o":""},"\r":{"ha":222,"x_min":0,"x_max":0,"o":""}," ":{"ha":222,"x_min":0,"x_max":0,"o":""},"!":{"ha":296,"x_min":29,"x_max":269,"o":"m 181 646 q 182 642 181 642 l 183 650 l 182 651 l 181 646 m 104 697 q 101 700 104 700 q 99 697 99 700 q 101 696 99 696 q 104 697 104 696 m 93 700 l 92 703 q 89 708 92 706 l 88 710 q 90 701 82 710 l 93 700 m 178 717 q 178 732 178 722 q 179 746 179 742 q 178 757 179 750 l 178 764 q 175 750 176 756 q 171 707 175 736 q 167 692 169 694 q 154 689 164 689 q 122 692 139 689 q 118 693 121 692 l 111 693 q 114 692 111 693 q 118 690 117 690 q 153 682 133 685 l 174 678 l 178 717 m 171 786 q 161 793 161 799 q 169 785 161 790 q 171 786 176 779 m 144 808 q 146 811 146 808 q 144 814 146 814 q 142 811 142 814 q 144 808 142 808 m 32 832 q 79 838 35 838 q 133 829 125 838 q 140 826 140 825 q 139 832 139 831 q 201 838 139 838 l 267 838 l 265 678 q 260 503 263 521 l 257 486 l 242 500 q 228 511 232 510 q 218 514 225 513 q 199 522 211 515 q 135 539 169 539 q 99 531 111 539 q 61 521 82 521 q 36 532 39 521 q 33 626 33 543 l 33 710 l 49 711 q 62 710 53 711 q 72 710 71 710 q 79 711 82 708 q 56 721 76 714 l 35 726 l 33 778 q 32 832 32 806 m 54 511 q 96 522 63 511 q 142 532 129 532 l 146 532 q 198 513 164 531 q 246 482 232 496 q 258 465 256 472 q 260 431 260 458 q 257 395 260 403 q 242 371 254 388 q 199 333 225 349 q 135 276 174 318 q 90 215 96 233 q 64 175 86 200 l 44 151 l 42 217 q 38 396 38 325 l 38 511 l 54 511 m 235 350 q 257 369 254 369 q 260 321 260 369 q 257 193 260 246 l 254 114 l 153 114 q 51 119 51 114 q 107 196 51 143 q 150 258 139 228 q 169 301 161 290 q 196 321 178 311 q 235 350 214 329 m 114 214 q 110 218 110 214 q 124 249 110 228 q 144 269 139 269 q 146 267 146 269 q 131 238 146 261 q 114 214 117 214 m 31 -28 l 33 72 l 269 72 q 268 -31 269 38 q 267 -133 267 -100 l 151 -135 q 32 -132 35 -135 q 29 -87 29 -129 q 31 -28 29 -51 z "},"\"":{"ha":568,"x_min":31,"x_max":542,"o":"m 179 606 q 185 608 183 608 l 176 610 q 161 606 164 610 q 165 601 158 601 q 179 606 169 601 m 54 642 q 51 643 54 643 q 50 642 50 643 q 51 639 50 639 q 54 642 54 639 m 171 764 q 164 771 169 769 q 156 767 158 772 q 158 760 154 764 q 169 753 161 756 q 185 751 176 751 q 206 746 200 751 q 210 743 210 743 q 208 746 211 743 q 217 756 207 751 q 238 751 235 761 q 236 747 238 750 q 256 743 233 743 q 261 743 258 743 l 271 744 l 265 746 q 243 754 257 747 q 215 761 229 761 q 201 760 207 761 q 171 764 172 756 m 144 768 q 142 771 144 771 q 139 768 139 771 q 142 767 139 767 q 144 768 144 767 m 36 811 q 40 832 36 833 q 44 832 44 825 q 163 838 44 838 l 281 838 l 281 750 l 281 718 q 265 617 281 661 q 242 561 247 561 l 236 567 q 231 571 229 575 l 235 557 q 238 546 238 551 q 229 511 238 536 l 218 478 l 139 478 q 58 481 58 478 q 71 543 58 483 q 85 608 83 603 q 107 608 88 615 q 133 601 131 601 l 135 601 q 121 610 135 604 q 94 619 101 619 q 88 625 88 619 q 61 629 88 629 q 35 638 39 629 q 31 697 31 647 l 31 717 l 31 782 l 53 778 q 84 769 65 776 q 117 763 103 763 q 114 767 142 763 q 82 776 106 768 q 47 785 58 785 q 38 788 39 785 q 36 811 36 792 m 390 550 q 371 563 385 563 q 364 561 364 561 q 369 560 364 561 q 385 540 379 558 q 390 528 388 531 q 393 532 392 526 q 390 550 393 539 m 357 558 q 347 558 357 565 q 349 554 342 554 q 357 558 357 554 m 404 679 q 401 681 404 681 q 399 679 399 681 q 401 676 399 676 q 404 679 404 676 m 404 713 q 401 714 404 714 q 399 713 399 714 q 401 710 399 710 q 404 713 404 710 m 408 736 q 415 739 408 732 l 418 744 q 412 744 415 747 q 408 736 408 742 m 293 835 q 418 836 294 836 l 539 835 q 540 819 542 825 q 528 814 539 814 q 496 806 518 814 q 474 796 474 799 q 476 794 475 794 q 479 790 485 794 q 479 785 472 785 q 499 794 486 785 q 525 804 511 804 l 540 804 l 540 667 q 478 478 519 603 l 461 481 q 399 513 406 492 q 394 515 394 524 q 368 510 394 507 q 329 522 331 515 q 330 526 329 524 q 331 532 331 529 q 333 554 333 549 q 335 561 333 556 q 338 575 336 567 q 340 589 339 583 q 346 619 346 610 q 321 631 346 629 l 293 632 l 292 693 q 296 761 292 756 q 314 767 301 767 q 338 776 325 767 l 350 785 l 326 778 q 300 772 301 772 q 290 801 290 772 q 293 835 290 832 m 318 485 q 322 493 318 489 q 354 497 326 497 q 378 494 369 497 q 385 485 385 492 q 351 478 385 478 q 318 485 318 478 z "},"“":{"ha":568,"x_min":31,"x_max":542,"o":"m 179 606 q 185 608 183 608 l 176 610 q 161 606 164 610 q 165 601 158 601 q 179 606 169 601 m 54 642 q 51 643 54 643 q 50 642 50 643 q 51 639 50 639 q 54 642 54 639 m 171 764 q 164 771 169 769 q 156 767 158 772 q 158 760 154 764 q 169 753 161 756 q 185 751 176 751 q 206 746 200 751 q 210 743 210 743 q 208 746 211 743 q 217 756 207 751 q 238 751 235 761 q 236 747 238 750 q 256 743 233 743 q 261 743 258 743 l 271 744 l 265 746 q 243 754 257 747 q 215 761 229 761 q 201 760 207 761 q 171 764 172 756 m 144 768 q 142 771 144 771 q 139 768 139 771 q 142 767 139 767 q 144 768 144 767 m 36 811 q 40 832 36 833 q 44 832 44 825 q 163 838 44 838 l 281 838 l 281 750 l 281 718 q 265 617 281 661 q 242 561 247 561 l 236 567 q 231 571 229 575 l 235 557 q 238 546 238 551 q 229 511 238 536 l 218 478 l 139 478 q 58 481 58 478 q 71 543 58 483 q 85 608 83 603 q 107 608 88 615 q 133 601 131 601 l 135 601 q 121 610 135 604 q 94 619 101 619 q 88 625 88 619 q 61 629 88 629 q 35 638 39 629 q 31 697 31 647 l 31 717 l 31 782 l 53 778 q 84 769 65 776 q 117 763 103 763 q 114 767 142 763 q 82 776 106 768 q 47 785 58 785 q 38 788 39 785 q 36 811 36 792 m 390 550 q 371 563 385 563 q 364 561 364 561 q 369 560 364 561 q 385 540 379 558 q 390 528 388 531 q 393 532 392 526 q 390 550 393 539 m 357 558 q 347 558 357 565 q 349 554 342 554 q 357 558 357 554 m 404 679 q 401 681 404 681 q 399 679 399 681 q 401 676 399 676 q 404 679 404 676 m 404 713 q 401 714 404 714 q 399 713 399 714 q 401 710 399 710 q 404 713 404 710 m 408 736 q 415 739 408 732 l 418 744 q 412 744 415 747 q 408 736 408 742 m 293 835 q 418 836 294 836 l 539 835 q 540 819 542 825 q 528 814 539 814 q 496 806 518 814 q 474 796 474 799 q 476 794 475 794 q 479 790 485 794 q 479 785 472 785 q 499 794 486 785 q 525 804 511 804 l 540 804 l 540 667 q 478 478 519 603 l 461 481 q 399 513 406 492 q 394 515 394 524 q 368 510 394 507 q 329 522 331 515 q 330 526 329 524 q 331 532 331 529 q 333 554 333 549 q 335 561 333 556 q 338 575 336 567 q 340 589 339 583 q 346 619 346 610 q 321 631 346 629 l 293 632 l 292 693 q 296 761 292 756 q 314 767 301 767 q 338 776 325 767 l 350 785 l 326 778 q 300 772 301 772 q 290 801 290 772 q 293 835 290 832 m 318 485 q 322 493 318 489 q 354 497 326 497 q 378 494 369 497 q 385 485 385 492 q 351 478 385 478 q 318 485 318 478 z "},"”":{"ha":568,"x_min":31,"x_max":542,"o":"m 179 606 q 185 608 183 608 l 176 610 q 161 606 164 610 q 165 601 158 601 q 179 606 169 601 m 54 642 q 51 643 54 643 q 50 642 50 643 q 51 639 50 639 q 54 642 54 639 m 171 764 q 164 771 169 769 q 156 767 158 772 q 158 760 154 764 q 169 753 161 756 q 185 751 176 751 q 206 746 200 751 q 210 743 210 743 q 208 746 211 743 q 217 756 207 751 q 238 751 235 761 q 236 747 238 750 q 256 743 233 743 q 261 743 258 743 l 271 744 l 265 746 q 243 754 257 747 q 215 761 229 761 q 201 760 207 761 q 171 764 172 756 m 144 768 q 142 771 144 771 q 139 768 139 771 q 142 767 139 767 q 144 768 144 767 m 36 811 q 40 832 36 833 q 44 832 44 825 q 163 838 44 838 l 281 838 l 281 750 l 281 718 q 265 617 281 661 q 242 561 247 561 l 236 567 q 231 571 229 575 l 235 557 q 238 546 238 551 q 229 511 238 536 l 218 478 l 139 478 q 58 481 58 478 q 71 543 58 483 q 85 608 83 603 q 107 608 88 615 q 133 601 131 601 l 135 601 q 121 610 135 604 q 94 619 101 619 q 88 625 88 619 q 61 629 88 629 q 35 638 39 629 q 31 697 31 647 l 31 717 l 31 782 l 53 778 q 84 769 65 776 q 117 763 103 763 q 114 767 142 763 q 82 776 106 768 q 47 785 58 785 q 38 788 39 785 q 36 811 36 792 m 390 550 q 371 563 385 563 q 364 561 364 561 q 369 560 364 561 q 385 540 379 558 q 390 528 388 531 q 393 532 392 526 q 390 550 393 539 m 357 558 q 347 558 357 565 q 349 554 342 554 q 357 558 357 554 m 404 679 q 401 681 404 681 q 399 679 399 681 q 401 676 399 676 q 404 679 404 676 m 404 713 q 401 714 404 714 q 399 713 399 714 q 401 710 399 710 q 404 713 404 710 m 408 736 q 415 739 408 732 l 418 744 q 412 744 415 747 q 408 736 408 742 m 293 835 q 418 836 294 836 l 539 835 q 540 819 542 825 q 528 814 539 814 q 496 806 518 814 q 474 796 474 799 q 476 794 475 794 q 479 790 485 794 q 479 785 472 785 q 499 794 486 785 q 525 804 511 804 l 540 804 l 540 667 q 478 478 519 603 l 461 481 q 399 513 406 492 q 394 515 394 524 q 368 510 394 507 q 329 522 331 515 q 330 526 329 524 q 331 532 331 529 q 333 554 333 549 q 335 561 333 556 q 338 575 336 567 q 340 589 339 583 q 346 619 346 610 q 321 631 346 629 l 293 632 l 292 693 q 296 761 292 756 q 314 767 301 767 q 338 776 325 767 l 350 785 l 326 778 q 300 772 301 772 q 290 801 290 772 q 293 835 290 832 m 318 485 q 322 493 318 489 q 354 497 326 497 q 378 494 369 497 q 385 485 385 492 q 351 478 385 478 q 318 485 318 478 z "},"„":{"ha":568,"x_min":31,"x_max":542,"o":"m 179 606 q 185 608 183 608 l 176 610 q 161 606 164 610 q 165 601 158 601 q 179 606 169 601 m 54 642 q 51 643 54 643 q 50 642 50 643 q 51 639 50 639 q 54 642 54 639 m 171 764 q 164 771 169 769 q 156 767 158 772 q 158 760 154 764 q 169 753 161 756 q 185 751 176 751 q 206 746 200 751 q 210 743 210 743 q 208 746 211 743 q 217 756 207 751 q 238 751 235 761 q 236 747 238 750 q 256 743 233 743 q 261 743 258 743 l 271 744 l 265 746 q 243 754 257 747 q 215 761 229 761 q 201 760 207 761 q 171 764 172 756 m 144 768 q 142 771 144 771 q 139 768 139 771 q 142 767 139 767 q 144 768 144 767 m 36 811 q 40 832 36 833 q 44 832 44 825 q 163 838 44 838 l 281 838 l 281 750 l 281 718 q 265 617 281 661 q 242 561 247 561 l 236 567 q 231 571 229 575 l 235 557 q 238 546 238 551 q 229 511 238 536 l 218 478 l 139 478 q 58 481 58 478 q 71 543 58 483 q 85 608 83 603 q 107 608 88 615 q 133 601 131 601 l 135 601 q 121 610 135 604 q 94 619 101 619 q 88 625 88 619 q 61 629 88 629 q 35 638 39 629 q 31 697 31 647 l 31 717 l 31 782 l 53 778 q 84 769 65 776 q 117 763 103 763 q 114 767 142 763 q 82 776 106 768 q 47 785 58 785 q 38 788 39 785 q 36 811 36 792 m 390 550 q 371 563 385 563 q 364 561 364 561 q 369 560 364 561 q 385 540 379 558 q 390 528 388 531 q 393 532 392 526 q 390 550 393 539 m 357 558 q 347 558 357 565 q 349 554 342 554 q 357 558 357 554 m 404 679 q 401 681 404 681 q 399 679 399 681 q 401 676 399 676 q 404 679 404 676 m 404 713 q 401 714 404 714 q 399 713 399 714 q 401 710 399 710 q 404 713 404 710 m 408 736 q 415 739 408 732 l 418 744 q 412 744 415 747 q 408 736 408 742 m 293 835 q 418 836 294 836 l 539 835 q 540 819 542 825 q 528 814 539 814 q 496 806 518 814 q 474 796 474 799 q 476 794 475 794 q 479 790 485 794 q 479 785 472 785 q 499 794 486 785 q 525 804 511 804 l 540 804 l 540 667 q 478 478 519 603 l 461 481 q 399 513 406 492 q 394 515 394 524 q 368 510 394 507 q 329 522 331 515 q 330 526 329 524 q 331 532 331 529 q 333 554 333 549 q 335 561 333 556 q 338 575 336 567 q 340 589 339 583 q 346 619 346 610 q 321 631 346 629 l 293 632 l 292 693 q 296 761 292 756 q 314 767 301 767 q 338 776 325 767 l 350 785 l 326 778 q 300 772 301 772 q 290 801 290 772 q 293 835 290 832 m 318 485 q 322 493 318 489 q 354 497 326 497 q 378 494 369 497 q 385 485 385 492 q 351 478 385 478 q 318 485 318 478 z "},"%":{"ha":892,"x_min":31,"x_max":864,"o":"m 64 333 q 63 336 64 336 q 60 333 60 336 q 63 332 60 332 q 64 333 64 332 m 242 714 q 243 714 242 714 q 244 717 244 714 q 242 719 244 719 q 239 717 239 719 q 242 714 239 714 m 268 721 q 265 724 268 724 q 263 721 263 724 q 265 719 263 719 q 268 721 268 719 m 281 785 l 281 786 q 278 792 279 789 l 275 794 l 279 785 l 281 785 m 249 819 q 244 840 249 832 q 235 833 239 849 q 233 818 232 825 q 231 810 236 810 q 218 811 228 810 l 199 814 l 215 808 q 242 793 232 803 q 261 777 249 785 q 276 772 274 769 q 265 783 278 775 q 256 794 253 792 q 254 801 258 800 q 249 819 249 804 m 168 835 q 158 846 168 840 q 140 851 149 851 q 133 851 135 851 l 142 847 l 168 835 m 108 851 q 124 856 117 851 q 138 863 132 861 q 175 864 142 864 l 199 864 q 278 850 251 863 q 346 751 338 821 q 342 728 349 728 q 313 750 332 728 q 292 767 292 771 q 286 764 292 761 q 290 756 282 767 q 300 742 300 744 q 288 732 300 739 q 279 724 274 724 q 294 731 285 724 q 326 725 304 738 l 349 714 l 349 542 q 344 363 349 397 q 314 300 339 328 q 279 276 292 276 q 264 282 271 276 q 229 285 250 290 q 199 286 204 279 q 160 293 190 296 q 140 292 151 292 q 112 299 126 292 q 82 308 97 306 q 50 323 58 314 q 36 360 42 332 q 37 378 33 375 q 57 374 40 381 q 67 354 69 369 q 67 343 64 343 q 69 346 67 343 q 74 364 74 353 q 53 379 74 375 l 32 386 l 32 499 l 33 611 l 61 626 q 104 642 82 638 q 143 656 118 642 l 167 668 l 168 529 l 171 390 l 208 390 q 210 539 208 440 q 211 688 211 638 l 224 701 l 238 715 l 224 713 q 215 711 217 711 q 212 713 213 711 q 211 721 211 715 q 209 732 211 731 q 192 732 207 733 l 171 731 l 169 704 q 157 674 168 676 q 144 667 144 671 q 130 660 144 665 q 100 649 115 654 l 83 643 q 31 624 67 632 l 32 696 q 43 789 33 763 q 74 829 50 807 q 108 851 97 851 m 396 160 q 393 161 396 161 q 390 160 390 161 q 393 157 390 157 q 396 160 396 157 m 424 193 q 418 192 424 199 l 417 189 q 418 188 415 186 q 424 193 424 190 m 429 221 l 431 214 l 432 229 q 429 221 431 226 m 443 261 q 446 276 449 272 q 442 272 444 281 q 436 251 433 256 l 443 261 m 451 296 q 450 299 451 299 q 447 296 447 299 q 450 294 447 294 q 451 296 451 294 m 460 303 q 461 306 461 303 q 460 308 461 308 q 457 306 457 308 q 460 303 457 303 m 490 343 q 488 346 490 346 q 485 343 485 346 q 488 342 485 342 q 490 343 490 342 m 497 372 q 494 361 494 363 l 500 368 l 503 376 q 497 372 500 379 m 514 392 q 508 393 514 393 q 504 388 504 393 q 514 392 506 385 m 496 443 l 496 436 q 497 451 500 443 q 496 443 496 447 m 494 461 q 492 464 494 464 q 490 461 490 464 q 492 460 490 460 q 494 461 494 460 m 467 542 q 468 538 467 538 l 469 546 l 469 547 q 467 542 467 546 m 468 575 l 469 565 q 469 586 471 578 q 468 575 468 581 m 601 629 q 603 633 603 633 l 600 633 q 593 631 597 632 q 585 629 589 629 l 568 626 l 583 625 q 601 629 600 625 m 521 653 q 504 653 504 660 q 517 649 504 649 l 526 650 q 521 653 525 650 m 553 815 l 561 838 l 721 838 l 713 817 q 638 654 653 661 q 624 646 624 647 q 632 647 625 646 q 640 647 640 650 q 640 643 642 646 q 636 632 640 642 q 629 617 632 622 l 621 596 q 607 609 617 600 q 592 622 597 618 l 606 606 l 618 588 l 581 499 q 561 452 572 478 q 543 410 550 426 q 533 388 536 393 q 525 367 531 382 q 514 340 519 351 q 503 328 508 329 q 496 324 497 326 q 497 320 494 322 q 499 317 499 318 q 457 205 499 308 q 408 92 415 101 q 390 88 404 85 q 376 86 376 90 q 365 81 376 85 q 354 74 353 75 l 356 74 q 376 77 358 74 q 400 81 394 81 l 403 81 q 396 56 406 78 q 385 36 389 39 q 368 36 382 33 q 335 32 346 39 q 326 28 328 29 q 320 27 324 26 q 315 30 317 28 q 311 38 314 32 q 286 64 303 53 q 268 83 268 76 q 261 94 268 90 q 260 99 260 94 q 297 201 260 118 q 339 288 333 285 q 356 294 347 290 q 371 302 365 299 q 375 307 376 306 q 365 306 374 308 q 349 303 357 304 l 340 300 q 401 453 340 308 q 467 599 463 599 q 471 607 471 599 q 553 815 471 622 m 740 404 q 740 400 740 400 l 743 410 l 743 411 q 740 404 742 407 m 724 436 q 718 444 728 436 q 724 436 715 444 m 690 464 l 689 465 q 689 468 689 467 q 704 476 689 476 q 746 471 707 476 q 790 460 763 469 l 811 450 l 803 435 q 749 361 779 389 q 717 344 728 344 l 710 344 q 686 340 690 347 q 639 333 683 333 q 588 340 594 333 q 575 342 578 347 q 558 338 571 335 q 546 350 546 342 q 549 363 546 356 q 553 376 553 369 q 565 410 553 388 q 590 443 578 433 q 629 463 604 453 q 665 474 654 474 q 685 465 674 474 q 690 464 690 463 m 810 419 q 832 432 828 435 q 847 406 836 428 q 863 335 861 376 l 864 288 l 846 301 q 808 322 828 317 q 764 350 764 336 q 780 383 764 360 q 810 419 796 407 m 831 294 q 840 292 833 294 q 853 288 846 290 q 863 283 860 285 l 863 7 l 819 4 q 796 3 811 4 q 769 1 781 1 q 751 0 757 0 l 728 -1 l 726 164 q 728 335 726 332 q 742 340 731 342 q 761 332 754 339 q 782 322 768 322 q 808 308 794 322 q 831 294 822 294 m 678 194 q 674 215 678 207 q 671 217 671 222 l 671 207 q 676 185 672 183 q 678 194 678 186 m 664 247 q 667 243 664 243 q 669 246 669 243 q 668 250 669 249 q 665 250 667 251 q 664 247 664 249 m 656 275 q 650 286 656 283 q 646 283 644 289 q 657 263 646 272 q 661 261 661 261 q 656 275 656 269 m 568 39 l 546 39 l 546 328 l 576 325 q 622 319 601 322 l 633 321 l 632 321 q 632 328 625 325 q 640 329 633 329 q 675 324 654 329 q 683 171 683 321 l 683 19 l 628 21 q 560 15 574 21 q 548 13 550 13 q 546 21 546 14 q 549 28 546 25 q 560 35 553 32 q 568 39 567 39 m 78 289 q 68 300 68 297 q 72 303 68 303 q 108 293 81 303 q 146 286 128 286 l 154 286 q 186 283 175 289 q 229 272 211 272 q 238 275 235 272 q 251 279 240 279 q 263 275 263 279 q 249 271 263 271 q 238 264 238 271 q 193 257 238 257 q 167 258 175 257 q 78 289 106 265 m 240 68 q 254 90 250 90 q 261 83 257 90 q 264 71 265 75 q 278 63 264 67 q 297 49 286 60 q 307 29 307 39 q 304 21 307 26 q 304 13 299 14 q 310 -6 310 10 q 331 -39 310 -22 l 350 -56 q 333 -94 344 -68 q 317 -133 322 -119 l 238 -135 l 201 -135 q 160 -131 160 -135 q 240 68 160 -122 m 328 6 q 329 10 328 6 q 335 17 329 14 q 361 19 340 19 l 381 19 l 369 -7 q 349 -36 358 -35 q 332 -32 339 -37 q 325 -17 325 -26 q 332 -12 325 -7 q 339 -14 339 -18 q 333 -6 339 -8 q 328 6 328 -3 m 563 -64 q 550 -22 550 -36 q 563 -2 550 -7 q 604 3 575 3 l 629 3 q 715 -17 707 -1 q 735 -19 717 -19 q 843 -10 785 -19 l 864 -7 l 861 -24 q 703 -133 839 -133 q 563 -64 594 -133 z "},"&":{"ha":650,"x_min":29,"x_max":619,"o":"m 167 18 q 161 19 167 19 q 157 15 157 19 q 167 18 158 10 m 488 50 q 485 53 488 53 q 483 50 483 53 q 485 49 483 49 q 488 50 488 49 m 464 63 q 458 67 464 67 q 463 57 456 65 q 464 63 464 57 m 446 74 q 438 82 440 82 q 442 72 431 82 q 444 71 443 72 q 446 74 454 63 m 157 97 q 154 114 157 114 q 150 103 150 114 q 154 82 150 82 q 157 97 157 82 m 422 178 q 426 176 424 176 q 429 179 431 178 q 426 181 429 181 q 422 178 424 179 m 457 160 q 453 175 458 165 q 444 185 449 185 q 447 178 440 185 q 454 163 454 171 q 457 160 456 161 m 363 178 q 351 190 356 190 q 363 172 344 190 q 367 168 367 167 q 363 178 367 169 m 171 185 q 172 181 171 181 q 174 189 175 183 q 171 185 172 188 m 181 215 q 174 218 181 229 q 176 211 169 211 q 181 215 181 211 m 221 232 q 222 235 222 232 q 221 238 222 238 q 218 235 218 238 q 221 232 218 232 m 175 242 q 176 239 175 239 q 179 246 181 242 q 176 246 178 247 q 175 242 175 244 m 308 251 l 308 275 l 290 275 q 250 261 265 275 q 242 161 242 254 q 244 61 242 69 q 276 53 249 53 q 303 58 297 53 q 308 133 308 64 q 313 207 308 206 q 313 218 317 210 q 308 251 308 224 m 603 303 q 606 306 606 303 q 603 308 606 308 q 601 306 601 308 q 603 303 601 303 m 389 303 q 390 299 389 299 q 392 307 393 301 q 389 303 390 306 m 315 313 q 303 314 308 318 q 350 301 303 306 l 372 301 q 360 306 367 303 q 351 310 354 310 q 335 310 347 311 q 315 313 318 307 m 406 313 q 419 319 419 313 q 403 318 419 328 q 406 313 396 313 m 583 332 q 593 338 590 332 q 589 342 590 340 q 579 336 582 342 q 583 332 581 333 m 571 339 q 553 343 567 343 l 549 343 q 523 339 536 343 q 510 331 510 335 q 511 329 510 329 q 522 331 518 326 q 551 336 528 336 l 571 339 m 235 350 q 238 360 238 350 q 233 369 238 369 q 230 365 231 369 q 231 355 229 360 q 235 350 233 350 m 410 585 q 414 586 415 583 l 407 592 q 403 590 403 592 q 410 585 404 588 m 397 593 q 393 597 396 594 q 385 606 390 600 q 377 614 381 611 q 374 615 374 617 q 378 609 374 614 q 381 600 383 604 q 381 597 379 596 l 397 593 m 490 633 q 492 636 492 633 q 490 639 492 639 q 488 636 488 639 q 490 633 488 633 m 344 667 q 343 667 344 667 q 339 664 343 668 q 337 649 335 660 q 344 632 339 638 q 356 625 351 625 l 356 626 q 350 644 356 631 q 344 660 344 657 q 344 667 344 665 m 485 667 q 488 669 488 667 q 485 672 488 672 q 483 669 483 672 q 485 667 483 667 m 256 689 q 251 690 256 690 q 246 686 246 690 q 254 685 246 678 q 256 689 256 688 m 194 846 q 264 850 218 850 q 363 843 325 850 q 480 778 442 826 q 524 638 518 731 q 524 618 524 631 q 525 600 525 606 q 525 585 525 593 l 524 576 q 516 566 521 568 q 489 564 511 564 q 444 571 458 564 q 433 574 433 575 q 433 569 433 571 q 379 563 433 563 q 324 569 324 563 q 322 573 325 571 q 317 575 319 575 q 308 618 310 575 q 306 656 307 650 q 296 667 304 663 q 279 669 292 669 q 246 657 253 669 q 242 506 242 650 q 251 469 242 479 q 285 460 260 460 l 307 460 q 308 489 308 469 q 310 518 308 508 l 414 519 l 464 519 q 521 515 517 519 q 525 485 525 507 l 525 460 l 618 460 l 619 400 l 619 376 q 611 340 619 340 q 611 338 594 340 q 618 307 619 336 l 617 278 q 571 276 601 278 q 525 275 540 275 l 525 204 q 519 131 525 132 l 517 131 q 475 140 507 131 q 418 151 438 151 l 411 151 q 386 146 386 149 q 385 143 388 143 q 383 139 383 143 q 400 101 383 113 q 414 97 411 93 q 410 107 418 103 q 406 108 408 108 q 400 122 403 108 q 400 131 400 128 q 401 135 400 133 q 406 138 403 138 q 414 140 408 139 q 428 142 419 142 q 449 128 449 142 q 447 119 449 124 q 449 118 447 117 q 453 121 450 118 l 454 122 q 467 125 457 125 q 488 122 474 125 q 507 119 501 119 q 524 111 521 119 l 525 108 q 525 103 525 106 q 506 -15 525 40 q 472 -67 496 -40 q 425 -106 449 -94 q 275 -133 369 -133 q 156 -119 200 -133 q 79 -68 111 -104 q 40 6 51 -36 q 29 124 29 47 q 37 213 29 188 q 67 250 44 238 q 107 285 78 256 q 132 306 128 308 q 135 313 136 304 q 132 328 135 319 l 157 325 q 185 318 181 322 q 215 321 186 315 q 236 326 236 326 l 221 325 q 200 326 200 324 q 201 329 200 326 q 204 353 204 338 q 213 371 204 369 q 211 374 224 374 q 185 413 185 376 q 189 432 185 424 q 194 469 194 443 q 189 507 194 496 q 196 515 183 515 q 217 524 206 515 q 219 529 225 529 q 208 528 217 529 q 185 532 193 525 q 183 549 178 539 q 186 569 189 557 q 190 600 185 579 q 193 618 193 611 q 164 681 193 644 q 126 769 126 725 q 128 779 126 776 q 125 801 132 789 q 124 821 118 815 q 194 846 135 836 m 82 789 q 107 808 101 808 q 117 764 115 808 l 119 728 l 103 721 q 67 696 92 715 q 36 674 38 674 q 33 679 33 674 q 34 685 33 681 q 35 693 35 690 q 82 789 42 749 m 49 499 q 49 494 49 494 l 51 504 l 51 506 q 49 499 50 501 m 49 547 q 46 549 49 549 q 43 547 43 549 q 46 544 43 544 q 49 547 49 544 m 44 661 q 124 710 110 710 q 157 678 132 710 l 182 646 l 178 606 q 169 543 175 571 q 174 514 163 521 q 185 469 185 507 q 178 440 185 447 q 171 418 171 433 q 176 390 171 410 q 172 371 182 376 q 167 366 167 367 q 176 365 168 365 q 193 357 190 365 q 192 337 196 347 q 182 326 189 326 q 104 357 143 326 q 81 371 83 374 l 79 371 q 63 388 75 371 q 43 419 50 404 q 32 458 35 440 q 31 476 29 472 q 39 479 32 479 q 47 481 47 481 q 40 482 47 481 q 35 483 36 482 q 31 494 33 485 q 29 518 29 503 q 29 565 29 533 l 29 649 l 44 661 m 58 339 q 82 360 72 360 q 100 349 89 360 q 117 336 110 336 q 125 329 125 336 q 86 275 125 307 q 67 258 81 271 q 49 242 53 246 l 29 226 l 29 246 q 58 339 29 297 z "},"'":{"ha":308,"x_min":31,"x_max":281,"o":"m 147 531 q 142 539 150 531 q 147 531 138 539 m 124 549 l 122 550 q 119 556 122 553 l 118 558 l 122 549 l 124 549 m 222 572 q 225 576 225 575 q 215 572 225 581 q 214 568 211 568 q 222 572 219 568 m 100 581 l 106 575 q 101 583 107 578 q 98 586 99 586 q 100 581 97 586 m 271 721 q 269 724 271 724 q 267 721 267 724 q 269 719 267 719 q 271 721 271 719 m 153 761 q 154 758 153 758 q 157 765 158 761 q 154 765 156 767 q 153 761 153 764 m 215 797 q 186 790 215 800 q 171 783 171 785 q 175 782 171 783 l 176 782 q 200 788 185 782 q 215 797 215 793 m 150 524 q 149 517 151 522 q 144 506 146 511 q 143 501 142 501 q 149 497 149 501 q 101 492 149 492 q 56 497 56 492 l 56 500 q 57 503 57 501 q 82 638 82 622 q 57 643 82 643 l 31 643 l 31 769 l 51 767 q 76 767 74 764 q 81 769 78 768 q 88 769 85 769 q 95 769 92 769 q 101 766 99 768 q 103 763 103 764 q 106 758 101 760 q 124 757 111 757 q 128 757 125 757 l 138 758 q 132 760 136 760 q 108 768 122 761 q 82 775 94 775 q 76 774 81 775 q 68 774 71 774 q 53 772 63 772 q 35 781 39 772 q 31 819 31 790 l 31 851 l 129 853 q 254 856 224 853 l 281 856 l 281 689 l 263 635 q 236 576 244 581 q 235 574 235 574 q 235 549 243 574 l 226 525 l 207 528 q 176 522 186 531 q 150 524 167 514 m 168 499 q 200 511 168 511 q 216 510 213 511 q 218 503 219 508 q 186 492 215 492 q 168 499 168 492 z "},"‘":{"ha":308,"x_min":31,"x_max":281,"o":"m 147 531 q 142 539 150 531 q 147 531 138 539 m 124 549 l 122 550 q 119 556 122 553 l 118 558 l 122 549 l 124 549 m 222 572 q 225 576 225 575 q 215 572 225 581 q 214 568 211 568 q 222 572 219 568 m 100 581 l 106 575 q 101 583 107 578 q 98 586 99 586 q 100 581 97 586 m 271 721 q 269 724 271 724 q 267 721 267 724 q 269 719 267 719 q 271 721 271 719 m 153 761 q 154 758 153 758 q 157 765 158 761 q 154 765 156 767 q 153 761 153 764 m 215 797 q 186 790 215 800 q 171 783 171 785 q 175 782 171 783 l 176 782 q 200 788 185 782 q 215 797 215 793 m 150 524 q 149 517 151 522 q 144 506 146 511 q 143 501 142 501 q 149 497 149 501 q 101 492 149 492 q 56 497 56 492 l 56 500 q 57 503 57 501 q 82 638 82 622 q 57 643 82 643 l 31 643 l 31 769 l 51 767 q 76 767 74 764 q 81 769 78 768 q 88 769 85 769 q 95 769 92 769 q 101 766 99 768 q 103 763 103 764 q 106 758 101 760 q 124 757 111 757 q 128 757 125 757 l 138 758 q 132 760 136 760 q 108 768 122 761 q 82 775 94 775 q 76 774 81 775 q 68 774 71 774 q 53 772 63 772 q 35 781 39 772 q 31 819 31 790 l 31 851 l 129 853 q 254 856 224 853 l 281 856 l 281 689 l 263 635 q 236 576 244 581 q 235 574 235 574 q 235 549 243 574 l 226 525 l 207 528 q 176 522 186 531 q 150 524 167 514 m 168 499 q 200 511 168 511 q 216 510 213 511 q 218 503 219 508 q 186 492 215 492 q 168 499 168 492 z "},"’":{"ha":308,"x_min":31,"x_max":281,"o":"m 147 531 q 142 539 150 531 q 147 531 138 539 m 124 549 l 122 550 q 119 556 122 553 l 118 558 l 122 549 l 124 549 m 222 572 q 225 576 225 575 q 215 572 225 581 q 214 568 211 568 q 222 572 219 568 m 100 581 l 106 575 q 101 583 107 578 q 98 586 99 586 q 100 581 97 586 m 271 721 q 269 724 271 724 q 267 721 267 724 q 269 719 267 719 q 271 721 271 719 m 153 761 q 154 758 153 758 q 157 765 158 761 q 154 765 156 767 q 153 761 153 764 m 215 797 q 186 790 215 800 q 171 783 171 785 q 175 782 171 783 l 176 782 q 200 788 185 782 q 215 797 215 793 m 150 524 q 149 517 151 522 q 144 506 146 511 q 143 501 142 501 q 149 497 149 501 q 101 492 149 492 q 56 497 56 492 l 56 500 q 57 503 57 501 q 82 638 82 622 q 57 643 82 643 l 31 643 l 31 769 l 51 767 q 76 767 74 764 q 81 769 78 768 q 88 769 85 769 q 95 769 92 769 q 101 766 99 768 q 103 763 103 764 q 106 758 101 760 q 124 757 111 757 q 128 757 125 757 l 138 758 q 132 760 136 760 q 108 768 122 761 q 82 775 94 775 q 76 774 81 775 q 68 774 71 774 q 53 772 63 772 q 35 781 39 772 q 31 819 31 790 l 31 851 l 129 853 q 254 856 224 853 l 281 856 l 281 689 l 263 635 q 236 576 244 581 q 235 574 235 574 q 235 549 243 574 l 226 525 l 207 528 q 176 522 186 531 q 150 524 167 514 m 168 499 q 200 511 168 511 q 216 510 213 511 q 218 503 219 508 q 186 492 215 492 q 168 499 168 492 z "},"‚":{"ha":308,"x_min":31,"x_max":281,"o":"m 147 531 q 142 539 150 531 q 147 531 138 539 m 124 549 l 122 550 q 119 556 122 553 l 118 558 l 122 549 l 124 549 m 222 572 q 225 576 225 575 q 215 572 225 581 q 214 568 211 568 q 222 572 219 568 m 100 581 l 106 575 q 101 583 107 578 q 98 586 99 586 q 100 581 97 586 m 271 721 q 269 724 271 724 q 267 721 267 724 q 269 719 267 719 q 271 721 271 719 m 153 761 q 154 758 153 758 q 157 765 158 761 q 154 765 156 767 q 153 761 153 764 m 215 797 q 186 790 215 800 q 171 783 171 785 q 175 782 171 783 l 176 782 q 200 788 185 782 q 215 797 215 793 m 150 524 q 149 517 151 522 q 144 506 146 511 q 143 501 142 501 q 149 497 149 501 q 101 492 149 492 q 56 497 56 492 l 56 500 q 57 503 57 501 q 82 638 82 622 q 57 643 82 643 l 31 643 l 31 769 l 51 767 q 76 767 74 764 q 81 769 78 768 q 88 769 85 769 q 95 769 92 769 q 101 766 99 768 q 103 763 103 764 q 106 758 101 760 q 124 757 111 757 q 128 757 125 757 l 138 758 q 132 760 136 760 q 108 768 122 761 q 82 775 94 775 q 76 774 81 775 q 68 774 71 774 q 53 772 63 772 q 35 781 39 772 q 31 819 31 790 l 31 851 l 129 853 q 254 856 224 853 l 281 856 l 281 689 l 263 635 q 236 576 244 581 q 235 574 235 574 q 235 549 243 574 l 226 525 l 207 528 q 176 522 186 531 q 150 524 167 514 m 168 499 q 200 511 168 511 q 216 510 213 511 q 218 503 219 508 q 186 492 215 492 q 168 499 168 492 z "},"(":{"ha":332,"x_min":25,"x_max":300,"o":"m 156 103 q 154 94 153 97 q 163 97 156 89 q 163 107 167 104 q 156 103 158 110 m 40 271 l 43 267 q 43 274 46 271 q 41 274 42 275 q 40 271 40 272 m 50 328 q 57 331 50 317 q 58 339 60 338 q 53 338 56 342 q 50 328 50 333 m 115 438 q 114 440 115 440 q 111 438 111 440 q 114 436 111 436 q 115 438 115 436 m 113 488 q 113 482 113 482 l 114 492 l 114 493 q 113 488 113 492 m 83 618 q 81 619 83 619 q 78 618 78 619 q 81 615 78 615 q 83 618 83 615 m 228 667 l 228 669 q 225 675 226 672 l 222 676 l 226 667 l 228 667 m 207 697 q 214 697 210 694 q 210 700 211 699 q 207 697 204 700 m 79 690 l 81 685 q 82 697 85 690 q 79 690 81 693 m 75 715 q 81 714 78 713 q 78 719 82 717 q 75 718 76 719 q 75 715 74 717 m 88 858 q 89 854 88 854 l 90 863 l 90 864 q 88 858 88 863 m 31 810 q 276 972 65 972 l 297 972 q 299 891 297 946 q 300 808 300 836 l 281 808 q 250 797 261 808 q 239 749 239 786 q 236 445 238 490 q 228 399 235 400 q 206 407 219 396 q 192 413 192 418 q 171 407 192 407 q 153 406 158 407 q 140 401 147 404 q 125 394 132 397 q 118 389 119 390 q 121 383 128 389 q 124 379 115 379 q 139 386 135 379 q 182 396 147 396 q 213 393 203 396 l 239 388 l 239 90 l 217 90 q 146 75 182 90 q 129 72 138 72 q 65 88 93 72 q 39 114 44 99 q 28 414 29 143 q 28 444 28 424 q 27 560 28 489 q 26 656 26 632 l 28 743 q 42 738 31 743 l 47 736 q 39 746 47 736 q 25 776 25 760 q 31 810 25 779 m 26 115 q 31 121 26 133 q 31 100 39 100 q 26 115 26 100 m 88 -57 q 81 -50 93 -51 q 70 -48 71 -47 q 75 -54 69 -49 q 88 -57 83 -61 m 56 -44 q 60 -46 57 -46 q 63 -43 64 -44 q 60 -42 63 -42 q 56 -44 57 -43 m 186 71 q 204 74 193 74 q 217 73 208 74 q 231 72 225 72 q 239 10 238 72 q 247 -57 242 -50 q 275 -65 253 -62 l 297 -68 q 299 -149 297 -94 q 300 -232 300 -204 l 254 -229 q 46 -114 96 -221 q 26 -37 26 -75 l 28 -33 q 31 -34 29 -33 q 39 -37 33 -35 q 47 -39 44 -39 q 50 -37 49 -39 q 44 -29 50 -33 q 33 -25 39 -25 q 28 13 28 -25 l 28 29 q 43 72 28 51 l 74 63 q 122 54 103 54 l 133 54 q 160 56 156 57 q 164 44 164 54 l 165 44 l 167 49 q 186 71 171 67 z "},")":{"ha":328,"x_min":35,"x_max":304,"o":"m 139 139 l 138 147 q 132 146 136 147 q 123 142 128 144 q 115 140 118 140 l 119 139 q 126 135 124 136 q 132 133 129 133 q 137 133 135 132 q 139 139 139 135 m 136 151 q 138 151 136 151 q 139 154 139 151 q 136 157 139 157 q 133 154 133 157 q 136 151 133 151 m 264 289 l 264 292 q 261 297 263 294 l 258 299 q 261 290 253 299 q 264 289 263 289 m 247 324 l 249 317 l 250 332 q 247 324 249 329 m 242 357 q 243 358 243 357 q 240 371 246 363 q 238 367 239 371 q 242 357 238 358 m 232 399 q 231 401 232 401 q 228 399 228 401 q 231 397 228 397 q 232 399 232 397 m 193 439 q 194 442 194 439 q 193 444 194 444 q 190 442 190 444 q 193 439 190 439 m 185 467 q 179 475 185 474 l 176 472 q 185 467 179 469 m 143 479 q 138 479 143 486 l 136 476 q 138 474 133 472 q 143 479 143 476 m 171 493 q 169 496 171 496 q 167 493 167 496 q 169 492 167 492 q 171 493 171 492 m 181 550 q 182 546 181 546 l 183 554 l 183 556 q 181 550 181 554 m 188 561 q 189 561 188 561 q 190 564 190 561 q 188 567 190 567 q 185 564 185 567 q 188 561 185 561 m 214 639 q 211 642 214 642 q 208 639 208 642 q 211 638 208 638 q 214 639 214 638 m 211 646 q 213 646 211 646 q 214 649 214 646 q 211 651 214 651 q 208 649 208 651 q 211 646 208 646 m 210 672 l 211 665 l 213 681 q 210 672 211 678 m 218 749 q 214 750 218 750 q 208 744 208 750 q 217 746 208 738 l 218 749 m 165 751 q 175 751 171 749 q 168 754 174 753 q 165 751 167 753 m 247 767 q 239 763 246 771 q 240 761 238 760 q 247 767 247 764 m 232 771 q 231 774 232 774 q 228 771 228 774 q 231 769 228 769 q 232 771 232 769 m 200 835 q 203 832 200 829 q 203 838 206 835 q 201 838 201 839 q 200 835 200 836 m 204 865 q 206 861 204 861 l 207 869 l 207 871 q 204 865 204 869 m 206 899 l 206 892 q 207 907 210 899 q 206 899 206 903 m 35 808 l 35 967 l 69 967 q 135 960 93 967 q 186 944 158 954 q 214 929 214 933 q 228 919 214 926 q 262 889 243 913 q 289 842 281 865 q 297 811 297 819 q 288 800 297 804 q 265 788 279 797 q 251 774 251 778 q 263 777 251 771 q 289 790 275 783 l 301 797 q 303 494 303 797 l 301 192 l 283 190 q 261 175 265 189 q 257 153 254 154 q 265 165 260 151 q 288 185 274 186 q 299 180 297 183 q 303 161 301 176 l 304 138 l 286 138 q 240 126 254 136 q 206 113 231 119 q 165 106 181 106 q 146 113 153 106 q 139 117 142 117 q 128 118 136 118 q 113 119 121 118 l 92 126 l 92 429 l 117 429 q 154 421 144 429 q 175 411 167 411 q 176 414 185 411 q 176 421 171 417 q 174 426 181 424 q 168 428 171 428 q 150 434 160 429 q 124 439 140 439 q 111 440 117 439 q 103 442 106 440 q 103 444 101 443 q 101 447 104 447 l 99 446 l 97 446 q 92 614 92 446 l 92 650 q 82 796 92 782 q 54 806 78 801 l 35 808 m 129 -81 l 131 -87 l 132 -72 q 129 -81 131 -75 m 194 -29 q 189 -29 194 -22 l 188 -32 q 189 -35 185 -36 q 194 -29 194 -32 m 224 -17 l 232 -10 q 210 -19 228 -7 q 207 -24 206 -22 q 224 -17 214 -26 m 272 94 q 268 113 268 107 q 290 124 268 124 l 292 124 q 303 117 301 124 q 304 74 304 111 q 272 17 304 35 q 239 -8 242 0 q 265 3 244 -8 q 293 22 285 15 l 304 32 l 303 -22 q 289 -103 301 -72 q 83 -228 244 -219 l 35 -231 l 35 -150 q 36 -79 35 -90 q 46 -67 38 -68 q 65 -64 57 -64 q 83 -57 76 -64 q 92 31 92 -49 l 92 110 q 124 96 107 107 q 167 89 138 89 q 228 97 206 89 l 249 106 q 281 75 258 94 l 272 94 z "},"+":{"ha":547,"x_min":31,"x_max":521,"o":"m 240 281 q 226 288 231 288 q 229 283 221 288 q 238 279 232 282 q 247 275 246 275 q 240 281 247 275 m 319 288 q 322 290 322 288 q 319 293 322 293 q 318 290 318 293 q 319 288 318 288 m 225 293 q 226 297 226 293 q 222 306 225 301 q 218 311 219 311 q 225 293 213 311 m 165 344 q 161 349 165 349 q 146 344 147 349 q 150 340 144 340 q 165 344 156 340 m 111 349 q 78 354 78 363 q 118 342 78 351 q 124 342 124 340 q 111 349 124 343 m 71 358 q 68 367 76 358 l 65 368 l 69 358 l 71 358 m 389 435 l 392 431 q 392 438 394 435 q 390 438 390 439 q 389 435 389 436 m 279 485 q 279 493 282 488 q 276 488 276 493 q 279 485 278 486 m 319 511 q 328 514 319 511 q 336 521 336 517 q 306 515 336 525 q 289 507 288 510 q 293 506 289 507 l 294 506 q 319 511 303 506 m 181 499 l 181 613 l 369 613 l 371 546 q 374 489 372 499 q 381 478 375 479 q 388 475 383 478 q 395 470 393 472 q 400 471 397 468 q 463 476 406 476 l 521 476 l 521 317 l 444 317 q 369 310 369 317 q 354 303 369 303 q 332 297 343 303 q 335 294 326 294 q 346 294 339 294 l 367 296 q 368 272 367 289 q 369 249 369 256 l 339 251 l 324 251 q 293 246 304 251 q 282 242 288 240 q 274 245 276 243 q 269 253 272 247 q 264 263 265 260 q 260 267 261 267 l 264 256 q 268 238 272 240 q 265 231 264 235 q 271 223 267 226 q 276 221 275 219 q 281 215 279 219 q 276 211 281 211 q 271 204 271 211 q 275 192 271 194 q 279 186 279 189 q 231 179 279 179 l 181 179 l 181 317 l 31 317 l 31 347 q 39 378 31 378 q 39 381 53 378 q 31 429 31 382 l 31 476 l 101 476 q 178 483 172 476 q 192 485 183 489 q 197 483 196 482 q 197 489 199 485 q 203 496 194 496 q 225 488 221 496 q 231 483 224 483 q 246 482 236 482 l 261 483 q 254 485 260 483 q 231 494 249 486 q 201 501 213 501 l 196 501 l 181 499 m 290 213 q 286 225 286 221 q 307 235 286 235 l 332 235 l 367 233 l 367 219 q 363 197 367 203 q 365 192 363 190 q 369 192 368 193 q 368 189 369 192 q 332 181 365 182 l 321 181 q 285 200 285 181 q 292 203 285 208 q 294 204 297 199 q 290 213 293 207 z "},",":{"ha":301,"x_min":26,"x_max":275,"o":"m 144 -236 q 139 -228 144 -232 q 135 -231 135 -225 q 140 -237 135 -235 q 144 -236 144 -239 m 118 -218 q 122 -218 121 -219 q 115 -212 124 -215 q 113 -217 107 -212 q 118 -218 115 -217 m 104 -212 q 106 -212 104 -212 q 107 -210 107 -212 q 104 -207 107 -207 q 101 -210 101 -207 q 104 -212 101 -212 m 203 -203 q 204 -203 203 -203 q 206 -200 206 -203 q 203 -197 206 -197 q 200 -200 200 -197 q 203 -203 200 -203 m 217 -196 q 222 -196 219 -199 q 219 -193 225 -193 q 217 -196 214 -193 m 101 -196 q 100 -193 101 -193 q 97 -196 97 -193 q 100 -197 97 -197 q 101 -196 101 -197 m 94 -189 q 96 -189 94 -189 q 97 -186 97 -189 q 94 -183 97 -183 q 92 -186 92 -183 q 94 -189 92 -189 m 94 4 q 63 6 88 17 q 65 -7 51 1 q 94 -12 75 -12 l 108 -12 q 122 -12 114 -12 l 132 -11 q 126 -8 131 -10 q 121 -7 122 -7 q 103 -6 104 -1 q 92 -10 100 -10 q 71 -3 71 -10 q 83 0 71 0 q 94 4 94 1 m 206 26 q 176 19 206 29 q 167 10 154 13 l 168 10 q 191 16 176 10 q 206 26 206 22 m 144 -247 q 142 -253 144 -249 q 138 -260 140 -258 q 139 -264 136 -262 q 144 -271 144 -264 q 100 -278 144 -278 l 82 -278 q 56 -261 56 -278 q 67 -197 56 -250 q 76 -132 76 -146 q 50 -122 76 -122 l 26 -122 l 26 0 l 39 -3 l 47 -3 l 46 -1 q 26 50 26 6 l 26 85 q 151 83 68 83 q 274 82 233 83 l 275 3 l 275 -33 q 269 -93 275 -71 q 239 -189 264 -115 l 221 -243 l 201 -242 q 169 -247 183 -239 q 144 -247 156 -256 m 178 -257 q 203 -256 189 -256 q 215 -261 215 -256 q 213 -271 215 -262 q 186 -278 211 -278 q 163 -269 163 -278 q 178 -257 163 -258 z "},"-":{"ha":478,"x_min":26,"x_max":454,"o":"m 185 386 q 186 389 186 386 q 185 392 186 392 q 182 389 182 392 q 185 386 182 386 m 197 344 q 186 375 186 363 q 182 379 186 381 q 185 360 178 376 l 190 344 l 107 344 q 36 349 36 344 l 38 349 l 53 353 l 39 353 l 26 354 l 26 428 q 29 506 26 503 q 113 508 32 508 q 178 507 174 508 q 181 475 183 504 q 182 442 176 447 q 188 417 185 439 l 189 411 q 188 426 189 413 q 186 463 186 440 q 189 500 186 486 q 257 507 192 507 l 322 507 l 453 507 l 454 425 l 454 344 l 197 344 z "},".":{"ha":285,"x_min":26,"x_max":261,"o":"m 65 39 q 69 38 67 38 q 69 43 72 40 q 65 42 67 43 q 65 39 64 40 m 26 -128 l 26 81 l 261 81 l 261 -128 l 246 -128 q 214 -119 231 -128 q 181 -114 199 -114 q 146 -119 161 -114 q 78 -128 124 -128 l 26 -128 m 164 -126 q 190 -126 178 -129 q 176 -124 183 -125 l 161 -125 q 164 -126 161 -126 z "},"/":{"ha":467,"x_min":35,"x_max":435,"o":"m 228 226 q 222 231 228 231 q 226 221 219 229 q 228 226 228 221 m 207 242 q 193 250 196 250 q 199 243 185 250 q 204 240 201 242 q 213 236 213 236 q 207 242 214 236 m 289 257 q 286 258 289 258 q 285 257 285 258 q 286 254 285 254 q 289 257 289 254 m 185 258 q 185 271 193 258 l 182 274 q 181 267 181 274 q 185 258 181 258 m 279 475 q 286 485 294 485 q 244 469 260 485 q 247 465 240 465 q 279 475 261 467 m 250 839 q 343 847 253 847 q 435 840 435 847 q 426 833 435 833 q 425 829 417 833 q 424 792 432 825 q 414 738 417 764 q 363 499 410 701 q 347 432 356 468 q 334 376 339 396 q 329 353 329 356 q 304 265 315 274 q 303 258 294 258 q 306 256 306 258 q 306 251 307 254 q 305 243 306 247 q 303 235 304 239 q 301 229 301 231 q 279 217 299 217 q 258 211 261 217 q 244 208 256 206 q 228 203 233 210 q 229 190 222 197 q 239 188 233 186 q 241 187 240 188 q 242 182 242 186 q 240 177 242 178 q 237 176 239 176 q 233 175 235 176 q 232 168 232 174 q 268 129 232 150 q 274 118 274 124 q 258 42 274 107 q 232 -81 235 -68 l 222 -122 l 128 -122 q 35 -115 35 -122 q 100 182 35 -87 q 135 329 108 214 q 147 384 140 356 q 156 428 153 413 l 160 442 q 225 450 225 447 q 214 451 222 451 q 167 469 196 451 q 183 547 174 504 q 250 839 249 835 m 165 458 q 183 457 174 467 q 174 447 188 449 q 163 451 165 447 q 165 458 160 454 m 257 199 q 293 197 293 206 q 288 165 293 193 q 281 144 283 149 q 272 140 278 139 q 254 150 263 142 q 246 165 246 158 q 251 169 246 169 q 251 178 256 169 q 257 199 243 194 z "},":":{"ha":285,"x_min":26,"x_max":261,"o":"m 29 488 q 28 589 28 521 q 26 692 28 657 l 261 692 l 261 589 l 260 488 l 29 488 m 26 19 l 26 226 l 144 225 l 261 225 l 261 19 l 26 19 z "},";":{"ha":301,"x_min":26,"x_max":275,"o":"m 229 504 l 232 500 q 232 507 235 504 q 230 507 231 508 q 229 504 229 506 m 210 544 q 208 546 210 546 q 206 544 206 546 q 208 542 206 542 q 210 544 210 542 m 106 594 q 114 594 111 592 q 108 597 113 597 q 106 594 107 596 m 29 488 q 28 589 28 521 q 26 692 28 657 l 261 692 l 261 590 l 260 488 l 164 486 l 117 486 q 69 490 69 486 q 64 490 69 499 q 44 486 60 483 l 29 488 m 144 -26 q 144 -17 150 -24 q 139 -22 140 -17 q 144 -26 139 -29 m 36 201 q 39 210 42 207 q 35 207 38 211 q 33 204 33 206 q 33 199 32 199 q 36 201 33 199 m 26 19 q 28 123 28 54 q 29 226 28 192 l 138 226 q 249 218 249 226 q 251 218 249 201 q 264 226 254 226 l 275 226 l 275 144 q 273 67 275 83 q 258 13 271 50 l 242 -37 l 217 -35 l 204 -35 q 128 -50 150 -35 q 93 -51 118 -57 q 72 -45 76 -49 q 71 -35 68 -42 q 76 -3 74 -22 l 79 19 l 26 19 m 150 -61 q 190 -49 165 -49 q 194 -49 192 -49 q 199 -50 197 -50 q 222 -51 204 -51 l 238 -51 l 225 -90 l 211 -129 l 131 -131 l 92 -131 q 53 -126 53 -131 q 54 -120 53 -125 q 57 -108 56 -115 q 60 -94 58 -100 l 64 -68 l 104 -68 q 150 -61 140 -68 z "},"=":{"ha":540,"x_min":26,"x_max":517,"o":"m 389 421 q 386 424 389 424 q 385 421 385 424 q 386 419 385 419 q 389 421 389 419 m 396 443 q 399 447 397 443 q 401 453 400 450 q 399 457 401 457 q 393 450 393 457 q 396 443 393 443 m 275 456 q 275 464 278 458 q 272 458 272 464 q 275 456 274 457 m 319 485 q 329 493 329 490 l 326 493 q 299 488 317 493 q 282 478 282 482 q 292 475 282 475 q 319 485 304 475 m 33 556 q 276 560 36 560 l 517 560 l 517 544 q 499 524 517 531 q 464 513 489 521 l 447 510 l 463 508 q 472 508 472 508 q 469 504 472 507 q 469 499 463 499 q 483 506 479 499 q 503 513 488 513 l 517 513 l 517 396 l 26 396 l 26 443 l 26 453 q 38 490 26 490 q 67 482 39 490 q 115 475 88 475 q 150 469 140 475 q 171 461 161 461 q 195 457 181 461 q 222 453 210 453 l 231 453 q 253 457 253 454 q 250 458 253 457 q 238 463 247 460 q 225 469 229 467 q 186 471 210 478 q 157 472 161 464 q 119 479 151 479 q 71 488 85 479 q 47 494 60 494 q 26 513 26 494 q 27 519 26 514 q 28 526 28 524 q 33 556 31 550 m 211 457 q 193 463 193 457 q 207 467 193 467 q 224 461 224 467 q 211 457 224 457 m 501 217 q 508 222 507 217 q 504 226 507 225 q 497 221 497 226 q 501 217 497 217 m 267 231 q 261 238 267 233 q 257 236 257 239 q 261 228 257 231 q 267 231 267 225 m 250 244 l 240 253 l 231 258 l 240 250 l 250 244 m 328 267 q 325 268 328 268 q 324 267 324 268 q 325 264 324 264 q 328 267 328 264 m 339 269 q 343 268 340 268 q 342 274 344 271 q 339 272 340 274 q 339 269 338 271 m 379 238 q 381 240 381 239 q 374 263 381 247 q 364 278 367 278 q 363 271 357 278 q 365 267 364 268 q 371 253 367 267 l 379 238 m 222 268 q 223 268 222 268 q 224 275 224 268 q 219 282 224 282 q 217 278 217 282 q 219 272 218 275 q 222 268 221 268 m 157 317 q 154 321 161 321 q 139 315 146 319 q 138 311 133 311 l 143 313 q 157 317 156 315 m 104 322 q 85 329 90 328 q 78 326 79 331 q 85 321 78 321 q 104 318 90 321 l 118 315 l 104 322 m 28 338 q 42 344 31 343 q 57 339 54 344 q 64 335 58 335 q 67 339 67 335 q 289 343 67 343 l 517 343 l 517 274 q 511 203 517 203 l 504 203 q 489 196 500 203 q 450 193 475 188 q 385 224 392 206 q 381 225 381 236 q 374 218 381 218 q 358 220 369 218 q 339 224 346 222 q 328 224 335 224 q 318 225 321 225 q 292 219 301 225 q 276 217 278 213 q 271 221 275 221 q 268 216 268 221 q 264 210 268 211 q 269 194 251 204 q 275 193 274 193 q 279 186 285 193 q 271 182 276 183 q 144 179 260 179 l 29 182 l 28 257 l 28 325 l 28 338 m 301 208 q 308 209 303 208 q 317 210 313 210 q 369 204 364 210 q 368 190 371 203 q 361 181 367 182 q 328 179 356 179 q 288 186 292 179 q 301 208 281 207 m 382 186 q 399 188 383 193 q 396 179 425 179 q 384 181 388 179 q 382 186 381 183 z "},"?":{"ha":560,"x_min":35,"x_max":529,"o":"m 308 240 q 310 233 308 235 l 313 242 q 311 246 311 244 q 308 240 310 246 m 315 285 q 314 274 313 276 q 319 279 315 271 q 319 290 324 286 q 317 290 318 292 q 315 285 317 289 m 194 294 q 196 289 194 289 l 199 297 l 197 300 q 194 294 194 299 m 256 328 q 222 321 256 333 q 213 311 199 314 l 214 311 q 239 318 222 311 q 256 328 256 325 m 375 383 l 379 389 l 379 396 q 375 390 378 394 q 375 383 372 386 m 392 413 q 390 414 392 414 q 388 413 388 414 q 390 410 388 410 q 392 413 392 410 m 374 467 q 375 460 374 461 l 378 468 q 376 472 376 471 q 374 467 375 472 m 350 558 q 347 560 350 560 q 344 558 344 560 q 347 556 344 556 q 350 558 350 556 m 510 576 q 511 572 510 572 l 513 581 l 513 582 q 510 576 510 581 m 344 583 q 346 581 344 581 q 349 588 350 583 q 346 588 347 589 q 344 583 344 586 m 350 606 q 347 607 350 607 q 344 606 344 607 q 347 603 344 603 q 350 606 350 603 m 485 625 l 489 619 q 486 628 492 622 q 483 631 483 631 q 485 625 483 631 m 460 644 q 463 647 463 644 q 460 650 463 650 q 458 647 458 650 q 460 644 458 644 m 479 650 q 482 654 482 653 q 471 649 481 658 q 471 644 467 644 q 479 650 476 644 m 344 668 q 346 665 344 665 q 349 672 350 668 q 346 672 347 674 q 344 668 344 669 m 383 675 q 388 674 385 674 q 390 676 392 675 l 388 678 q 383 675 385 676 m 367 715 q 368 718 368 715 q 367 721 368 721 q 364 718 364 721 q 367 715 364 715 m 319 682 q 260 722 285 717 l 258 722 q 254 724 253 724 q 258 719 254 722 q 265 714 263 715 q 300 692 275 707 l 319 682 m 171 751 q 168 753 171 753 q 167 751 167 753 q 168 749 167 749 q 171 751 171 749 m 354 750 q 354 746 354 746 l 357 756 l 357 757 q 354 750 356 753 m 218 749 q 205 758 217 749 q 182 778 193 768 l 171 786 q 165 785 171 782 l 171 775 q 178 757 181 763 q 179 754 178 754 l 246 728 q 235 740 246 731 q 218 749 224 749 m 350 790 l 351 785 q 353 797 356 790 q 350 790 351 793 m 160 806 q 154 814 163 806 q 160 806 150 814 m 350 817 l 351 810 l 353 825 q 350 817 351 822 m 229 851 q 281 854 254 854 q 340 849 335 854 q 365 844 344 844 q 469 796 418 842 q 506 746 490 778 q 521 693 521 714 q 525 674 521 674 q 529 624 529 674 q 521 481 529 517 q 491 407 513 447 q 460 367 469 367 q 453 363 453 367 q 439 360 453 358 l 433 360 q 410 354 425 360 q 388 349 394 349 q 378 343 378 349 q 383 339 378 339 q 381 334 388 339 q 383 329 374 329 q 403 339 390 329 q 431 349 415 349 q 439 346 439 349 q 396 297 439 340 q 332 219 346 246 q 317 138 318 192 l 317 128 l 104 128 l 104 139 q 111 147 104 151 q 113 146 113 146 q 110 151 114 146 q 106 176 106 158 q 118 260 106 217 l 126 285 l 157 288 l 176 290 q 152 299 167 292 q 138 310 138 306 q 231 422 138 329 q 304 506 292 482 q 317 590 317 531 q 311 654 317 640 q 285 668 306 668 q 258 657 261 668 q 251 574 254 646 l 249 488 l 36 488 l 35 553 l 35 586 q 36 651 35 639 q 56 696 39 686 q 83 710 74 708 q 93 717 92 711 q 101 725 94 722 q 114 732 114 731 q 113 733 114 733 q 69 711 101 733 q 44 700 44 694 q 63 754 44 718 q 91 790 68 767 q 119 814 114 814 q 124 810 124 814 q 146 796 124 804 l 151 796 q 144 803 151 800 q 138 817 138 806 q 168 838 138 828 q 229 851 193 846 m 99 76 q 136 81 103 81 q 153 80 146 81 q 164 78 160 79 q 172 75 168 78 q 176 72 175 72 q 181 66 178 71 q 186 58 185 61 q 184 67 186 61 q 182 74 182 72 q 229 81 182 81 l 236 81 q 297 72 292 81 q 303 72 303 61 q 317 81 303 81 q 328 77 326 81 q 331 58 331 74 q 328 40 331 42 q 322 43 328 40 q 316 48 321 44 q 308 53 311 51 q 303 54 304 56 q 264 57 300 51 q 235 60 236 60 q 215 54 222 60 q 197 51 203 47 q 189 50 189 57 q 183 43 189 43 q 183 36 176 43 q 189 17 189 31 q 207 -13 189 4 q 235 -31 225 -31 q 239 -29 238 -31 q 236 -20 242 -26 q 224 -14 231 -14 q 210 -8 215 -14 q 206 11 200 1 q 208 13 206 14 q 211 25 211 18 l 211 40 l 286 40 l 286 26 q 282 3 286 19 q 282 0 281 0 q 293 8 285 0 q 319 22 307 24 q 329 13 328 21 q 331 -35 331 6 q 324 -87 331 -87 q 322 -87 322 -87 q 321 -86 322 -86 q 307 -78 310 -82 q 296 -71 303 -71 q 272 -54 292 -71 q 250 -37 256 -37 l 249 -39 q 258 -51 249 -42 q 301 -81 269 -64 q 326 -95 322 -90 q 331 -111 331 -100 l 331 -128 l 96 -128 l 96 -26 q 99 76 96 74 z "},"@":{"ha":772,"x_min":31,"x_max":743,"o":"m 289 200 l 281 203 l 278 203 q 257 196 261 203 q 258 192 251 190 l 269 194 l 289 200 m 463 221 q 464 224 464 221 q 463 226 464 226 q 460 224 460 226 q 463 221 460 221 m 207 210 q 168 226 171 226 q 174 219 167 226 q 190 206 181 213 q 201 199 199 199 q 207 198 203 199 q 217 196 211 197 q 226 194 222 194 l 236 196 l 207 210 m 146 236 q 104 243 132 240 l 81 244 l 101 238 q 144 231 119 231 l 165 232 l 146 236 m 481 244 q 482 244 481 244 q 483 247 483 244 q 481 250 483 250 q 478 247 478 250 q 481 244 478 244 m 497 261 q 492 261 497 268 q 490 258 492 260 q 492 256 488 254 q 497 261 497 258 m 379 232 q 376 292 378 281 q 365 304 374 304 q 353 303 358 304 q 343 292 344 301 q 342 231 342 283 q 344 169 342 183 q 356 154 346 154 q 381 161 363 154 l 379 232 m 515 329 q 519 342 521 340 l 518 342 q 508 323 514 342 q 503 290 503 304 l 503 271 l 506 294 q 515 329 508 314 m 390 339 q 390 333 390 333 l 392 343 l 392 344 q 390 339 390 343 m 431 361 q 440 365 431 361 q 450 372 450 369 q 446 375 450 375 q 415 367 436 375 q 394 354 394 358 q 401 353 394 353 q 431 361 411 353 m 525 357 l 539 382 q 528 372 535 382 q 522 357 521 361 q 525 357 525 349 m 563 408 q 557 407 563 414 l 556 404 q 557 401 553 400 q 563 408 563 404 m 619 439 q 610 446 610 451 q 618 438 610 443 q 619 439 625 432 m 725 569 q 728 572 728 569 q 725 575 728 575 q 724 572 724 575 q 725 569 724 569 m 196 579 q 199 576 196 574 q 199 582 201 579 q 197 582 197 583 q 196 579 196 581 m 719 589 q 721 582 719 583 l 724 590 q 722 594 722 593 q 719 589 721 594 m 200 599 q 203 594 200 594 q 206 597 206 594 q 204 601 206 600 q 201 601 203 603 q 200 599 200 600 m 706 626 q 706 621 706 621 l 707 631 l 707 632 q 706 626 706 631 m 686 668 q 671 686 672 686 l 674 678 q 678 672 676 675 q 693 654 690 656 l 686 668 m 664 693 q 668 692 665 692 q 667 697 669 694 q 664 696 665 697 q 664 693 663 694 m 629 704 q 626 706 629 706 q 624 704 624 706 q 626 701 624 701 q 629 704 629 701 m 486 693 q 399 704 464 703 l 372 704 q 269 685 307 704 q 213 628 232 665 q 206 608 206 613 l 214 619 q 276 672 231 653 q 374 690 321 690 q 504 644 463 690 q 531 599 525 621 q 539 518 538 578 l 542 444 l 557 443 q 569 440 567 442 q 569 432 571 439 q 569 429 569 429 l 575 438 q 588 451 582 451 q 586 460 592 451 q 578 535 579 468 q 573 597 575 583 q 560 632 571 611 q 533 667 547 656 q 486 693 518 679 m 544 724 q 550 724 544 719 q 553 732 556 729 q 544 724 547 735 m 561 753 q 563 756 563 753 q 561 758 563 758 q 558 756 558 758 q 561 753 558 753 m 563 769 q 561 772 563 772 q 558 769 558 772 q 561 768 558 768 q 563 769 563 768 m 339 786 q 368 796 367 794 q 368 800 372 800 l 351 793 l 339 786 m 547 800 q 553 795 550 790 q 550 806 556 800 q 547 808 547 808 q 547 800 546 807 m 350 840 q 351 847 347 847 q 360 842 354 847 q 364 831 368 833 q 360 832 363 831 q 364 824 356 833 q 375 806 375 813 q 378 801 375 803 q 388 798 381 800 q 400 793 394 796 q 436 771 415 782 q 471 751 457 760 q 518 721 511 725 q 540 704 540 706 q 544 707 544 700 q 533 718 544 715 q 503 740 522 721 q 465 767 479 761 q 433 783 446 775 q 412 798 425 790 q 389 813 399 806 q 371 833 379 821 l 360 849 l 418 846 q 501 838 463 844 q 543 825 540 831 q 551 822 546 819 l 553 822 q 594 807 561 822 q 659 760 624 792 q 694 718 694 729 q 699 711 694 711 q 714 686 703 711 q 731 635 725 661 q 740 479 740 599 q 736 413 740 425 q 721 403 733 400 q 694 400 708 406 q 661 407 682 394 l 646 414 l 647 413 q 636 406 643 406 q 598 398 624 406 q 572 388 572 390 q 575 386 574 386 q 578 381 585 386 q 579 376 571 376 q 600 385 589 376 q 640 392 611 392 q 678 390 654 392 q 704 388 701 388 l 707 389 q 711 398 707 394 q 722 396 715 401 q 726 383 728 393 q 718 372 724 372 q 714 365 714 372 q 695 342 714 358 q 658 318 676 326 q 588 304 642 310 l 539 300 l 539 214 q 518 92 539 92 q 492 135 506 92 q 484 152 488 149 q 468 157 481 156 q 450 156 450 160 q 433 146 450 150 q 418 139 418 142 l 419 139 q 447 144 429 139 q 478 149 475 151 q 488 126 481 146 q 496 101 496 107 q 485 100 494 100 q 460 103 476 100 q 431 106 435 106 q 411 101 419 106 q 401 97 406 97 q 369 122 394 97 q 342 156 342 150 q 329 165 342 160 q 314 182 317 171 q 308 196 311 193 l 306 199 q 306 192 304 199 q 313 176 308 185 q 324 161 318 167 q 338 142 338 144 q 356 128 338 138 q 383 96 383 114 q 379 89 383 92 q 379 82 372 85 q 385 65 385 79 q 397 33 385 51 l 410 18 l 356 19 q 288 29 311 21 q 240 57 264 38 q 214 92 226 69 q 200 129 201 115 q 197 133 199 133 q 203 101 196 129 q 265 27 217 54 q 382 0 313 0 q 394 1 386 0 q 406 1 401 1 q 419 2 411 1 q 431 3 428 3 q 457 -10 446 3 q 504 -40 474 -26 q 563 -69 550 -65 q 575 -74 575 -74 q 569 -68 575 -72 q 532 -46 561 -61 q 460 3 460 -11 q 479 14 460 8 q 538 47 524 29 q 583 54 544 54 q 629 61 624 54 q 681 69 632 68 l 729 72 l 726 58 q 690 -16 721 29 q 646 -62 660 -61 q 635 -71 640 -62 q 578 -106 624 -86 q 488 -132 532 -125 q 385 -137 443 -137 q 285 -132 324 -137 q 43 74 82 -94 q 38 110 38 101 q 49 142 38 128 q 58 196 57 150 q 65 246 61 243 q 57 254 71 249 q 46 257 46 258 q 49 253 46 256 q 53 219 53 249 q 43 144 53 154 q 36 140 39 140 q 31 167 31 140 l 31 203 q 35 261 31 261 l 36 261 q 39 263 40 258 q 38 267 39 264 q 32 325 35 275 l 31 374 l 50 371 q 74 364 71 368 q 99 364 76 358 q 143 368 117 368 q 192 344 192 368 q 196 325 192 331 q 200 328 200 319 q 211 347 200 339 q 238 354 222 354 q 268 346 253 354 q 289 340 283 339 q 307 336 297 343 q 349 331 314 331 q 376 335 375 331 q 376 338 378 336 q 369 339 374 339 q 342 349 358 339 q 301 353 322 358 q 275 356 281 347 q 253 363 269 363 q 233 361 246 363 q 217 360 221 360 q 210 363 210 360 q 228 389 210 369 q 260 417 246 408 q 357 443 303 443 l 379 443 l 379 497 q 374 550 379 550 l 369 550 q 360 543 363 549 q 357 515 358 538 l 356 481 q 274 479 328 481 q 193 478 219 478 l 192 422 q 186 369 190 369 l 183 369 q 136 378 161 378 q 119 376 124 378 q 94 372 107 372 q 93 383 85 372 q 99 421 100 394 q 98 430 99 425 q 97 436 97 435 q 104 446 97 446 q 126 442 110 446 q 143 428 143 438 q 138 403 143 419 l 133 393 q 140 401 136 396 q 145 408 143 406 q 149 417 147 411 q 151 429 151 422 q 135 447 151 443 q 107 451 121 451 q 71 494 86 451 q 68 529 63 521 q 88 604 88 569 q 81 653 88 636 l 74 671 q 93 675 74 672 q 132 690 106 676 q 168 704 158 703 q 192 709 182 707 q 208 715 201 711 q 219 721 215 718 q 233 729 224 724 q 247 739 242 735 q 276 753 258 747 q 300 767 286 756 q 314 781 314 778 q 313 782 314 782 q 275 763 307 782 q 233 742 243 744 q 219 733 222 739 q 198 722 217 729 q 169 715 179 715 q 157 710 160 715 q 129 696 156 704 q 89 688 103 688 q 74 694 78 688 q 86 728 68 700 q 235 828 133 797 q 318 842 283 842 q 342 838 333 842 q 351 835 351 832 l 350 840 m 63 454 q 48 446 61 454 q 33 438 35 438 q 32 485 32 438 l 32 522 q 53 665 36 639 l 56 668 q 68 604 68 668 q 60 556 68 565 q 47 517 47 539 q 54 482 47 503 l 63 454 m 49 438 q 69 442 64 442 q 82 422 81 442 q 81 392 85 407 q 56 382 78 381 l 33 383 q 32 408 33 392 q 31 432 31 424 l 49 438 m 325 335 q 315 339 317 335 q 318 342 315 340 l 325 343 q 333 340 332 343 q 331 336 336 338 q 325 335 328 335 m 629 110 q 618 117 621 107 q 615 110 615 118 q 617 97 615 99 q 626 100 618 96 q 638 108 639 106 q 629 110 638 111 m 581 206 q 595 215 583 213 q 664 217 607 217 l 743 217 l 740 157 q 735 93 738 99 q 690 89 733 89 q 633 85 646 89 q 614 85 617 79 q 610 85 610 93 q 585 71 610 71 q 564 81 564 71 q 568 100 564 85 q 578 160 578 126 q 581 206 578 194 m 414 86 q 444 89 431 89 q 472 86 461 89 q 482 71 482 85 q 473 46 482 58 q 451 29 464 33 q 426 36 426 22 q 422 36 426 47 q 403 42 417 21 q 399 50 399 47 q 413 51 399 63 l 414 50 q 411 57 414 51 q 414 86 394 82 z "},"A":{"ha":646,"x_min":32,"x_max":613,"o":"m 183 808 l 189 838 l 265 838 q 344 833 342 838 l 344 831 q 346 825 346 828 q 341 784 346 810 q 332 754 336 758 q 258 697 322 744 q 249 678 249 690 q 233 649 249 667 q 207 631 217 631 q 193 623 201 631 q 176 604 185 615 q 167 592 168 593 q 165 580 163 586 q 161 565 168 574 q 149 556 154 556 q 145 563 146 556 q 146 577 144 569 q 150 586 147 585 q 151 594 151 586 q 165 685 151 603 q 178 768 178 767 q 183 808 178 775 m 553 -94 q 554 -92 554 -94 q 553 -89 554 -89 q 550 -92 550 -89 q 553 -94 550 -94 m 544 -71 q 532 -60 540 -61 q 530 -61 529 -58 q 536 -71 531 -64 q 550 -81 550 -87 q 544 -71 549 -78 m 508 11 q 499 29 504 14 l 494 39 q 496 21 493 38 q 508 -19 500 -19 q 512 -6 513 -19 q 508 11 511 7 m 486 47 l 482 57 l 481 57 l 481 56 q 483 50 482 53 l 486 47 m 481 81 q 485 104 489 93 q 482 111 482 110 l 481 101 q 478 78 481 89 q 478 76 478 76 q 481 81 475 71 m 482 146 q 488 169 488 157 q 483 163 486 175 q 481 150 483 160 l 478 138 q 482 146 478 139 m 479 186 q 481 182 479 182 l 482 190 l 482 192 q 479 186 479 190 m 154 190 q 151 193 154 193 q 150 190 150 193 q 151 189 150 189 q 154 190 154 189 m 246 221 q 249 224 249 221 q 246 226 249 226 q 244 224 244 226 q 246 221 244 221 m 140 221 q 142 217 140 217 q 143 225 144 219 q 140 221 142 224 m 478 214 q 469 238 475 232 q 465 233 465 242 l 472 210 l 481 196 l 478 214 m 136 242 q 136 238 136 238 l 139 247 l 139 249 q 136 242 138 244 m 474 269 q 467 272 475 272 q 455 271 457 272 q 454 261 453 269 q 463 246 457 249 q 465 247 465 244 q 465 250 465 249 q 474 269 464 268 m 435 274 q 429 282 439 274 q 435 274 425 282 m 208 282 q 210 282 208 282 q 211 285 211 282 q 208 288 211 288 q 206 285 206 288 q 208 282 206 282 m 215 299 q 214 301 215 301 q 211 299 211 301 q 214 297 211 297 q 215 299 215 297 m 476 343 q 479 346 479 343 q 476 349 479 349 q 475 346 475 349 q 476 343 475 343 m 378 339 q 361 351 375 344 q 346 354 347 357 q 349 349 344 353 q 363 342 354 344 q 388 319 379 335 q 403 306 396 306 q 400 314 413 306 q 390 331 390 321 q 389 335 390 335 q 385 336 388 336 q 381 336 383 336 q 378 339 379 336 m 279 406 q 274 411 282 408 q 268 413 268 414 q 271 410 268 413 q 279 406 278 403 m 239 425 q 229 432 229 438 q 238 424 229 429 q 239 425 244 418 m 343 331 q 321 439 325 439 q 319 436 319 438 q 315 405 319 435 q 305 344 310 375 q 295 283 300 313 q 289 251 290 254 q 288 245 289 247 q 291 242 288 243 q 301 241 294 242 q 321 240 307 240 q 357 243 357 240 l 356 256 q 349 288 353 267 q 343 331 346 310 m 231 444 q 219 451 226 451 q 226 442 207 451 l 235 439 l 231 444 m 206 467 q 208 463 206 463 q 211 465 211 463 q 210 469 211 468 q 207 469 208 471 q 206 467 206 468 m 147 536 q 149 536 147 536 q 150 539 150 536 q 147 542 150 542 q 144 539 144 542 q 147 536 144 536 m 451 542 q 453 535 451 536 l 456 543 q 454 547 454 546 q 451 542 453 547 m 442 576 q 443 572 442 572 l 444 581 l 444 582 q 442 576 442 581 m 442 601 q 440 614 442 611 q 436 611 439 619 l 438 596 q 442 601 442 594 m 371 629 q 368 631 371 631 q 367 629 367 631 q 368 626 367 626 q 371 629 371 626 m 350 635 q 331 642 346 639 l 319 643 l 321 642 q 340 633 326 636 q 350 635 349 632 m 314 650 q 310 654 314 654 q 313 644 304 653 q 314 650 314 644 m 432 643 q 433 631 432 631 q 437 639 435 631 q 440 656 439 647 q 440 664 442 664 q 432 643 432 664 m 451 667 q 449 668 451 668 q 446 667 446 668 q 449 664 446 664 q 451 667 451 664 m 406 739 q 408 742 408 739 q 406 744 408 744 q 404 742 404 744 q 406 739 404 739 m 96 -117 l 75 -119 q 43 -121 53 -121 q 32 -118 32 -121 q 58 63 32 -108 q 99 310 85 233 q 125 422 119 422 q 128 424 128 422 q 126 429 128 424 q 125 442 125 432 q 131 489 125 463 q 156 551 140 551 q 172 565 161 551 q 182 586 182 579 q 213 621 182 611 q 239 641 225 625 q 253 667 253 657 q 265 667 253 675 q 282 660 275 660 q 278 665 289 660 q 267 681 267 671 q 279 696 268 692 q 292 708 289 701 q 311 724 294 715 q 347 788 342 738 q 354 831 349 815 q 381 838 358 838 l 403 838 l 449 836 l 472 697 q 524 406 501 538 q 544 286 544 292 q 522 281 544 283 q 499 275 499 276 q 511 274 499 274 l 521 274 l 547 275 l 551 257 q 560 221 554 238 q 589 48 565 206 q 613 -126 613 -110 q 585 -132 613 -132 l 558 -132 l 561 -118 q 558 -101 564 -104 l 557 -103 q 554 -119 560 -107 q 547 -130 551 -128 q 525 -132 542 -132 q 496 -124 499 -132 q 482 -110 494 -115 q 450 -69 468 -104 q 425 -4 432 -35 q 382 74 414 57 q 366 87 381 74 q 336 111 351 100 q 318 122 321 122 q 303 147 313 122 q 274 188 294 167 q 236 215 254 208 q 214 237 226 219 q 201 264 201 254 q 185 287 201 269 q 160 310 169 304 q 142 311 142 318 q 138 301 144 306 q 131 283 132 296 q 136 267 131 269 q 139 269 139 265 q 138 275 139 271 q 143 294 133 288 q 157 300 153 301 q 174 286 161 299 q 179 265 189 271 q 179 258 171 258 q 200 236 185 258 q 235 204 213 214 q 293 144 281 181 q 305 123 297 132 q 330 100 313 114 q 350 85 347 86 q 382 60 372 65 q 421 -15 407 44 q 426 -46 426 -43 q 403 -61 426 -61 q 388 -46 390 -61 q 371 64 371 60 q 324 65 371 65 q 274 60 275 65 q 262 -16 274 58 q 249 -92 250 -90 q 211 -99 247 -93 q 158 -108 201 -100 q 96 -117 115 -117 m 410 -79 q 433 -76 426 -76 q 457 -96 440 -76 q 475 -117 474 -115 q 483 -125 483 -122 q 442 -132 483 -132 l 400 -132 l 397 -114 q 394 -92 394 -94 q 410 -79 394 -81 m 208 -111 q 220 -110 214 -111 q 230 -109 226 -110 q 236 -108 233 -108 q 246 -114 246 -108 l 244 -117 q 244 -119 244 -118 q 236 -130 243 -128 q 194 -132 229 -132 q 144 -128 144 -132 q 208 -111 144 -119 z "},"a":{"ha":646,"x_min":32,"x_max":613,"o":"m 183 808 l 189 838 l 265 838 q 344 833 342 838 l 344 831 q 346 825 346 828 q 341 784 346 810 q 332 754 336 758 q 258 697 322 744 q 249 678 249 690 q 233 649 249 667 q 207 631 217 631 q 193 623 201 631 q 176 604 185 615 q 167 592 168 593 q 165 580 163 586 q 161 565 168 574 q 149 556 154 556 q 145 563 146 556 q 146 577 144 569 q 150 586 147 585 q 151 594 151 586 q 165 685 151 603 q 178 768 178 767 q 183 808 178 775 m 553 -94 q 554 -92 554 -94 q 553 -89 554 -89 q 550 -92 550 -89 q 553 -94 550 -94 m 544 -71 q 532 -60 540 -61 q 530 -61 529 -58 q 536 -71 531 -64 q 550 -81 550 -87 q 544 -71 549 -78 m 508 11 q 499 29 504 14 l 494 39 q 496 21 493 38 q 508 -19 500 -19 q 512 -6 513 -19 q 508 11 511 7 m 486 47 l 482 57 l 481 57 l 481 56 q 483 50 482 53 l 486 47 m 481 81 q 485 104 489 93 q 482 111 482 110 l 481 101 q 478 78 481 89 q 478 76 478 76 q 481 81 475 71 m 482 146 q 488 169 488 157 q 483 163 486 175 q 481 150 483 160 l 478 138 q 482 146 478 139 m 479 186 q 481 182 479 182 l 482 190 l 482 192 q 479 186 479 190 m 154 190 q 151 193 154 193 q 150 190 150 193 q 151 189 150 189 q 154 190 154 189 m 246 221 q 249 224 249 221 q 246 226 249 226 q 244 224 244 226 q 246 221 244 221 m 140 221 q 142 217 140 217 q 143 225 144 219 q 140 221 142 224 m 478 214 q 469 238 475 232 q 465 233 465 242 l 472 210 l 481 196 l 478 214 m 136 242 q 136 238 136 238 l 139 247 l 139 249 q 136 242 138 244 m 474 269 q 467 272 475 272 q 455 271 457 272 q 454 261 453 269 q 463 246 457 249 q 465 247 465 244 q 465 250 465 249 q 474 269 464 268 m 435 274 q 429 282 439 274 q 435 274 425 282 m 208 282 q 210 282 208 282 q 211 285 211 282 q 208 288 211 288 q 206 285 206 288 q 208 282 206 282 m 215 299 q 214 301 215 301 q 211 299 211 301 q 214 297 211 297 q 215 299 215 297 m 476 343 q 479 346 479 343 q 476 349 479 349 q 475 346 475 349 q 476 343 475 343 m 378 339 q 361 351 375 344 q 346 354 347 357 q 349 349 344 353 q 363 342 354 344 q 388 319 379 335 q 403 306 396 306 q 400 314 413 306 q 390 331 390 321 q 389 335 390 335 q 385 336 388 336 q 381 336 383 336 q 378 339 379 336 m 279 406 q 274 411 282 408 q 268 413 268 414 q 271 410 268 413 q 279 406 278 403 m 239 425 q 229 432 229 438 q 238 424 229 429 q 239 425 244 418 m 343 331 q 321 439 325 439 q 319 436 319 438 q 315 405 319 435 q 305 344 310 375 q 295 283 300 313 q 289 251 290 254 q 288 245 289 247 q 291 242 288 243 q 301 241 294 242 q 321 240 307 240 q 357 243 357 240 l 356 256 q 349 288 353 267 q 343 331 346 310 m 231 444 q 219 451 226 451 q 226 442 207 451 l 235 439 l 231 444 m 206 467 q 208 463 206 463 q 211 465 211 463 q 210 469 211 468 q 207 469 208 471 q 206 467 206 468 m 147 536 q 149 536 147 536 q 150 539 150 536 q 147 542 150 542 q 144 539 144 542 q 147 536 144 536 m 451 542 q 453 535 451 536 l 456 543 q 454 547 454 546 q 451 542 453 547 m 442 576 q 443 572 442 572 l 444 581 l 444 582 q 442 576 442 581 m 442 601 q 440 614 442 611 q 436 611 439 619 l 438 596 q 442 601 442 594 m 371 629 q 368 631 371 631 q 367 629 367 631 q 368 626 367 626 q 371 629 371 626 m 350 635 q 331 642 346 639 l 319 643 l 321 642 q 340 633 326 636 q 350 635 349 632 m 314 650 q 310 654 314 654 q 313 644 304 653 q 314 650 314 644 m 432 643 q 433 631 432 631 q 437 639 435 631 q 440 656 439 647 q 440 664 442 664 q 432 643 432 664 m 451 667 q 449 668 451 668 q 446 667 446 668 q 449 664 446 664 q 451 667 451 664 m 406 739 q 408 742 408 739 q 406 744 408 744 q 404 742 404 744 q 406 739 404 739 m 96 -117 l 75 -119 q 43 -121 53 -121 q 32 -118 32 -121 q 58 63 32 -108 q 99 310 85 233 q 125 422 119 422 q 128 424 128 422 q 126 429 128 424 q 125 442 125 432 q 131 489 125 463 q 156 551 140 551 q 172 565 161 551 q 182 586 182 579 q 213 621 182 611 q 239 641 225 625 q 253 667 253 657 q 265 667 253 675 q 282 660 275 660 q 278 665 289 660 q 267 681 267 671 q 279 696 268 692 q 292 708 289 701 q 311 724 294 715 q 347 788 342 738 q 354 831 349 815 q 381 838 358 838 l 403 838 l 449 836 l 472 697 q 524 406 501 538 q 544 286 544 292 q 522 281 544 283 q 499 275 499 276 q 511 274 499 274 l 521 274 l 547 275 l 551 257 q 560 221 554 238 q 589 48 565 206 q 613 -126 613 -110 q 585 -132 613 -132 l 558 -132 l 561 -118 q 558 -101 564 -104 l 557 -103 q 554 -119 560 -107 q 547 -130 551 -128 q 525 -132 542 -132 q 496 -124 499 -132 q 482 -110 494 -115 q 450 -69 468 -104 q 425 -4 432 -35 q 382 74 414 57 q 366 87 381 74 q 336 111 351 100 q 318 122 321 122 q 303 147 313 122 q 274 188 294 167 q 236 215 254 208 q 214 237 226 219 q 201 264 201 254 q 185 287 201 269 q 160 310 169 304 q 142 311 142 318 q 138 301 144 306 q 131 283 132 296 q 136 267 131 269 q 139 269 139 265 q 138 275 139 271 q 143 294 133 288 q 157 300 153 301 q 174 286 161 299 q 179 265 189 271 q 179 258 171 258 q 200 236 185 258 q 235 204 213 214 q 293 144 281 181 q 305 123 297 132 q 330 100 313 114 q 350 85 347 86 q 382 60 372 65 q 421 -15 407 44 q 426 -46 426 -43 q 403 -61 426 -61 q 388 -46 390 -61 q 371 64 371 60 q 324 65 371 65 q 274 60 275 65 q 262 -16 274 58 q 249 -92 250 -90 q 211 -99 247 -93 q 158 -108 201 -100 q 96 -117 115 -117 m 410 -79 q 433 -76 426 -76 q 457 -96 440 -76 q 475 -117 474 -115 q 483 -125 483 -122 q 442 -132 483 -132 l 400 -132 l 397 -114 q 394 -92 394 -94 q 410 -79 394 -81 m 208 -111 q 220 -110 214 -111 q 230 -109 226 -110 q 236 -108 233 -108 q 246 -114 246 -108 l 244 -117 q 244 -119 244 -118 q 236 -130 243 -128 q 194 -132 229 -132 q 144 -128 144 -132 q 208 -111 144 -119 z "},"B":{"ha":544,"x_min":25,"x_max":519,"o":"m 57 -58 q 75 -22 78 -37 l 72 -14 l 72 -18 q 64 -44 72 -28 l 57 -58 m 354 44 q 351 47 354 47 q 349 44 349 47 q 351 43 349 43 q 354 44 354 43 m 351 51 q 353 51 351 51 q 354 54 354 51 q 351 57 354 57 q 349 54 349 57 q 351 51 349 51 m 168 106 q 138 113 157 113 q 126 113 128 113 l 144 106 q 176 100 178 96 q 168 106 176 101 m 101 91 q 102 102 101 91 q 107 113 103 113 q 101 118 111 113 l 94 122 q 92 71 92 122 q 83 13 92 18 q 76 1 76 8 q 86 7 76 -4 q 97 43 94 17 q 101 91 100 69 m 74 136 q 75 136 74 136 q 76 139 76 136 q 74 142 76 142 q 71 139 71 142 q 74 136 71 136 m 65 156 q 68 149 67 150 q 71 151 71 147 l 68 161 q 65 163 65 164 q 65 156 64 163 m 425 204 q 425 200 425 200 l 428 210 l 428 211 q 425 204 426 207 m 471 231 q 476 240 483 240 q 451 235 467 240 q 431 225 435 229 l 429 222 q 435 221 429 221 q 471 231 451 221 m 358 651 q 369 651 363 649 q 364 654 368 654 l 357 653 l 358 651 m 265 654 l 264 654 q 245 653 250 654 q 238 649 240 653 q 236 636 236 646 l 236 618 q 231 589 236 594 q 207 583 226 583 q 189 574 199 583 q 182 566 182 567 q 188 567 182 565 q 207 572 192 568 q 228 578 222 576 l 231 578 q 238 515 236 578 l 239 450 l 263 449 q 297 460 288 447 q 307 547 307 472 q 314 621 307 621 q 336 636 318 621 l 351 650 l 333 643 q 311 635 314 635 q 299 644 308 635 q 265 654 289 654 m 406 667 q 403 668 406 668 q 401 667 401 668 q 403 664 401 664 q 406 667 406 664 m 358 753 q 354 776 358 769 q 349 776 349 783 q 344 768 349 768 q 343 756 340 768 q 332 743 347 743 l 324 742 q 328 740 325 740 q 354 723 336 738 q 378 706 372 708 q 385 703 385 701 q 376 715 386 704 q 367 729 364 728 l 371 731 q 376 733 376 732 q 369 733 375 733 q 358 753 358 733 m 276 775 q 260 782 267 782 q 265 776 256 782 l 283 769 q 276 775 282 771 m 240 783 q 239 786 240 786 q 236 783 236 786 q 239 782 236 782 q 240 783 240 782 m 214 803 q 206 814 211 814 q 207 799 192 814 q 214 794 213 793 q 214 803 215 794 m 474 10 q 494 14 476 10 q 513 18 511 18 q 507 -7 514 17 q 498 -26 501 -24 q 479 -28 494 -29 q 456 -32 467 -28 q 443 -36 446 -36 q 418 -18 435 -36 q 392 4 399 4 q 383 19 389 4 q 369 33 379 33 q 375 19 364 33 q 379 8 382 11 q 380 5 378 7 q 386 0 382 3 q 394 -4 390 -3 q 422 -36 422 -18 q 419 -43 422 -42 q 418 -50 414 -47 q 426 -76 424 -56 q 428 -89 428 -86 q 426 -96 429 -92 q 422 -101 424 -100 q 411 -106 419 -101 q 345 -124 378 -121 q 204 -131 313 -128 l 67 -133 l 67 -110 q 61 -78 67 -89 q 60 -74 60 -76 l 58 -74 q 60 -81 60 -78 q 57 -112 63 -92 q 51 -128 54 -125 q 42 -131 49 -132 q 33 -108 35 -129 q 31 39 32 -86 q 30 99 31 64 q 29 143 29 133 q 35 207 29 207 q 50 192 42 207 l 56 182 q 54 189 56 183 q 42 210 53 194 q 31 235 31 225 q 33 244 31 239 q 43 247 36 247 q 85 240 57 247 q 114 231 113 233 q 140 232 115 226 q 179 236 161 236 q 224 229 203 236 l 240 222 l 240 151 q 235 81 240 81 q 228 84 233 81 q 219 90 224 88 q 214 92 215 93 q 229 74 213 90 q 268 57 247 57 q 302 61 283 57 q 321 68 321 65 q 318 69 321 69 q 311 97 311 71 l 311 139 l 313 206 q 347 204 336 211 q 388 199 354 199 q 414 203 411 199 q 412 206 415 204 q 404 207 408 207 q 383 215 394 207 q 343 221 374 222 q 317 221 321 219 q 310 233 314 222 q 297 255 304 250 q 268 261 289 260 l 243 261 l 242 246 q 238 233 240 236 q 232 233 236 231 q 179 244 203 244 q 170 244 176 244 q 160 243 164 243 q 129 244 129 240 q 135 254 129 247 q 138 289 142 261 q 136 306 136 296 q 143 315 136 315 q 149 315 146 315 q 158 313 151 314 q 168 310 164 311 q 185 297 185 306 q 178 271 185 294 q 177 266 176 265 q 181 272 178 267 q 189 282 186 282 q 190 296 193 282 q 171 315 189 311 q 143 321 151 321 q 111 364 125 321 q 108 397 103 389 q 126 454 126 433 q 125 479 126 469 q 118 528 122 519 q 114 540 113 538 q 125 542 115 542 q 169 558 153 542 q 172 565 176 565 q 143 557 168 565 q 117 561 128 551 q 105 580 107 568 q 110 596 103 592 q 111 617 114 597 q 108 646 108 636 q 114 676 108 665 q 117 696 117 679 q 107 753 117 735 q 72 800 93 775 q 43 836 43 833 q 186 838 43 838 q 347 833 307 838 q 421 810 386 828 q 514 664 497 768 q 517 636 517 651 q 514 626 517 626 q 508 631 513 626 q 496 636 503 636 q 472 649 490 636 q 451 661 454 661 q 430 674 444 663 q 410 694 415 685 q 401 701 403 707 q 406 685 397 693 q 413 672 415 678 q 414 671 411 669 q 422 668 419 674 q 451 650 425 663 q 500 624 475 639 l 519 610 l 518 522 q 510 424 515 449 q 483 374 504 399 l 467 354 l 479 340 q 504 301 490 329 q 514 267 513 283 q 517 151 515 250 l 517 97 q 514 26 517 29 q 493 18 510 25 l 474 10 m 26 774 q 26 794 26 781 q 25 811 25 807 q 28 833 25 833 q 43 817 29 833 q 78 772 57 800 l 100 742 l 97 706 q 96 642 96 686 q 81 579 96 579 q 81 572 76 579 q 83 560 83 567 q 83 548 82 554 q 89 540 83 542 q 110 469 110 536 q 100 424 110 435 q 88 385 88 407 q 94 350 88 371 q 101 325 101 329 q 85 310 101 319 q 81 304 74 304 q 97 307 85 303 q 119 306 115 313 q 124 279 124 300 q 121 256 124 269 q 107 246 118 246 q 54 254 96 246 l 29 260 l 29 486 q 26 774 29 707 m 367 203 q 351 208 351 203 q 363 213 351 213 q 378 207 378 213 q 367 203 378 203 m 454 -46 q 486 -46 486 -39 q 469 -65 486 -49 q 465 -69 468 -67 q 451 -76 454 -81 q 449 -72 450 -75 q 454 -46 436 -50 z "},"b":{"ha":544,"x_min":25,"x_max":519,"o":"m 57 -58 q 75 -22 78 -37 l 72 -14 l 72 -18 q 64 -44 72 -28 l 57 -58 m 354 44 q 351 47 354 47 q 349 44 349 47 q 351 43 349 43 q 354 44 354 43 m 351 51 q 353 51 351 51 q 354 54 354 51 q 351 57 354 57 q 349 54 349 57 q 351 51 349 51 m 168 106 q 138 113 157 113 q 126 113 128 113 l 144 106 q 176 100 178 96 q 168 106 176 101 m 101 91 q 102 102 101 91 q 107 113 103 113 q 101 118 111 113 l 94 122 q 92 71 92 122 q 83 13 92 18 q 76 1 76 8 q 86 7 76 -4 q 97 43 94 17 q 101 91 100 69 m 74 136 q 75 136 74 136 q 76 139 76 136 q 74 142 76 142 q 71 139 71 142 q 74 136 71 136 m 65 156 q 68 149 67 150 q 71 151 71 147 l 68 161 q 65 163 65 164 q 65 156 64 163 m 425 204 q 425 200 425 200 l 428 210 l 428 211 q 425 204 426 207 m 471 231 q 476 240 483 240 q 451 235 467 240 q 431 225 435 229 l 429 222 q 435 221 429 221 q 471 231 451 221 m 358 651 q 369 651 363 649 q 364 654 368 654 l 357 653 l 358 651 m 265 654 l 264 654 q 245 653 250 654 q 238 649 240 653 q 236 636 236 646 l 236 618 q 231 589 236 594 q 207 583 226 583 q 189 574 199 583 q 182 566 182 567 q 188 567 182 565 q 207 572 192 568 q 228 578 222 576 l 231 578 q 238 515 236 578 l 239 450 l 263 449 q 297 460 288 447 q 307 547 307 472 q 314 621 307 621 q 336 636 318 621 l 351 650 l 333 643 q 311 635 314 635 q 299 644 308 635 q 265 654 289 654 m 406 667 q 403 668 406 668 q 401 667 401 668 q 403 664 401 664 q 406 667 406 664 m 358 753 q 354 776 358 769 q 349 776 349 783 q 344 768 349 768 q 343 756 340 768 q 332 743 347 743 l 324 742 q 328 740 325 740 q 354 723 336 738 q 378 706 372 708 q 385 703 385 701 q 376 715 386 704 q 367 729 364 728 l 371 731 q 376 733 376 732 q 369 733 375 733 q 358 753 358 733 m 276 775 q 260 782 267 782 q 265 776 256 782 l 283 769 q 276 775 282 771 m 240 783 q 239 786 240 786 q 236 783 236 786 q 239 782 236 782 q 240 783 240 782 m 214 803 q 206 814 211 814 q 207 799 192 814 q 214 794 213 793 q 214 803 215 794 m 474 10 q 494 14 476 10 q 513 18 511 18 q 507 -7 514 17 q 498 -26 501 -24 q 479 -28 494 -29 q 456 -32 467 -28 q 443 -36 446 -36 q 418 -18 435 -36 q 392 4 399 4 q 383 19 389 4 q 369 33 379 33 q 375 19 364 33 q 379 8 382 11 q 380 5 378 7 q 386 0 382 3 q 394 -4 390 -3 q 422 -36 422 -18 q 419 -43 422 -42 q 418 -50 414 -47 q 426 -76 424 -56 q 428 -89 428 -86 q 426 -96 429 -92 q 422 -101 424 -100 q 411 -106 419 -101 q 345 -124 378 -121 q 204 -131 313 -128 l 67 -133 l 67 -110 q 61 -78 67 -89 q 60 -74 60 -76 l 58 -74 q 60 -81 60 -78 q 57 -112 63 -92 q 51 -128 54 -125 q 42 -131 49 -132 q 33 -108 35 -129 q 31 39 32 -86 q 30 99 31 64 q 29 143 29 133 q 35 207 29 207 q 50 192 42 207 l 56 182 q 54 189 56 183 q 42 210 53 194 q 31 235 31 225 q 33 244 31 239 q 43 247 36 247 q 85 240 57 247 q 114 231 113 233 q 140 232 115 226 q 179 236 161 236 q 224 229 203 236 l 240 222 l 240 151 q 235 81 240 81 q 228 84 233 81 q 219 90 224 88 q 214 92 215 93 q 229 74 213 90 q 268 57 247 57 q 302 61 283 57 q 321 68 321 65 q 318 69 321 69 q 311 97 311 71 l 311 139 l 313 206 q 347 204 336 211 q 388 199 354 199 q 414 203 411 199 q 412 206 415 204 q 404 207 408 207 q 383 215 394 207 q 343 221 374 222 q 317 221 321 219 q 310 233 314 222 q 297 255 304 250 q 268 261 289 260 l 243 261 l 242 246 q 238 233 240 236 q 232 233 236 231 q 179 244 203 244 q 170 244 176 244 q 160 243 164 243 q 129 244 129 240 q 135 254 129 247 q 138 289 142 261 q 136 306 136 296 q 143 315 136 315 q 149 315 146 315 q 158 313 151 314 q 168 310 164 311 q 185 297 185 306 q 178 271 185 294 q 177 266 176 265 q 181 272 178 267 q 189 282 186 282 q 190 296 193 282 q 171 315 189 311 q 143 321 151 321 q 111 364 125 321 q 108 397 103 389 q 126 454 126 433 q 125 479 126 469 q 118 528 122 519 q 114 540 113 538 q 125 542 115 542 q 169 558 153 542 q 172 565 176 565 q 143 557 168 565 q 117 561 128 551 q 105 580 107 568 q 110 596 103 592 q 111 617 114 597 q 108 646 108 636 q 114 676 108 665 q 117 696 117 679 q 107 753 117 735 q 72 800 93 775 q 43 836 43 833 q 186 838 43 838 q 347 833 307 838 q 421 810 386 828 q 514 664 497 768 q 517 636 517 651 q 514 626 517 626 q 508 631 513 626 q 496 636 503 636 q 472 649 490 636 q 451 661 454 661 q 430 674 444 663 q 410 694 415 685 q 401 701 403 707 q 406 685 397 693 q 413 672 415 678 q 414 671 411 669 q 422 668 419 674 q 451 650 425 663 q 500 624 475 639 l 519 610 l 518 522 q 510 424 515 449 q 483 374 504 399 l 467 354 l 479 340 q 504 301 490 329 q 514 267 513 283 q 517 151 515 250 l 517 97 q 514 26 517 29 q 493 18 510 25 l 474 10 m 26 774 q 26 794 26 781 q 25 811 25 807 q 28 833 25 833 q 43 817 29 833 q 78 772 57 800 l 100 742 l 97 706 q 96 642 96 686 q 81 579 96 579 q 81 572 76 579 q 83 560 83 567 q 83 548 82 554 q 89 540 83 542 q 110 469 110 536 q 100 424 110 435 q 88 385 88 407 q 94 350 88 371 q 101 325 101 329 q 85 310 101 319 q 81 304 74 304 q 97 307 85 303 q 119 306 115 313 q 124 279 124 300 q 121 256 124 269 q 107 246 118 246 q 54 254 96 246 l 29 260 l 29 486 q 26 774 29 707 m 367 203 q 351 208 351 203 q 363 213 351 213 q 378 207 378 213 q 367 203 378 203 m 454 -46 q 486 -46 486 -39 q 469 -65 486 -49 q 465 -69 468 -67 q 451 -76 454 -81 q 449 -72 450 -75 q 454 -46 436 -50 z "},"C":{"ha":540,"x_min":25,"x_max":515,"o":"m 188 740 q 192 739 189 739 q 190 744 193 742 q 188 743 189 744 q 188 740 186 742 m 25 654 q 88 798 25 744 q 258 851 151 851 l 272 851 q 303 845 299 851 q 311 804 308 839 q 304 769 313 772 q 265 744 300 768 q 224 721 231 721 q 141 685 214 721 q 49 635 68 649 q 33 626 39 626 q 25 654 25 626 m 422 614 l 436 615 l 428 615 l 421 615 l 422 614 m 464 629 q 454 628 464 636 q 451 624 449 624 q 456 624 453 622 q 464 629 464 626 m 315 842 q 313 849 313 847 q 317 850 313 850 q 360 842 319 850 q 488 756 450 822 q 500 715 503 731 q 506 690 499 701 q 515 582 515 678 l 515 485 l 374 485 q 371 525 365 511 q 378 558 378 543 q 374 582 378 569 q 372 592 371 590 q 385 596 374 593 l 400 600 q 383 603 394 600 q 367 606 372 606 l 368 633 q 374 671 371 657 q 375 679 375 674 q 349 735 375 704 q 318 814 318 771 q 315 842 318 835 m 271 -92 q 265 -92 271 -83 q 265 -97 264 -96 q 271 -92 271 -94 m 410 -68 l 404 -67 q 400 -68 400 -67 l 408 -69 l 410 -68 m 318 -43 q 314 -22 318 -26 q 313 -40 310 -21 q 307 -69 315 -61 q 303 -76 303 -75 q 308 -72 304 -76 q 325 -65 319 -65 q 331 -64 331 -65 l 326 -62 q 318 -43 318 -61 m 260 8 q 268 6 265 3 q 263 11 271 8 q 260 8 253 15 m 254 19 q 249 28 258 19 q 254 19 244 28 m 236 40 q 232 48 233 46 q 228 50 231 50 q 224 48 225 50 q 217 40 222 46 q 205 31 213 36 q 193 19 197 25 q 188 6 189 14 q 192 -10 183 -10 q 200 -4 200 -10 q 211 18 200 1 q 231 31 222 32 q 238 31 238 29 q 236 40 239 32 m 140 40 l 129 54 l 135 40 q 144 19 142 22 q 135 0 149 13 q 128 -19 119 -18 q 144 -7 135 -19 q 154 15 154 6 q 140 40 154 26 m 108 213 q 103 221 113 213 q 108 213 99 221 m 96 233 q 93 235 96 235 q 92 233 92 235 q 93 231 92 231 q 96 233 96 231 m 85 244 q 82 253 90 244 l 79 254 l 83 244 l 85 244 m 156 471 q 164 469 156 469 q 204 474 204 469 q 182 475 204 475 q 156 471 156 475 m 122 474 q 101 479 113 479 l 100 479 q 115 472 100 478 q 133 467 131 467 l 122 474 m 188 581 q 193 581 190 578 q 190 583 196 583 q 188 581 185 583 m 181 585 q 165 589 181 589 q 153 586 153 589 q 175 582 156 581 q 181 585 181 582 m 126 589 q 130 589 126 589 q 133 590 133 589 q 130 593 133 592 q 123 595 126 594 q 119 593 119 596 q 126 589 119 589 m 113 593 q 114 593 113 593 q 115 596 115 593 q 113 599 115 599 q 110 596 110 599 q 113 593 110 593 m 97 603 q 85 608 90 603 q 74 613 79 613 q 82 603 65 613 q 106 599 106 593 q 97 603 106 603 m 103 160 q 126 174 108 160 q 147 189 143 189 q 149 192 153 189 q 147 194 147 192 q 168 235 147 204 q 204 285 189 267 q 238 315 213 296 l 238 186 q 242 61 238 79 q 268 43 246 43 l 269 43 q 298 57 293 43 q 303 142 303 71 l 303 226 l 515 226 l 515 132 q 511 24 515 56 q 492 -37 507 -8 q 296 -143 446 -131 l 279 -143 q 140 -122 185 -143 q 28 24 44 -79 q 28 40 25 39 q 35 38 28 40 q 42 35 42 33 q 42 39 43 36 q 32 49 39 46 q 25 65 25 51 q 35 92 25 82 q 55 117 42 99 q 68 139 68 135 q 26 110 29 110 q 25 182 25 110 q 32 258 25 251 l 33 261 l 33 263 l 32 263 q 28 367 28 263 l 28 474 l 56 475 q 76 482 78 478 q 58 485 69 485 q 42 482 50 485 q 32 479 33 479 q 25 544 25 479 l 25 613 l 40 613 l 51 615 q 51 617 51 617 q 50 618 50 617 q 115 661 50 628 q 196 692 175 692 q 243 714 214 692 q 292 747 274 738 q 318 758 311 758 q 346 732 326 758 l 365 704 l 360 650 q 357 607 357 629 q 360 593 357 594 q 368 560 368 589 q 363 528 368 538 q 357 499 356 510 l 361 485 l 303 485 l 303 567 q 294 660 303 651 q 269 668 286 668 q 244 660 253 668 q 238 569 238 651 l 238 532 q 238 514 238 521 q 237 501 238 507 q 235 494 236 496 q 233 489 235 492 q 230 485 231 486 q 224 483 229 485 q 217 481 219 482 l 226 481 q 233 480 231 481 q 236 472 235 479 q 238 451 238 464 q 238 413 238 439 l 238 346 l 224 332 q 210 313 210 318 q 195 290 210 310 q 181 265 181 269 q 167 251 181 261 q 153 235 153 240 q 140 219 153 229 q 124 211 128 210 q 118 200 121 211 q 99 181 115 188 q 82 164 82 175 q 76 146 82 154 q 78 146 75 144 q 82 150 79 149 q 103 160 94 160 z "},"c":{"ha":540,"x_min":25,"x_max":515,"o":"m 188 740 q 192 739 189 739 q 190 744 193 742 q 188 743 189 744 q 188 740 186 742 m 25 654 q 88 798 25 744 q 258 851 151 851 l 272 851 q 303 845 299 851 q 311 804 308 839 q 304 769 313 772 q 265 744 300 768 q 224 721 231 721 q 141 685 214 721 q 49 635 68 649 q 33 626 39 626 q 25 654 25 626 m 422 614 l 436 615 l 428 615 l 421 615 l 422 614 m 464 629 q 454 628 464 636 q 451 624 449 624 q 456 624 453 622 q 464 629 464 626 m 315 842 q 313 849 313 847 q 317 850 313 850 q 360 842 319 850 q 488 756 450 822 q 500 715 503 731 q 506 690 499 701 q 515 582 515 678 l 515 485 l 374 485 q 371 525 365 511 q 378 558 378 543 q 374 582 378 569 q 372 592 371 590 q 385 596 374 593 l 400 600 q 383 603 394 600 q 367 606 372 606 l 368 633 q 374 671 371 657 q 375 679 375 674 q 349 735 375 704 q 318 814 318 771 q 315 842 318 835 m 271 -92 q 265 -92 271 -83 q 265 -97 264 -96 q 271 -92 271 -94 m 410 -68 l 404 -67 q 400 -68 400 -67 l 408 -69 l 410 -68 m 318 -43 q 314 -22 318 -26 q 313 -40 310 -21 q 307 -69 315 -61 q 303 -76 303 -75 q 308 -72 304 -76 q 325 -65 319 -65 q 331 -64 331 -65 l 326 -62 q 318 -43 318 -61 m 260 8 q 268 6 265 3 q 263 11 271 8 q 260 8 253 15 m 254 19 q 249 28 258 19 q 254 19 244 28 m 236 40 q 232 48 233 46 q 228 50 231 50 q 224 48 225 50 q 217 40 222 46 q 205 31 213 36 q 193 19 197 25 q 188 6 189 14 q 192 -10 183 -10 q 200 -4 200 -10 q 211 18 200 1 q 231 31 222 32 q 238 31 238 29 q 236 40 239 32 m 140 40 l 129 54 l 135 40 q 144 19 142 22 q 135 0 149 13 q 128 -19 119 -18 q 144 -7 135 -19 q 154 15 154 6 q 140 40 154 26 m 108 213 q 103 221 113 213 q 108 213 99 221 m 96 233 q 93 235 96 235 q 92 233 92 235 q 93 231 92 231 q 96 233 96 231 m 85 244 q 82 253 90 244 l 79 254 l 83 244 l 85 244 m 156 471 q 164 469 156 469 q 204 474 204 469 q 182 475 204 475 q 156 471 156 475 m 122 474 q 101 479 113 479 l 100 479 q 115 472 100 478 q 133 467 131 467 l 122 474 m 188 581 q 193 581 190 578 q 190 583 196 583 q 188 581 185 583 m 181 585 q 165 589 181 589 q 153 586 153 589 q 175 582 156 581 q 181 585 181 582 m 126 589 q 130 589 126 589 q 133 590 133 589 q 130 593 133 592 q 123 595 126 594 q 119 593 119 596 q 126 589 119 589 m 113 593 q 114 593 113 593 q 115 596 115 593 q 113 599 115 599 q 110 596 110 599 q 113 593 110 593 m 97 603 q 85 608 90 603 q 74 613 79 613 q 82 603 65 613 q 106 599 106 593 q 97 603 106 603 m 103 160 q 126 174 108 160 q 147 189 143 189 q 149 192 153 189 q 147 194 147 192 q 168 235 147 204 q 204 285 189 267 q 238 315 213 296 l 238 186 q 242 61 238 79 q 268 43 246 43 l 269 43 q 298 57 293 43 q 303 142 303 71 l 303 226 l 515 226 l 515 132 q 511 24 515 56 q 492 -37 507 -8 q 296 -143 446 -131 l 279 -143 q 140 -122 185 -143 q 28 24 44 -79 q 28 40 25 39 q 35 38 28 40 q 42 35 42 33 q 42 39 43 36 q 32 49 39 46 q 25 65 25 51 q 35 92 25 82 q 55 117 42 99 q 68 139 68 135 q 26 110 29 110 q 25 182 25 110 q 32 258 25 251 l 33 261 l 33 263 l 32 263 q 28 367 28 263 l 28 474 l 56 475 q 76 482 78 478 q 58 485 69 485 q 42 482 50 485 q 32 479 33 479 q 25 544 25 479 l 25 613 l 40 613 l 51 615 q 51 617 51 617 q 50 618 50 617 q 115 661 50 628 q 196 692 175 692 q 243 714 214 692 q 292 747 274 738 q 318 758 311 758 q 346 732 326 758 l 365 704 l 360 650 q 357 607 357 629 q 360 593 357 594 q 368 560 368 589 q 363 528 368 538 q 357 499 356 510 l 361 485 l 303 485 l 303 567 q 294 660 303 651 q 269 668 286 668 q 244 660 253 668 q 238 569 238 651 l 238 532 q 238 514 238 521 q 237 501 238 507 q 235 494 236 496 q 233 489 235 492 q 230 485 231 486 q 224 483 229 485 q 217 481 219 482 l 226 481 q 233 480 231 481 q 236 472 235 479 q 238 451 238 464 q 238 413 238 439 l 238 346 l 224 332 q 210 313 210 318 q 195 290 210 310 q 181 265 181 269 q 167 251 181 261 q 153 235 153 240 q 140 219 153 229 q 124 211 128 210 q 118 200 121 211 q 99 181 115 188 q 82 164 82 175 q 76 146 82 154 q 78 146 75 144 q 82 150 79 149 q 103 160 94 160 z "},"D":{"ha":539,"x_min":24,"x_max":514,"o":"m 164 790 q 168 797 164 792 q 168 806 171 804 q 161 794 161 806 q 164 790 163 790 m 24 697 l 24 838 l 160 838 q 286 833 286 838 q 285 832 286 832 q 270 820 283 832 q 246 801 257 808 q 197 776 215 776 q 183 775 192 776 l 174 775 q 158 767 169 775 q 97 732 149 758 q 24 697 44 706 m 310 -99 q 303 -78 310 -87 q 300 -75 303 -78 l 307 -96 q 310 -99 310 -99 m 275 -57 q 278 -54 278 -57 q 275 -51 278 -51 q 274 -54 274 -51 q 275 -57 274 -57 m 122 -32 q 108 -6 122 -28 q 90 15 94 15 q 89 13 89 15 q 101 -11 89 11 l 114 -33 l 97 -50 q 83 -69 83 -62 q 86 -72 83 -72 q 107 -58 94 -72 q 122 -32 122 -40 m 254 -40 q 247 -35 254 -40 q 240 -26 240 -31 q 226 -15 240 -22 q 213 -1 213 -8 q 203 15 210 10 q 182 -11 203 10 q 158 -44 161 -28 q 160 -57 158 -53 q 167 -59 163 -61 q 174 -50 171 -57 q 189 -24 179 -35 q 199 -13 194 -14 q 215 -15 204 -12 q 236 -29 231 -21 q 264 -50 242 -42 q 268 -50 268 -51 q 254 -40 268 -49 m 344 144 q 347 153 350 150 q 344 152 346 154 q 342 147 343 150 q 341 142 340 142 q 344 144 342 142 m 335 221 q 336 213 335 213 l 338 229 q 335 221 336 226 m 460 339 q 445 343 447 344 q 450 338 443 342 q 461 335 456 335 q 460 339 468 335 m 361 335 q 363 339 363 335 q 357 343 363 343 q 361 335 351 343 m 406 360 q 403 363 406 363 q 400 360 400 363 q 403 358 400 358 q 406 360 406 358 m 363 365 q 360 367 363 367 q 358 365 358 367 q 360 363 358 363 q 363 365 363 363 m 496 431 q 478 438 493 438 l 464 438 q 494 426 481 432 q 497 428 497 425 l 496 431 m 414 444 q 424 444 417 442 q 419 446 422 446 q 414 444 414 444 m 397 444 q 404 444 400 442 q 400 447 401 446 q 397 444 394 447 m 413 485 q 414 488 414 485 q 413 490 414 490 q 410 488 410 490 q 413 485 410 485 m 400 492 q 397 494 400 494 q 396 492 396 494 q 397 490 396 490 q 400 492 400 490 m 426 654 l 431 654 q 444 657 436 654 q 453 663 453 660 q 450 664 451 664 q 433 660 446 664 q 426 654 428 657 m 475 671 q 468 674 475 674 q 461 668 461 674 q 465 666 461 665 q 472 668 468 667 q 475 671 475 669 m 499 685 q 497 688 499 688 q 494 685 494 688 q 497 683 494 683 q 499 685 499 683 m 321 832 l 321 833 q 328 838 321 839 q 354 833 332 838 l 356 832 l 358 832 q 406 816 383 826 q 429 800 429 806 q 433 797 429 794 l 435 797 q 459 779 442 797 q 486 744 476 761 q 510 657 506 710 q 514 354 514 604 q 510 57 514 108 q 489 -29 507 6 q 425 -94 471 -67 q 340 -122 379 -122 q 317 -118 328 -122 q 301 -119 301 -112 q 294 -129 301 -126 q 156 -132 286 -132 l 24 -132 l 24 108 l 39 122 q 63 136 56 136 q 88 150 71 136 q 108 165 103 165 q 113 171 113 165 q 143 228 110 190 q 165 258 165 256 q 193 294 165 264 q 224 338 221 322 q 229 354 228 354 q 236 207 236 354 l 236 57 l 261 57 q 292 61 286 57 q 301 246 300 67 l 304 426 l 314 425 q 319 432 325 425 q 314 442 314 438 q 331 447 314 447 q 367 443 343 447 l 389 439 l 388 440 q 385 467 383 442 q 381 499 388 492 q 367 533 367 514 q 371 551 367 543 q 376 583 376 563 l 376 599 q 375 621 375 608 q 376 630 375 626 q 380 634 378 633 q 388 636 382 635 q 397 640 393 638 l 401 643 q 392 642 400 643 q 381 640 388 640 q 365 664 365 640 l 365 676 q 374 717 368 701 q 376 729 376 725 q 344 796 376 756 q 321 832 321 828 m 211 600 q 219 600 217 597 q 214 603 218 603 q 211 600 213 601 m 163 621 q 129 625 154 625 l 113 622 q 119 621 114 622 q 153 617 136 617 q 165 619 165 617 q 163 621 164 619 m 217 508 q 183 501 203 508 q 150 494 164 494 l 108 494 q 74 496 82 494 q 67 497 69 497 l 78 492 q 118 488 90 488 q 189 497 164 488 q 219 503 207 506 l 233 501 q 235 437 233 481 q 236 371 236 393 l 214 349 q 183 307 192 326 q 169 285 175 288 q 156 265 163 281 q 132 238 144 246 q 118 221 118 228 q 104 200 118 214 q 79 194 90 188 q 69 201 72 197 q 63 207 65 204 q 57 215 61 210 q 49 225 53 221 q 46 225 40 233 q 53 215 47 222 q 74 193 68 193 q 79 189 78 193 q 78 178 81 185 q 72 168 76 172 q 54 160 67 163 q 39 138 44 157 q 28 118 32 118 q 24 182 24 118 q 28 242 24 242 l 29 242 q 29 246 36 238 q 24 372 24 251 l 24 494 q 33 496 25 494 q 47 499 40 497 q 54 501 54 500 q 42 503 54 503 l 24 504 l 24 576 q 28 650 24 650 q 33 646 33 650 q 82 628 33 636 q 97 629 99 625 q 79 638 93 633 q 43 647 61 640 q 24 669 24 656 q 34 685 24 678 q 90 715 44 693 q 164 746 153 746 q 175 744 171 746 q 184 742 179 743 q 191 742 189 742 q 193 743 193 742 q 231 775 193 747 q 286 813 268 803 q 313 821 308 824 q 342 789 318 818 l 364 760 l 360 718 q 353 658 357 674 q 356 631 347 640 q 367 588 367 617 q 361 558 367 565 q 354 533 354 547 q 358 510 354 522 q 356 492 364 497 q 361 483 347 485 q 374 467 375 482 q 371 449 374 451 q 367 447 369 447 q 335 453 357 447 q 308 463 313 460 q 301 554 301 468 q 300 629 301 617 q 292 647 299 642 q 258 654 282 654 q 239 653 242 654 q 236 639 236 651 q 233 621 236 636 q 229 600 229 606 q 231 596 229 596 q 236 550 236 593 l 236 508 l 217 508 m 199 311 q 206 326 199 315 q 215 336 213 336 q 217 336 217 338 l 210 319 q 199 311 201 306 z "},"d":{"ha":539,"x_min":24,"x_max":514,"o":"m 164 790 q 168 797 164 792 q 168 806 171 804 q 161 794 161 806 q 164 790 163 790 m 24 697 l 24 838 l 160 838 q 286 833 286 838 q 285 832 286 832 q 270 820 283 832 q 246 801 257 808 q 197 776 215 776 q 183 775 192 776 l 174 775 q 158 767 169 775 q 97 732 149 758 q 24 697 44 706 m 310 -99 q 303 -78 310 -87 q 300 -75 303 -78 l 307 -96 q 310 -99 310 -99 m 275 -57 q 278 -54 278 -57 q 275 -51 278 -51 q 274 -54 274 -51 q 275 -57 274 -57 m 122 -32 q 108 -6 122 -28 q 90 15 94 15 q 89 13 89 15 q 101 -11 89 11 l 114 -33 l 97 -50 q 83 -69 83 -62 q 86 -72 83 -72 q 107 -58 94 -72 q 122 -32 122 -40 m 254 -40 q 247 -35 254 -40 q 240 -26 240 -31 q 226 -15 240 -22 q 213 -1 213 -8 q 203 15 210 10 q 182 -11 203 10 q 158 -44 161 -28 q 160 -57 158 -53 q 167 -59 163 -61 q 174 -50 171 -57 q 189 -24 179 -35 q 199 -13 194 -14 q 215 -15 204 -12 q 236 -29 231 -21 q 264 -50 242 -42 q 268 -50 268 -51 q 254 -40 268 -49 m 344 144 q 347 153 350 150 q 344 152 346 154 q 342 147 343 150 q 341 142 340 142 q 344 144 342 142 m 335 221 q 336 213 335 213 l 338 229 q 335 221 336 226 m 460 339 q 445 343 447 344 q 450 338 443 342 q 461 335 456 335 q 460 339 468 335 m 361 335 q 363 339 363 335 q 357 343 363 343 q 361 335 351 343 m 406 360 q 403 363 406 363 q 400 360 400 363 q 403 358 400 358 q 406 360 406 358 m 363 365 q 360 367 363 367 q 358 365 358 367 q 360 363 358 363 q 363 365 363 363 m 496 431 q 478 438 493 438 l 464 438 q 494 426 481 432 q 497 428 497 425 l 496 431 m 414 444 q 424 444 417 442 q 419 446 422 446 q 414 444 414 444 m 397 444 q 404 444 400 442 q 400 447 401 446 q 397 444 394 447 m 413 485 q 414 488 414 485 q 413 490 414 490 q 410 488 410 490 q 413 485 410 485 m 400 492 q 397 494 400 494 q 396 492 396 494 q 397 490 396 490 q 400 492 400 490 m 426 654 l 431 654 q 444 657 436 654 q 453 663 453 660 q 450 664 451 664 q 433 660 446 664 q 426 654 428 657 m 475 671 q 468 674 475 674 q 461 668 461 674 q 465 666 461 665 q 472 668 468 667 q 475 671 475 669 m 499 685 q 497 688 499 688 q 494 685 494 688 q 497 683 494 683 q 499 685 499 683 m 321 832 l 321 833 q 328 838 321 839 q 354 833 332 838 l 356 832 l 358 832 q 406 816 383 826 q 429 800 429 806 q 433 797 429 794 l 435 797 q 459 779 442 797 q 486 744 476 761 q 510 657 506 710 q 514 354 514 604 q 510 57 514 108 q 489 -29 507 6 q 425 -94 471 -67 q 340 -122 379 -122 q 317 -118 328 -122 q 301 -119 301 -112 q 294 -129 301 -126 q 156 -132 286 -132 l 24 -132 l 24 108 l 39 122 q 63 136 56 136 q 88 150 71 136 q 108 165 103 165 q 113 171 113 165 q 143 228 110 190 q 165 258 165 256 q 193 294 165 264 q 224 338 221 322 q 229 354 228 354 q 236 207 236 354 l 236 57 l 261 57 q 292 61 286 57 q 301 246 300 67 l 304 426 l 314 425 q 319 432 325 425 q 314 442 314 438 q 331 447 314 447 q 367 443 343 447 l 389 439 l 388 440 q 385 467 383 442 q 381 499 388 492 q 367 533 367 514 q 371 551 367 543 q 376 583 376 563 l 376 599 q 375 621 375 608 q 376 630 375 626 q 380 634 378 633 q 388 636 382 635 q 397 640 393 638 l 401 643 q 392 642 400 643 q 381 640 388 640 q 365 664 365 640 l 365 676 q 374 717 368 701 q 376 729 376 725 q 344 796 376 756 q 321 832 321 828 m 211 600 q 219 600 217 597 q 214 603 218 603 q 211 600 213 601 m 163 621 q 129 625 154 625 l 113 622 q 119 621 114 622 q 153 617 136 617 q 165 619 165 617 q 163 621 164 619 m 217 508 q 183 501 203 508 q 150 494 164 494 l 108 494 q 74 496 82 494 q 67 497 69 497 l 78 492 q 118 488 90 488 q 189 497 164 488 q 219 503 207 506 l 233 501 q 235 437 233 481 q 236 371 236 393 l 214 349 q 183 307 192 326 q 169 285 175 288 q 156 265 163 281 q 132 238 144 246 q 118 221 118 228 q 104 200 118 214 q 79 194 90 188 q 69 201 72 197 q 63 207 65 204 q 57 215 61 210 q 49 225 53 221 q 46 225 40 233 q 53 215 47 222 q 74 193 68 193 q 79 189 78 193 q 78 178 81 185 q 72 168 76 172 q 54 160 67 163 q 39 138 44 157 q 28 118 32 118 q 24 182 24 118 q 28 242 24 242 l 29 242 q 29 246 36 238 q 24 372 24 251 l 24 494 q 33 496 25 494 q 47 499 40 497 q 54 501 54 500 q 42 503 54 503 l 24 504 l 24 576 q 28 650 24 650 q 33 646 33 650 q 82 628 33 636 q 97 629 99 625 q 79 638 93 633 q 43 647 61 640 q 24 669 24 656 q 34 685 24 678 q 90 715 44 693 q 164 746 153 746 q 175 744 171 746 q 184 742 179 743 q 191 742 189 742 q 193 743 193 742 q 231 775 193 747 q 286 813 268 803 q 313 821 308 824 q 342 789 318 818 l 364 760 l 360 718 q 353 658 357 674 q 356 631 347 640 q 367 588 367 617 q 361 558 367 565 q 354 533 354 547 q 358 510 354 522 q 356 492 364 497 q 361 483 347 485 q 374 467 375 482 q 371 449 374 451 q 367 447 369 447 q 335 453 357 447 q 308 463 313 460 q 301 554 301 468 q 300 629 301 617 q 292 647 299 642 q 258 654 282 654 q 239 653 242 654 q 236 639 236 651 q 233 621 236 636 q 229 600 229 606 q 231 596 229 596 q 236 550 236 593 l 236 508 l 217 508 m 199 311 q 206 326 199 315 q 215 336 213 336 q 217 336 217 338 l 210 319 q 199 311 201 306 z "},"E":{"ha":503,"x_min":22,"x_max":478,"o":"m 26 835 q 67 838 29 838 l 103 838 l 106 824 q 111 775 111 790 q 96 753 111 763 q 56 724 85 747 q 28 708 33 706 q 22 782 22 711 q 26 835 22 831 m 151 58 q 149 61 151 61 q 146 58 146 61 q 149 57 146 57 q 151 58 151 57 m 142 142 q 143 132 142 132 q 144 150 147 136 q 142 142 143 147 m 165 258 q 167 254 165 254 q 168 263 169 257 q 165 258 167 261 m 343 336 q 339 347 356 342 l 329 349 q 319 347 322 349 q 322 343 313 344 q 332 343 326 342 q 342 339 343 343 q 343 336 338 332 m 301 349 q 296 353 301 353 q 300 343 293 351 q 301 349 301 343 m 403 358 q 403 363 406 363 l 393 358 q 392 354 382 354 q 403 358 400 354 m 82 406 q 69 410 78 410 l 68 408 q 83 393 68 406 q 107 376 97 381 q 118 365 118 371 q 96 333 118 358 q 61 300 74 307 q 47 290 47 292 q 61 294 47 289 q 98 327 74 300 q 122 361 122 354 q 133 368 122 368 q 131 372 147 368 q 82 406 119 375 m 54 417 q 39 424 44 424 q 42 418 26 424 q 49 415 44 417 l 58 414 q 54 417 58 414 m 47 553 q 44 556 47 556 q 43 553 43 556 q 44 551 43 551 q 47 553 47 551 m 338 665 q 326 681 335 681 q 324 679 325 681 q 329 667 321 675 q 338 661 338 660 q 338 665 339 661 m 113 835 q 294 838 113 838 l 475 838 l 475 772 q 469 706 475 706 q 469 701 464 706 q 474 676 478 696 l 469 654 l 357 656 l 243 654 q 240 546 240 649 l 240 507 l 240 447 l 443 447 l 443 263 l 342 265 l 240 267 l 240 57 l 475 57 l 475 -132 q 267 -131 406 -131 q 60 -129 129 -131 l 49 -115 q 39 -108 39 -104 l 47 -122 q 51 -128 51 -122 q 40 -132 51 -132 q 26 -125 31 -132 q 28 -108 22 -118 q 28 -96 33 -99 q 24 72 24 -94 q 32 263 24 236 q 35 282 36 281 q 26 282 29 276 q 24 397 24 288 q 24 460 24 439 q 25 493 24 481 q 28 508 26 506 q 33 511 29 510 q 42 525 42 514 q 41 531 42 531 q 39 526 40 532 q 32 519 35 521 q 25 601 25 522 l 24 682 l 44 700 q 115 739 89 739 q 147 708 124 739 l 171 678 l 168 639 q 160 578 165 606 q 163 549 153 554 q 174 508 174 540 q 168 478 174 488 q 160 449 160 461 q 165 426 160 436 q 164 410 171 414 q 168 406 156 406 q 182 379 189 406 q 164 367 178 367 l 149 367 l 165 361 q 196 357 185 354 q 199 361 211 358 q 192 379 189 363 l 192 386 q 182 424 192 404 q 172 453 172 444 q 176 468 172 458 q 183 513 183 485 q 179 542 183 533 q 185 551 174 551 q 206 557 194 551 q 210 563 213 563 l 199 561 l 192 561 q 172 586 172 561 l 172 600 q 179 633 175 629 q 183 647 183 638 q 151 714 183 675 q 115 797 115 758 q 117 807 115 804 q 116 824 119 814 q 113 835 113 833 z "},"e":{"ha":503,"x_min":22,"x_max":478,"o":"m 26 835 q 67 838 29 838 l 103 838 l 106 824 q 111 775 111 790 q 96 753 111 763 q 56 724 85 747 q 28 708 33 706 q 22 782 22 711 q 26 835 22 831 m 151 58 q 149 61 151 61 q 146 58 146 61 q 149 57 146 57 q 151 58 151 57 m 142 142 q 143 132 142 132 q 144 150 147 136 q 142 142 143 147 m 165 258 q 167 254 165 254 q 168 263 169 257 q 165 258 167 261 m 343 336 q 339 347 356 342 l 329 349 q 319 347 322 349 q 322 343 313 344 q 332 343 326 342 q 342 339 343 343 q 343 336 338 332 m 301 349 q 296 353 301 353 q 300 343 293 351 q 301 349 301 343 m 403 358 q 403 363 406 363 l 393 358 q 392 354 382 354 q 403 358 400 354 m 82 406 q 69 410 78 410 l 68 408 q 83 393 68 406 q 107 376 97 381 q 118 365 118 371 q 96 333 118 358 q 61 300 74 307 q 47 290 47 292 q 61 294 47 289 q 98 327 74 300 q 122 361 122 354 q 133 368 122 368 q 131 372 147 368 q 82 406 119 375 m 54 417 q 39 424 44 424 q 42 418 26 424 q 49 415 44 417 l 58 414 q 54 417 58 414 m 47 553 q 44 556 47 556 q 43 553 43 556 q 44 551 43 551 q 47 553 47 551 m 338 665 q 326 681 335 681 q 324 679 325 681 q 329 667 321 675 q 338 661 338 660 q 338 665 339 661 m 113 835 q 294 838 113 838 l 475 838 l 475 772 q 469 706 475 706 q 469 701 464 706 q 474 676 478 696 l 469 654 l 357 656 l 243 654 q 240 546 240 649 l 240 507 l 240 447 l 443 447 l 443 263 l 342 265 l 240 267 l 240 57 l 475 57 l 475 -132 q 267 -131 406 -131 q 60 -129 129 -131 l 49 -115 q 39 -108 39 -104 l 47 -122 q 51 -128 51 -122 q 40 -132 51 -132 q 26 -125 31 -132 q 28 -108 22 -118 q 28 -96 33 -99 q 24 72 24 -94 q 32 263 24 236 q 35 282 36 281 q 26 282 29 276 q 24 397 24 288 q 24 460 24 439 q 25 493 24 481 q 28 508 26 506 q 33 511 29 510 q 42 525 42 514 q 41 531 42 531 q 39 526 40 532 q 32 519 35 521 q 25 601 25 522 l 24 682 l 44 700 q 115 739 89 739 q 147 708 124 739 l 171 678 l 168 639 q 160 578 165 606 q 163 549 153 554 q 174 508 174 540 q 168 478 174 488 q 160 449 160 461 q 165 426 160 436 q 164 410 171 414 q 168 406 156 406 q 182 379 189 406 q 164 367 178 367 l 149 367 l 165 361 q 196 357 185 354 q 199 361 211 358 q 192 379 189 363 l 192 386 q 182 424 192 404 q 172 453 172 444 q 176 468 172 458 q 183 513 183 485 q 179 542 183 533 q 185 551 174 551 q 206 557 194 551 q 210 563 213 563 l 199 561 l 192 561 q 172 586 172 561 l 172 600 q 179 633 175 629 q 183 647 183 638 q 151 714 183 675 q 115 797 115 758 q 117 807 115 804 q 116 824 119 814 q 113 835 113 833 z "},"F":{"ha":508,"x_min":24,"x_max":475,"o":"m 68 500 q 72 499 69 499 q 71 504 74 501 q 68 503 69 504 q 68 500 67 501 m 226 582 q 224 583 226 583 q 221 582 221 583 q 224 579 221 579 q 226 582 226 579 m 217 592 q 206 613 217 599 q 193 625 194 626 q 200 608 192 624 q 217 592 210 592 m 160 678 q 161 675 160 675 q 164 682 165 678 q 161 682 163 683 q 160 678 160 681 m 142 726 q 132 732 132 739 q 140 725 132 731 q 142 726 147 719 m 128 756 q 122 756 128 764 q 122 750 121 751 q 128 756 128 753 m 160 775 q 158 776 160 776 q 156 775 156 776 q 158 772 156 772 q 160 775 160 772 m 36 778 q 49 779 43 775 l 43 781 l 35 779 l 36 778 m 213 792 q 216 792 213 792 q 228 796 219 792 q 231 800 236 800 q 214 796 222 800 q 213 792 206 792 m 329 821 q 340 821 333 818 q 335 824 339 824 l 328 822 l 329 821 m 318 824 q 319 824 318 824 q 321 826 321 824 q 318 829 321 829 q 315 826 315 829 q 318 824 315 824 m 25 833 q 151 838 29 838 l 275 838 l 264 825 l 251 813 l 265 824 q 291 834 275 832 q 378 838 307 836 l 475 839 l 475 768 q 471 697 475 697 q 467 690 467 697 q 438 669 467 685 l 410 654 l 240 654 l 240 463 q 215 458 228 458 q 188 461 210 458 q 154 463 158 467 q 140 457 149 457 q 114 468 128 457 q 101 475 101 479 q 101 472 101 475 q 86 465 101 464 q 57 460 72 468 q 35 451 43 451 q 24 467 24 451 q 28 490 24 475 q 30 502 29 496 q 29 508 31 508 q 24 764 24 511 q 25 833 24 832 m 458 671 q 475 667 475 682 q 461 654 475 654 q 458 671 435 654 m 197 318 q 207 319 204 314 q 204 326 210 325 q 199 325 201 326 q 197 318 193 321 m 181 407 q 176 419 178 419 q 174 415 175 419 q 176 405 174 410 q 179 399 178 400 l 181 404 l 181 407 m 49 442 q 97 456 63 456 q 128 451 115 456 q 157 451 146 446 q 175 454 160 454 q 213 451 196 454 q 292 447 250 447 q 339 433 325 447 q 363 419 353 419 q 431 385 389 419 q 442 367 440 376 q 443 318 443 358 l 443 264 l 240 264 l 240 200 q 239 136 240 136 l 236 138 q 227 140 232 139 q 218 143 222 142 q 149 149 203 149 q 86 144 103 149 q 71 147 71 142 q 78 158 71 156 q 79 167 85 161 q 67 150 69 168 q 42 129 67 129 q 32 132 38 129 q 25 156 26 135 q 24 285 24 176 q 31 433 24 433 q 49 442 35 433 m 365 435 l 351 447 l 443 447 l 443 419 q 439 390 443 390 q 421 400 436 390 q 394 417 413 407 q 365 435 375 426 m 75 -112 q 78 -117 75 -117 q 81 -114 81 -117 l 79 -110 q 76 -110 78 -108 q 75 -112 75 -111 m 81 64 q 78 65 81 65 q 75 64 75 65 q 78 61 75 61 q 81 64 81 61 m 90 128 q 135 132 99 132 q 229 124 213 132 l 240 117 q 239 -6 239 76 q 238 -129 239 -87 l 26 -129 l 25 -10 l 25 47 q 29 110 25 108 q 56 114 32 111 q 72 114 69 115 q 76 107 75 113 l 78 103 q 79 110 79 103 q 90 128 79 124 z "},"f":{"ha":508,"x_min":24,"x_max":475,"o":"m 68 500 q 72 499 69 499 q 71 504 74 501 q 68 503 69 504 q 68 500 67 501 m 226 582 q 224 583 226 583 q 221 582 221 583 q 224 579 221 579 q 226 582 226 579 m 217 592 q 206 613 217 599 q 193 625 194 626 q 200 608 192 624 q 217 592 210 592 m 160 678 q 161 675 160 675 q 164 682 165 678 q 161 682 163 683 q 160 678 160 681 m 142 726 q 132 732 132 739 q 140 725 132 731 q 142 726 147 719 m 128 756 q 122 756 128 764 q 122 750 121 751 q 128 756 128 753 m 160 775 q 158 776 160 776 q 156 775 156 776 q 158 772 156 772 q 160 775 160 772 m 36 778 q 49 779 43 775 l 43 781 l 35 779 l 36 778 m 213 792 q 216 792 213 792 q 228 796 219 792 q 231 800 236 800 q 214 796 222 800 q 213 792 206 792 m 329 821 q 340 821 333 818 q 335 824 339 824 l 328 822 l 329 821 m 318 824 q 319 824 318 824 q 321 826 321 824 q 318 829 321 829 q 315 826 315 829 q 318 824 315 824 m 25 833 q 151 838 29 838 l 275 838 l 264 825 l 251 813 l 265 824 q 291 834 275 832 q 378 838 307 836 l 475 839 l 475 768 q 471 697 475 697 q 467 690 467 697 q 438 669 467 685 l 410 654 l 240 654 l 240 463 q 215 458 228 458 q 188 461 210 458 q 154 463 158 467 q 140 457 149 457 q 114 468 128 457 q 101 475 101 479 q 101 472 101 475 q 86 465 101 464 q 57 460 72 468 q 35 451 43 451 q 24 467 24 451 q 28 490 24 475 q 30 502 29 496 q 29 508 31 508 q 24 764 24 511 q 25 833 24 832 m 458 671 q 475 667 475 682 q 461 654 475 654 q 458 671 435 654 m 197 318 q 207 319 204 314 q 204 326 210 325 q 199 325 201 326 q 197 318 193 321 m 181 407 q 176 419 178 419 q 174 415 175 419 q 176 405 174 410 q 179 399 178 400 l 181 404 l 181 407 m 49 442 q 97 456 63 456 q 128 451 115 456 q 157 451 146 446 q 175 454 160 454 q 213 451 196 454 q 292 447 250 447 q 339 433 325 447 q 363 419 353 419 q 431 385 389 419 q 442 367 440 376 q 443 318 443 358 l 443 264 l 240 264 l 240 200 q 239 136 240 136 l 236 138 q 227 140 232 139 q 218 143 222 142 q 149 149 203 149 q 86 144 103 149 q 71 147 71 142 q 78 158 71 156 q 79 167 85 161 q 67 150 69 168 q 42 129 67 129 q 32 132 38 129 q 25 156 26 135 q 24 285 24 176 q 31 433 24 433 q 49 442 35 433 m 365 435 l 351 447 l 443 447 l 443 419 q 439 390 443 390 q 421 400 436 390 q 394 417 413 407 q 365 435 375 426 m 75 -112 q 78 -117 75 -117 q 81 -114 81 -117 l 79 -110 q 76 -110 78 -108 q 75 -112 75 -111 m 81 64 q 78 65 81 65 q 75 64 75 65 q 78 61 75 61 q 81 64 81 61 m 90 128 q 135 132 99 132 q 229 124 213 132 l 240 117 q 239 -6 239 76 q 238 -129 239 -87 l 26 -129 l 25 -10 l 25 47 q 29 110 25 108 q 56 114 32 111 q 72 114 69 115 q 76 107 75 113 l 78 103 q 79 110 79 103 q 90 128 79 124 z "},"G":{"ha":546,"x_min":25,"x_max":521,"o":"m 231 -122 q 233 -114 242 -122 l 231 -112 q 226 -117 228 -112 q 231 -122 225 -122 m 132 -57 q 117 -49 115 -40 q 118 -53 117 -50 q 167 -88 125 -64 q 221 -112 210 -112 l 222 -112 q 215 -106 224 -108 q 132 -57 164 -89 m 161 88 q 147 101 157 101 q 122 96 139 101 l 104 90 l 128 93 l 153 94 l 160 75 l 167 61 l 167 63 q 161 88 167 71 m 410 207 q 411 207 410 207 q 413 210 413 207 q 410 213 413 213 q 407 210 407 213 q 410 207 407 207 m 418 213 q 418 206 418 207 l 419 218 q 418 213 418 217 m 413 231 q 415 228 413 225 q 415 233 418 231 q 413 234 414 235 q 413 231 413 233 m 174 240 l 175 228 q 175 251 179 240 q 174 240 174 246 m 407 264 q 410 260 407 260 q 413 263 413 260 q 411 267 413 265 q 408 267 410 268 q 407 264 407 265 m 178 265 q 183 269 179 264 q 188 280 186 274 q 190 288 190 286 q 182 281 189 293 q 178 265 175 268 m 60 285 q 61 281 60 281 l 63 289 l 61 290 l 60 285 m 397 293 q 393 304 397 304 q 390 297 390 304 q 399 279 390 286 q 404 278 404 276 q 397 293 397 288 m 192 303 q 194 306 193 301 l 197 321 q 192 313 194 321 q 192 303 190 304 m 107 311 l 117 319 l 113 319 q 71 306 85 319 q 75 301 68 301 q 107 311 90 301 m 413 511 q 410 513 413 513 q 407 511 407 513 q 410 508 407 508 q 413 511 413 508 m 389 536 l 390 531 q 392 543 394 536 q 389 536 390 539 m 213 546 q 214 549 214 546 q 213 551 214 551 q 210 549 210 551 q 213 546 210 546 m 375 572 l 376 565 l 378 581 q 375 572 376 578 m 211 576 q 211 564 211 564 l 213 590 q 211 576 211 583 m 356 614 q 346 619 346 626 q 354 611 346 617 q 356 614 364 603 m 342 642 q 343 644 350 644 q 335 640 338 644 q 338 633 333 636 q 339 635 340 632 q 342 642 336 639 m 210 657 q 211 653 210 653 l 213 661 l 213 663 q 210 657 210 661 m 204 661 q 203 664 204 664 q 200 661 200 664 q 203 660 200 660 q 204 661 204 660 m 382 664 q 385 668 385 667 q 375 664 385 672 q 374 660 371 660 q 382 664 381 660 m 224 676 q 218 675 224 682 l 217 672 q 218 671 215 669 q 224 676 224 674 m 460 690 l 458 692 q 414 675 414 678 l 417 675 l 422 675 q 446 682 432 676 q 460 690 460 688 m 476 703 q 482 714 485 711 q 478 713 481 715 q 474 706 475 710 q 469 698 469 699 q 476 703 469 697 m 167 689 q 140 709 157 699 q 117 719 122 719 l 115 718 q 138 701 115 717 q 172 679 160 686 q 179 676 179 675 l 167 689 m 219 746 q 221 742 219 742 l 222 750 l 222 751 q 219 746 219 750 m 218 771 q 218 779 221 774 q 215 774 215 779 q 218 771 217 772 m 215 810 q 217 800 215 800 q 218 818 221 804 q 215 810 217 815 m 210 842 q 260 853 210 853 q 353 844 311 853 q 511 706 483 815 q 521 578 521 667 l 521 485 l 475 485 q 431 489 431 485 q 422 497 431 492 q 415 492 415 494 q 363 485 415 485 l 308 485 l 308 567 q 299 660 308 650 q 269 668 290 668 l 268 668 q 247 655 250 668 q 243 567 243 642 q 239 482 243 486 q 239 450 235 478 q 242 417 242 428 q 228 356 242 376 l 222 346 q 226 350 222 346 q 239 354 238 358 q 242 203 242 351 q 249 49 244 56 q 267 43 254 43 q 281 38 281 43 q 294 43 281 32 l 308 54 l 308 264 l 261 264 l 261 293 q 269 331 261 324 q 313 340 282 340 q 349 336 332 340 q 376 338 372 331 q 406 340 379 343 q 435 338 431 338 q 469 349 454 338 q 488 357 481 357 q 508 344 496 357 l 521 331 l 519 175 q 511 15 518 25 q 497 10 507 10 l 494 10 q 457 21 488 10 q 361 35 421 35 q 290 26 315 35 q 271 19 289 26 q 258 18 268 18 q 223 24 244 18 q 187 36 201 29 q 172 46 172 43 q 119 51 172 51 q 81 47 83 51 q 68 43 76 42 q 57 51 60 44 q 46 67 56 57 q 41 69 42 69 q 44 63 40 69 q 47 57 46 58 q 50 35 56 40 q 49 28 44 29 q 56 7 53 28 q 74 -25 57 -11 q 106 -39 100 -46 q 102 -31 106 -36 q 95 -24 99 -26 q 90 -22 92 -21 q 88 -24 89 -24 q 75 -14 82 -24 q 68 1 68 -4 q 71 4 68 4 q 75 3 74 4 q 80 3 79 1 q 78 10 81 4 q 94 35 67 32 q 135 35 115 38 q 148 32 144 33 q 153 27 151 31 q 151 17 154 24 q 146 -7 150 13 l 147 -11 q 158 0 150 -10 l 174 15 l 203 8 q 261 0 233 0 q 304 10 290 0 q 340 18 315 18 l 375 18 q 461 -3 450 17 q 488 -6 464 -7 l 511 -3 l 506 -17 q 418 -115 479 -83 q 322 -140 368 -140 l 318 -140 q 296 -143 306 -139 q 282 -144 294 -144 q 182 -133 224 -144 q 36 7 63 -107 q 29 54 29 38 q 32 69 29 64 q 31 78 35 75 q 25 189 25 81 q 29 271 25 264 q 43 279 32 276 q 49 281 49 281 q 39 286 49 281 l 25 292 l 26 489 q 38 711 28 681 q 56 744 47 744 q 78 733 60 744 q 107 721 100 721 q 97 733 114 721 q 85 739 89 739 q 69 750 81 739 l 58 763 l 79 785 q 174 840 117 825 q 206 842 201 849 q 210 842 210 836 m 288 385 q 292 385 290 383 q 285 390 293 388 q 282 386 276 390 q 288 385 285 386 m 483 424 q 485 417 483 418 l 488 425 q 486 429 486 428 q 483 424 485 429 m 261 396 l 261 447 l 519 447 l 519 397 q 515 353 519 353 q 513 354 514 353 q 506 367 507 358 q 511 379 506 376 q 515 388 515 381 q 504 383 515 390 q 501 383 501 382 q 497 381 501 385 q 483 367 493 376 q 431 344 461 344 q 403 347 422 344 q 385 350 389 350 q 368 348 378 350 q 354 346 358 346 q 331 354 342 346 q 319 358 319 361 q 315 354 322 354 l 301 353 q 278 349 281 353 q 268 343 275 343 q 261 396 261 343 z "},"g":{"ha":546,"x_min":25,"x_max":521,"o":"m 231 -122 q 233 -114 242 -122 l 231 -112 q 226 -117 228 -112 q 231 -122 225 -122 m 132 -57 q 117 -49 115 -40 q 118 -53 117 -50 q 167 -88 125 -64 q 221 -112 210 -112 l 222 -112 q 215 -106 224 -108 q 132 -57 164 -89 m 161 88 q 147 101 157 101 q 122 96 139 101 l 104 90 l 128 93 l 153 94 l 160 75 l 167 61 l 167 63 q 161 88 167 71 m 410 207 q 411 207 410 207 q 413 210 413 207 q 410 213 413 213 q 407 210 407 213 q 410 207 407 207 m 418 213 q 418 206 418 207 l 419 218 q 418 213 418 217 m 413 231 q 415 228 413 225 q 415 233 418 231 q 413 234 414 235 q 413 231 413 233 m 174 240 l 175 228 q 175 251 179 240 q 174 240 174 246 m 407 264 q 410 260 407 260 q 413 263 413 260 q 411 267 413 265 q 408 267 410 268 q 407 264 407 265 m 178 265 q 183 269 179 264 q 188 280 186 274 q 190 288 190 286 q 182 281 189 293 q 178 265 175 268 m 60 285 q 61 281 60 281 l 63 289 l 61 290 l 60 285 m 397 293 q 393 304 397 304 q 390 297 390 304 q 399 279 390 286 q 404 278 404 276 q 397 293 397 288 m 192 303 q 194 306 193 301 l 197 321 q 192 313 194 321 q 192 303 190 304 m 107 311 l 117 319 l 113 319 q 71 306 85 319 q 75 301 68 301 q 107 311 90 301 m 413 511 q 410 513 413 513 q 407 511 407 513 q 410 508 407 508 q 413 511 413 508 m 389 536 l 390 531 q 392 543 394 536 q 389 536 390 539 m 213 546 q 214 549 214 546 q 213 551 214 551 q 210 549 210 551 q 213 546 210 546 m 375 572 l 376 565 l 378 581 q 375 572 376 578 m 211 576 q 211 564 211 564 l 213 590 q 211 576 211 583 m 356 614 q 346 619 346 626 q 354 611 346 617 q 356 614 364 603 m 342 642 q 343 644 350 644 q 335 640 338 644 q 338 633 333 636 q 339 635 340 632 q 342 642 336 639 m 210 657 q 211 653 210 653 l 213 661 l 213 663 q 210 657 210 661 m 204 661 q 203 664 204 664 q 200 661 200 664 q 203 660 200 660 q 204 661 204 660 m 382 664 q 385 668 385 667 q 375 664 385 672 q 374 660 371 660 q 382 664 381 660 m 224 676 q 218 675 224 682 l 217 672 q 218 671 215 669 q 224 676 224 674 m 460 690 l 458 692 q 414 675 414 678 l 417 675 l 422 675 q 446 682 432 676 q 460 690 460 688 m 476 703 q 482 714 485 711 q 478 713 481 715 q 474 706 475 710 q 469 698 469 699 q 476 703 469 697 m 167 689 q 140 709 157 699 q 117 719 122 719 l 115 718 q 138 701 115 717 q 172 679 160 686 q 179 676 179 675 l 167 689 m 219 746 q 221 742 219 742 l 222 750 l 222 751 q 219 746 219 750 m 218 771 q 218 779 221 774 q 215 774 215 779 q 218 771 217 772 m 215 810 q 217 800 215 800 q 218 818 221 804 q 215 810 217 815 m 210 842 q 260 853 210 853 q 353 844 311 853 q 511 706 483 815 q 521 578 521 667 l 521 485 l 475 485 q 431 489 431 485 q 422 497 431 492 q 415 492 415 494 q 363 485 415 485 l 308 485 l 308 567 q 299 660 308 650 q 269 668 290 668 l 268 668 q 247 655 250 668 q 243 567 243 642 q 239 482 243 486 q 239 450 235 478 q 242 417 242 428 q 228 356 242 376 l 222 346 q 226 350 222 346 q 239 354 238 358 q 242 203 242 351 q 249 49 244 56 q 267 43 254 43 q 281 38 281 43 q 294 43 281 32 l 308 54 l 308 264 l 261 264 l 261 293 q 269 331 261 324 q 313 340 282 340 q 349 336 332 340 q 376 338 372 331 q 406 340 379 343 q 435 338 431 338 q 469 349 454 338 q 488 357 481 357 q 508 344 496 357 l 521 331 l 519 175 q 511 15 518 25 q 497 10 507 10 l 494 10 q 457 21 488 10 q 361 35 421 35 q 290 26 315 35 q 271 19 289 26 q 258 18 268 18 q 223 24 244 18 q 187 36 201 29 q 172 46 172 43 q 119 51 172 51 q 81 47 83 51 q 68 43 76 42 q 57 51 60 44 q 46 67 56 57 q 41 69 42 69 q 44 63 40 69 q 47 57 46 58 q 50 35 56 40 q 49 28 44 29 q 56 7 53 28 q 74 -25 57 -11 q 106 -39 100 -46 q 102 -31 106 -36 q 95 -24 99 -26 q 90 -22 92 -21 q 88 -24 89 -24 q 75 -14 82 -24 q 68 1 68 -4 q 71 4 68 4 q 75 3 74 4 q 80 3 79 1 q 78 10 81 4 q 94 35 67 32 q 135 35 115 38 q 148 32 144 33 q 153 27 151 31 q 151 17 154 24 q 146 -7 150 13 l 147 -11 q 158 0 150 -10 l 174 15 l 203 8 q 261 0 233 0 q 304 10 290 0 q 340 18 315 18 l 375 18 q 461 -3 450 17 q 488 -6 464 -7 l 511 -3 l 506 -17 q 418 -115 479 -83 q 322 -140 368 -140 l 318 -140 q 296 -143 306 -139 q 282 -144 294 -144 q 182 -133 224 -144 q 36 7 63 -107 q 29 54 29 38 q 32 69 29 64 q 31 78 35 75 q 25 189 25 81 q 29 271 25 264 q 43 279 32 276 q 49 281 49 281 q 39 286 49 281 l 25 292 l 26 489 q 38 711 28 681 q 56 744 47 744 q 78 733 60 744 q 107 721 100 721 q 97 733 114 721 q 85 739 89 739 q 69 750 81 739 l 58 763 l 79 785 q 174 840 117 825 q 206 842 201 849 q 210 842 210 836 m 288 385 q 292 385 290 383 q 285 390 293 388 q 282 386 276 390 q 288 385 285 386 m 483 424 q 485 417 483 418 l 488 425 q 486 429 486 428 q 483 424 485 429 m 261 396 l 261 447 l 519 447 l 519 397 q 515 353 519 353 q 513 354 514 353 q 506 367 507 358 q 511 379 506 376 q 515 388 515 381 q 504 383 515 390 q 501 383 501 382 q 497 381 501 385 q 483 367 493 376 q 431 344 461 344 q 403 347 422 344 q 385 350 389 350 q 368 348 378 350 q 354 346 358 346 q 331 354 342 346 q 319 358 319 361 q 315 354 322 354 l 301 353 q 278 349 281 353 q 268 343 275 343 q 261 396 261 343 z "},"H":{"ha":543,"x_min":24,"x_max":518,"o":"m 64 -94 q 65 -94 64 -94 q 67 -92 67 -94 q 64 -89 67 -89 q 61 -92 61 -89 q 64 -94 61 -94 m 81 -49 q 83 -40 86 -43 q 81 -41 82 -39 q 78 -46 79 -43 q 77 -51 76 -51 q 81 -49 78 -51 m 475 -11 q 474 -10 475 -10 q 471 -11 471 -10 q 474 -14 471 -14 q 475 -11 475 -14 m 82 -10 q 85 -7 85 -10 q 82 -4 85 -4 q 81 -7 81 -4 q 82 -10 81 -10 m 461 -4 q 457 0 461 0 q 460 -10 451 -1 q 461 -4 461 -10 m 403 31 q 388 42 389 43 q 393 32 385 40 q 414 17 399 25 q 433 8 429 8 l 435 8 q 433 11 435 10 q 421 19 428 19 q 403 31 414 19 m 76 33 q 78 58 85 53 q 75 58 76 60 q 71 38 71 56 q 72 25 71 25 q 76 33 74 25 m 78 65 q 79 65 78 65 q 81 68 81 65 q 78 71 81 71 q 75 68 75 71 q 78 65 75 65 m 75 82 q 74 85 75 85 q 71 82 71 85 q 74 81 71 81 q 75 82 75 81 m 81 110 q 81 106 81 106 l 83 115 l 83 117 q 81 110 82 113 m 99 149 q 93 147 99 154 q 92 144 93 146 q 93 143 90 142 q 99 149 99 146 m 197 196 q 196 197 197 197 q 193 196 193 197 q 196 193 193 193 q 197 196 197 193 m 129 217 q 156 207 153 207 q 156 213 163 207 q 139 217 149 217 l 129 217 m 100 175 q 104 213 104 175 l 103 224 q 99 193 99 225 q 100 175 99 175 m 431 244 q 433 247 433 244 q 431 250 433 250 q 429 247 429 250 q 431 244 429 244 m 433 257 q 431 258 433 258 q 429 257 429 258 q 431 254 429 254 q 433 257 433 254 m 71 275 q 68 278 71 278 q 67 275 67 278 q 68 274 67 274 q 71 275 71 274 m 439 281 q 442 289 444 286 q 438 286 440 290 q 436 283 436 285 q 435 278 435 278 q 439 281 436 278 m 282 296 q 263 295 272 289 q 250 301 254 301 q 257 293 240 301 q 282 285 269 288 q 292 288 292 285 q 299 292 290 292 q 306 288 307 290 q 321 283 314 285 l 335 285 l 329 286 q 319 291 325 288 q 307 297 313 294 q 296 299 301 299 q 282 296 293 299 m 386 314 l 381 315 q 358 303 358 314 q 386 314 358 293 m 165 349 l 168 344 q 168 351 171 349 q 166 351 167 353 q 165 349 165 350 m 169 360 q 167 363 169 363 q 165 360 165 363 q 167 358 165 358 q 169 360 169 358 m 153 364 q 158 364 156 361 q 156 367 161 367 q 153 364 150 367 m 457 492 q 458 488 457 488 l 460 496 l 460 497 q 457 492 457 496 m 457 565 l 460 561 q 460 568 463 565 q 458 568 458 569 q 457 565 457 567 m 497 572 l 492 574 q 488 572 488 574 l 496 571 l 497 572 m 438 582 q 436 583 438 583 q 433 582 433 583 q 436 579 433 579 q 438 582 438 579 m 417 600 q 397 606 397 613 q 403 600 397 604 q 421 588 408 596 q 429 588 429 583 q 417 600 426 593 m 365 628 q 338 650 342 643 q 327 654 331 660 q 332 644 324 649 q 336 635 339 640 q 338 632 335 632 q 383 615 378 615 q 365 628 383 617 m 463 668 q 464 660 463 660 l 465 676 q 463 668 464 674 m 457 722 q 458 718 457 718 l 460 726 l 460 728 q 457 722 457 726 m 190 726 q 183 735 188 735 q 186 725 175 735 q 192 722 192 719 q 190 726 192 722 m 335 124 q 338 111 335 119 q 342 93 342 103 q 354 63 343 78 q 375 47 365 47 q 374 57 386 47 q 364 61 369 60 q 353 74 353 67 q 354 78 353 76 q 357 78 356 79 q 360 86 361 76 q 360 96 358 93 q 372 101 363 99 q 388 103 376 103 q 418 94 418 103 q 408 64 418 89 l 419 76 q 451 85 431 88 q 496 81 485 81 l 518 81 q 517 -24 517 46 q 515 -129 517 -94 q 410 -131 481 -131 q 306 -132 340 -131 l 306 3 q 308 136 306 136 q 322 132 314 136 q 328 129 326 129 l 321 136 q 310 153 313 143 q 306 203 307 163 l 304 261 l 238 261 l 236 222 q 235 204 236 211 q 234 192 235 197 q 232 186 233 188 q 229 185 231 185 q 217 189 222 188 q 209 191 213 190 q 204 191 206 192 q 203 189 203 190 q 207 185 203 185 q 222 182 208 185 l 236 178 l 236 -132 q 131 -131 201 -131 q 26 -129 61 -131 l 25 69 l 25 193 q 33 282 25 271 q 44 293 40 292 q 56 289 47 294 l 68 282 l 57 292 q 50 308 47 299 q 82 313 53 315 q 106 308 96 311 q 121 304 115 304 q 125 305 122 304 q 132 306 128 306 q 140 307 136 307 q 163 310 157 310 q 190 304 175 310 q 224 299 217 296 q 218 301 225 300 q 199 307 204 301 q 161 313 194 313 l 129 313 l 129 340 q 136 368 129 368 q 133 372 142 368 q 117 391 125 375 q 108 418 108 407 q 115 440 108 429 q 122 489 122 454 q 118 522 122 514 q 119 533 115 529 q 136 536 124 536 q 151 544 146 536 q 154 550 156 550 q 139 546 153 550 q 118 546 126 542 q 110 567 110 550 q 111 590 110 579 q 118 635 114 631 q 121 647 121 640 q 111 692 121 672 q 81 732 104 703 q 44 821 51 767 l 42 838 l 97 839 q 149 840 114 839 q 194 842 183 842 l 236 843 l 236 779 q 229 715 236 715 q 229 713 221 715 q 236 647 236 710 q 228 583 236 583 q 221 579 221 583 q 201 569 221 575 q 174 556 183 565 l 174 554 q 196 560 179 557 q 218 568 213 564 q 232 575 228 575 q 236 511 236 575 l 236 447 q 270 449 247 447 q 304 450 293 450 l 306 557 q 313 661 307 661 q 315 660 314 661 l 313 664 q 306 757 306 671 l 306 843 l 518 843 l 518 343 l 501 336 q 485 324 485 328 q 488 320 485 321 q 496 321 492 319 q 501 325 500 322 q 511 329 503 329 q 518 271 518 329 l 518 217 l 517 104 q 493 94 494 94 q 439 106 490 94 q 425 129 431 108 q 417 147 421 143 q 406 150 414 150 q 386 146 392 150 q 386 143 382 143 q 396 144 389 143 q 419 135 415 147 q 424 119 424 125 q 386 111 424 111 q 340 119 347 111 q 335 124 335 125 m 24 807 q 28 838 24 838 q 35 792 32 838 q 29 778 35 781 q 25 786 25 776 q 24 807 24 793 m 29 754 q 39 756 32 756 q 76 722 50 756 q 100 688 96 697 q 104 663 104 679 q 92 554 104 607 q 99 532 89 542 q 108 486 108 522 q 101 440 108 450 q 94 419 94 431 q 100 390 94 415 q 96 365 104 371 q 90 359 89 360 q 101 361 92 358 q 119 351 117 364 q 119 326 122 339 q 114 317 118 318 q 94 318 110 315 q 32 338 47 325 q 25 373 26 343 q 24 549 24 403 q 29 754 24 753 m 24 307 q 25 327 24 325 q 35 326 26 329 q 33 297 51 319 l 24 285 l 24 307 z "},"h":{"ha":543,"x_min":24,"x_max":518,"o":"m 64 -94 q 65 -94 64 -94 q 67 -92 67 -94 q 64 -89 67 -89 q 61 -92 61 -89 q 64 -94 61 -94 m 81 -49 q 83 -40 86 -43 q 81 -41 82 -39 q 78 -46 79 -43 q 77 -51 76 -51 q 81 -49 78 -51 m 475 -11 q 474 -10 475 -10 q 471 -11 471 -10 q 474 -14 471 -14 q 475 -11 475 -14 m 82 -10 q 85 -7 85 -10 q 82 -4 85 -4 q 81 -7 81 -4 q 82 -10 81 -10 m 461 -4 q 457 0 461 0 q 460 -10 451 -1 q 461 -4 461 -10 m 403 31 q 388 42 389 43 q 393 32 385 40 q 414 17 399 25 q 433 8 429 8 l 435 8 q 433 11 435 10 q 421 19 428 19 q 403 31 414 19 m 76 33 q 78 58 85 53 q 75 58 76 60 q 71 38 71 56 q 72 25 71 25 q 76 33 74 25 m 78 65 q 79 65 78 65 q 81 68 81 65 q 78 71 81 71 q 75 68 75 71 q 78 65 75 65 m 75 82 q 74 85 75 85 q 71 82 71 85 q 74 81 71 81 q 75 82 75 81 m 81 110 q 81 106 81 106 l 83 115 l 83 117 q 81 110 82 113 m 99 149 q 93 147 99 154 q 92 144 93 146 q 93 143 90 142 q 99 149 99 146 m 197 196 q 196 197 197 197 q 193 196 193 197 q 196 193 193 193 q 197 196 197 193 m 129 217 q 156 207 153 207 q 156 213 163 207 q 139 217 149 217 l 129 217 m 100 175 q 104 213 104 175 l 103 224 q 99 193 99 225 q 100 175 99 175 m 431 244 q 433 247 433 244 q 431 250 433 250 q 429 247 429 250 q 431 244 429 244 m 433 257 q 431 258 433 258 q 429 257 429 258 q 431 254 429 254 q 433 257 433 254 m 71 275 q 68 278 71 278 q 67 275 67 278 q 68 274 67 274 q 71 275 71 274 m 439 281 q 442 289 444 286 q 438 286 440 290 q 436 283 436 285 q 435 278 435 278 q 439 281 436 278 m 282 296 q 263 295 272 289 q 250 301 254 301 q 257 293 240 301 q 282 285 269 288 q 292 288 292 285 q 299 292 290 292 q 306 288 307 290 q 321 283 314 285 l 335 285 l 329 286 q 319 291 325 288 q 307 297 313 294 q 296 299 301 299 q 282 296 293 299 m 386 314 l 381 315 q 358 303 358 314 q 386 314 358 293 m 165 349 l 168 344 q 168 351 171 349 q 166 351 167 353 q 165 349 165 350 m 169 360 q 167 363 169 363 q 165 360 165 363 q 167 358 165 358 q 169 360 169 358 m 153 364 q 158 364 156 361 q 156 367 161 367 q 153 364 150 367 m 457 492 q 458 488 457 488 l 460 496 l 460 497 q 457 492 457 496 m 457 565 l 460 561 q 460 568 463 565 q 458 568 458 569 q 457 565 457 567 m 497 572 l 492 574 q 488 572 488 574 l 496 571 l 497 572 m 438 582 q 436 583 438 583 q 433 582 433 583 q 436 579 433 579 q 438 582 438 579 m 417 600 q 397 606 397 613 q 403 600 397 604 q 421 588 408 596 q 429 588 429 583 q 417 600 426 593 m 365 628 q 338 650 342 643 q 327 654 331 660 q 332 644 324 649 q 336 635 339 640 q 338 632 335 632 q 383 615 378 615 q 365 628 383 617 m 463 668 q 464 660 463 660 l 465 676 q 463 668 464 674 m 457 722 q 458 718 457 718 l 460 726 l 460 728 q 457 722 457 726 m 190 726 q 183 735 188 735 q 186 725 175 735 q 192 722 192 719 q 190 726 192 722 m 335 124 q 338 111 335 119 q 342 93 342 103 q 354 63 343 78 q 375 47 365 47 q 374 57 386 47 q 364 61 369 60 q 353 74 353 67 q 354 78 353 76 q 357 78 356 79 q 360 86 361 76 q 360 96 358 93 q 372 101 363 99 q 388 103 376 103 q 418 94 418 103 q 408 64 418 89 l 419 76 q 451 85 431 88 q 496 81 485 81 l 518 81 q 517 -24 517 46 q 515 -129 517 -94 q 410 -131 481 -131 q 306 -132 340 -131 l 306 3 q 308 136 306 136 q 322 132 314 136 q 328 129 326 129 l 321 136 q 310 153 313 143 q 306 203 307 163 l 304 261 l 238 261 l 236 222 q 235 204 236 211 q 234 192 235 197 q 232 186 233 188 q 229 185 231 185 q 217 189 222 188 q 209 191 213 190 q 204 191 206 192 q 203 189 203 190 q 207 185 203 185 q 222 182 208 185 l 236 178 l 236 -132 q 131 -131 201 -131 q 26 -129 61 -131 l 25 69 l 25 193 q 33 282 25 271 q 44 293 40 292 q 56 289 47 294 l 68 282 l 57 292 q 50 308 47 299 q 82 313 53 315 q 106 308 96 311 q 121 304 115 304 q 125 305 122 304 q 132 306 128 306 q 140 307 136 307 q 163 310 157 310 q 190 304 175 310 q 224 299 217 296 q 218 301 225 300 q 199 307 204 301 q 161 313 194 313 l 129 313 l 129 340 q 136 368 129 368 q 133 372 142 368 q 117 391 125 375 q 108 418 108 407 q 115 440 108 429 q 122 489 122 454 q 118 522 122 514 q 119 533 115 529 q 136 536 124 536 q 151 544 146 536 q 154 550 156 550 q 139 546 153 550 q 118 546 126 542 q 110 567 110 550 q 111 590 110 579 q 118 635 114 631 q 121 647 121 640 q 111 692 121 672 q 81 732 104 703 q 44 821 51 767 l 42 838 l 97 839 q 149 840 114 839 q 194 842 183 842 l 236 843 l 236 779 q 229 715 236 715 q 229 713 221 715 q 236 647 236 710 q 228 583 236 583 q 221 579 221 583 q 201 569 221 575 q 174 556 183 565 l 174 554 q 196 560 179 557 q 218 568 213 564 q 232 575 228 575 q 236 511 236 575 l 236 447 q 270 449 247 447 q 304 450 293 450 l 306 557 q 313 661 307 661 q 315 660 314 661 l 313 664 q 306 757 306 671 l 306 843 l 518 843 l 518 343 l 501 336 q 485 324 485 328 q 488 320 485 321 q 496 321 492 319 q 501 325 500 322 q 511 329 503 329 q 518 271 518 329 l 518 217 l 517 104 q 493 94 494 94 q 439 106 490 94 q 425 129 431 108 q 417 147 421 143 q 406 150 414 150 q 386 146 392 150 q 386 143 382 143 q 396 144 389 143 q 419 135 415 147 q 424 119 424 125 q 386 111 424 111 q 340 119 347 111 q 335 124 335 125 m 24 807 q 28 838 24 838 q 35 792 32 838 q 29 778 35 781 q 25 786 25 776 q 24 807 24 793 m 29 754 q 39 756 32 756 q 76 722 50 756 q 100 688 96 697 q 104 663 104 679 q 92 554 104 607 q 99 532 89 542 q 108 486 108 522 q 101 440 108 450 q 94 419 94 431 q 100 390 94 415 q 96 365 104 371 q 90 359 89 360 q 101 361 92 358 q 119 351 117 364 q 119 326 122 339 q 114 317 118 318 q 94 318 110 315 q 32 338 47 325 q 25 373 26 343 q 24 549 24 403 q 29 754 24 753 m 24 307 q 25 327 24 325 q 35 326 26 329 q 33 297 51 319 l 24 285 l 24 307 z "},"I":{"ha":261,"x_min":24,"x_max":236,"o":"m 24 757 l 24 843 l 178 843 l 178 824 q 181 786 178 796 q 182 776 182 782 q 158 753 182 769 q 94 707 132 738 q 47 678 58 678 q 31 675 39 678 l 29 675 q 24 757 24 675 m 190 831 q 192 837 192 835 q 196 841 193 839 q 202 843 199 843 q 214 843 206 843 l 236 843 l 236 776 q 232 711 236 711 q 206 754 222 711 q 189 822 189 797 q 190 826 189 824 q 190 831 190 829 m 86 443 q 88 465 89 464 l 82 450 l 82 447 l 79 428 l 57 431 l 43 429 l 47 428 q 71 424 68 424 q 81 427 79 424 q 86 443 83 431 m 82 513 q 85 515 85 513 q 82 518 85 518 q 81 515 81 518 q 82 513 81 513 m 58 536 q 61 539 61 536 q 58 542 61 542 q 57 539 57 542 q 58 536 57 536 m 54 551 q 49 560 58 551 q 54 551 46 560 m 38 582 q 35 583 38 583 q 33 582 33 583 q 35 579 33 579 q 38 582 38 579 m 151 725 q 189 739 176 739 q 217 714 197 739 l 236 689 l 236 456 q 229 221 236 221 q 189 234 211 221 q 151 261 167 247 q 132 275 135 275 l 131 275 q 114 282 128 272 q 81 296 97 296 l 79 296 q 103 281 79 292 q 153 247 136 264 q 172 231 169 231 q 186 224 179 231 q 192 216 193 219 q 183 201 192 213 q 107 121 143 144 q 53 75 82 104 l 24 44 q 25 166 25 85 q 26 289 25 247 l 47 296 l 68 301 l 46 300 l 24 297 l 24 365 q 29 433 24 433 q 29 438 36 433 q 24 504 24 443 l 24 540 l 25 639 l 42 649 q 90 685 49 653 q 151 725 126 713 m 222 -54 q 224 -58 222 -58 l 225 -50 l 224 -49 l 222 -54 m 221 167 q 219 169 221 169 q 217 167 217 169 q 219 165 217 165 q 221 167 221 165 m 214 174 q 217 176 217 174 q 214 179 217 179 q 213 176 213 179 q 214 174 213 174 m 197 208 q 219 218 203 219 l 235 215 l 235 43 q 232 -125 235 -125 q 229 -97 229 -125 l 228 -81 q 226 -85 228 -82 q 222 -111 222 -106 l 221 -128 l 24 -128 l 24 -1 l 42 18 q 68 63 61 38 q 111 115 82 104 q 158 157 124 119 q 196 189 189 189 q 200 188 199 189 q 207 185 207 185 q 201 190 207 185 q 197 208 193 197 m 35 19 l 32 19 q 28 22 28 19 q 42 47 28 29 q 60 64 57 64 q 56 53 61 64 q 44 31 51 42 q 35 19 36 19 z "},"i":{"ha":261,"x_min":24,"x_max":236,"o":"m 24 757 l 24 843 l 178 843 l 178 824 q 181 786 178 796 q 182 776 182 782 q 158 753 182 769 q 94 707 132 738 q 47 678 58 678 q 31 675 39 678 l 29 675 q 24 757 24 675 m 190 831 q 192 837 192 835 q 196 841 193 839 q 202 843 199 843 q 214 843 206 843 l 236 843 l 236 776 q 232 711 236 711 q 206 754 222 711 q 189 822 189 797 q 190 826 189 824 q 190 831 190 829 m 86 443 q 88 465 89 464 l 82 450 l 82 447 l 79 428 l 57 431 l 43 429 l 47 428 q 71 424 68 424 q 81 427 79 424 q 86 443 83 431 m 82 513 q 85 515 85 513 q 82 518 85 518 q 81 515 81 518 q 82 513 81 513 m 58 536 q 61 539 61 536 q 58 542 61 542 q 57 539 57 542 q 58 536 57 536 m 54 551 q 49 560 58 551 q 54 551 46 560 m 38 582 q 35 583 38 583 q 33 582 33 583 q 35 579 33 579 q 38 582 38 579 m 151 725 q 189 739 176 739 q 217 714 197 739 l 236 689 l 236 456 q 229 221 236 221 q 189 234 211 221 q 151 261 167 247 q 132 275 135 275 l 131 275 q 114 282 128 272 q 81 296 97 296 l 79 296 q 103 281 79 292 q 153 247 136 264 q 172 231 169 231 q 186 224 179 231 q 192 216 193 219 q 183 201 192 213 q 107 121 143 144 q 53 75 82 104 l 24 44 q 25 166 25 85 q 26 289 25 247 l 47 296 l 68 301 l 46 300 l 24 297 l 24 365 q 29 433 24 433 q 29 438 36 433 q 24 504 24 443 l 24 540 l 25 639 l 42 649 q 90 685 49 653 q 151 725 126 713 m 222 -54 q 224 -58 222 -58 l 225 -50 l 224 -49 l 222 -54 m 221 167 q 219 169 221 169 q 217 167 217 169 q 219 165 217 165 q 221 167 221 165 m 214 174 q 217 176 217 174 q 214 179 217 179 q 213 176 213 179 q 214 174 213 174 m 197 208 q 219 218 203 219 l 235 215 l 235 43 q 232 -125 235 -125 q 229 -97 229 -125 l 228 -81 q 226 -85 228 -82 q 222 -111 222 -106 l 221 -128 l 24 -128 l 24 -1 l 42 18 q 68 63 61 38 q 111 115 82 104 q 158 157 124 119 q 196 189 189 189 q 200 188 199 189 q 207 185 207 185 q 201 190 207 185 q 197 208 193 197 m 35 19 l 32 19 q 28 22 28 19 q 42 47 28 29 q 60 64 57 64 q 56 53 61 64 q 44 31 51 42 q 35 19 36 19 z "},"J":{"ha":551,"x_min":32,"x_max":526,"o":"m 314 819 q 321 843 314 843 q 329 839 329 843 q 331 826 329 836 q 332 810 333 817 q 325 801 331 804 q 316 800 318 797 q 314 819 314 803 m 503 204 q 500 207 503 207 q 499 204 499 207 q 500 203 499 203 q 503 204 503 203 m 507 214 q 506 217 507 217 q 503 214 503 217 q 506 213 503 213 q 507 214 507 213 m 513 229 q 503 240 513 235 q 485 244 493 244 q 488 240 478 244 l 492 239 q 508 229 506 235 q 513 229 513 222 m 346 839 q 436 842 349 842 l 524 840 l 525 678 l 525 597 q 518 504 525 514 l 514 496 q 518 499 515 496 l 521 500 q 526 340 526 500 l 526 175 l 490 172 q 451 172 454 169 q 456 182 450 174 q 458 217 461 188 q 467 246 456 244 l 472 247 q 464 249 471 249 q 439 275 451 249 q 428 313 428 294 q 443 354 428 324 q 447 389 447 363 q 439 453 447 436 l 432 468 q 489 485 482 479 l 500 494 l 475 488 q 453 483 461 483 q 428 500 436 483 q 425 517 424 507 q 432 528 426 528 q 433 558 436 528 q 433 569 433 563 q 432 578 432 575 q 439 606 432 592 q 444 626 444 617 q 442 649 444 629 q 381 750 435 686 q 350 807 357 776 q 346 839 344 836 m 317 769 q 338 774 331 774 q 374 740 347 774 q 377 735 375 738 q 381 730 379 733 q 386 724 383 726 q 417 681 413 690 q 424 647 422 671 l 424 633 q 415 560 424 610 q 406 493 407 511 q 410 471 403 471 q 428 401 425 471 l 428 381 q 421 350 428 358 q 411 314 411 339 q 418 275 411 292 q 421 267 419 271 q 423 260 422 263 q 424 255 424 257 q 424 251 424 253 l 424 250 q 408 240 421 250 l 397 231 l 415 236 q 439 235 432 242 q 443 201 443 231 q 440 175 443 181 q 435 174 438 174 q 346 190 392 174 q 328 197 331 196 q 321 214 326 199 q 315 256 315 229 q 315 343 315 283 l 315 492 l 317 769 m 314 165 q 317 193 314 193 q 332 187 321 193 q 343 178 343 181 q 331 156 343 175 q 317 136 318 136 q 314 165 314 136 m 408 -58 q 403 -60 408 -53 l 401 -62 q 403 -64 400 -65 q 408 -58 408 -61 m 418 -19 q 419 -1 419 -12 q 417 11 419 11 q 414 -14 414 11 l 414 -44 l 418 -19 m 489 28 q 490 36 497 28 q 486 38 488 38 q 483 33 483 38 q 489 28 483 28 m 465 35 q 463 38 465 38 q 460 35 460 38 q 463 33 460 33 q 465 35 465 33 m 417 26 q 420 35 417 29 q 424 43 424 40 q 421 49 425 46 q 415 47 417 50 q 414 33 414 43 l 415 24 l 417 26 m 394 74 q 392 75 394 75 q 390 74 390 75 q 392 71 390 71 q 394 74 394 71 m 349 167 q 357 179 354 179 q 400 171 365 179 q 438 160 435 163 q 468 163 440 154 q 503 167 485 167 l 511 167 l 526 164 l 526 107 q 469 -81 526 -24 q 426 -112 453 -97 q 388 -128 400 -128 q 388 -118 379 -128 q 393 -100 396 -107 q 391 -95 392 -94 q 390 -101 390 -96 q 377 -124 389 -114 q 350 -137 365 -135 q 289 -140 336 -140 q 197 -135 225 -140 q 147 -119 172 -129 q 121 -103 121 -108 q 151 -72 121 -100 q 190 -26 174 -53 q 206 15 206 0 q 215 35 206 22 q 235 53 225 47 q 256 50 243 58 q 281 43 264 43 q 303 49 296 43 q 314 86 313 54 q 324 125 315 107 q 344 143 332 143 q 351 142 349 143 q 368 124 360 138 q 375 117 374 115 q 360 139 375 124 q 349 167 343 153 m 32 106 l 32 160 l 244 160 l 244 114 q 242 72 244 79 q 231 58 240 64 q 179 8 221 53 q 136 -53 142 -33 q 119 -85 131 -74 q 106 -92 113 -92 q 78 -69 94 -92 q 32 106 32 -8 m 176 -10 q 189 3 185 3 q 190 -1 190 3 q 183 -22 190 -10 q 158 -51 172 -47 q 156 -49 156 -53 q 176 -10 156 -36 z "},"j":{"ha":551,"x_min":32,"x_max":526,"o":"m 314 819 q 321 843 314 843 q 329 839 329 843 q 331 826 329 836 q 332 810 333 817 q 325 801 331 804 q 316 800 318 797 q 314 819 314 803 m 503 204 q 500 207 503 207 q 499 204 499 207 q 500 203 499 203 q 503 204 503 203 m 507 214 q 506 217 507 217 q 503 214 503 217 q 506 213 503 213 q 507 214 507 213 m 513 229 q 503 240 513 235 q 485 244 493 244 q 488 240 478 244 l 492 239 q 508 229 506 235 q 513 229 513 222 m 346 839 q 436 842 349 842 l 524 840 l 525 678 l 525 597 q 518 504 525 514 l 514 496 q 518 499 515 496 l 521 500 q 526 340 526 500 l 526 175 l 490 172 q 451 172 454 169 q 456 182 450 174 q 458 217 461 188 q 467 246 456 244 l 472 247 q 464 249 471 249 q 439 275 451 249 q 428 313 428 294 q 443 354 428 324 q 447 389 447 363 q 439 453 447 436 l 432 468 q 489 485 482 479 l 500 494 l 475 488 q 453 483 461 483 q 428 500 436 483 q 425 517 424 507 q 432 528 426 528 q 433 558 436 528 q 433 569 433 563 q 432 578 432 575 q 439 606 432 592 q 444 626 444 617 q 442 649 444 629 q 381 750 435 686 q 350 807 357 776 q 346 839 344 836 m 317 769 q 338 774 331 774 q 374 740 347 774 q 377 735 375 738 q 381 730 379 733 q 386 724 383 726 q 417 681 413 690 q 424 647 422 671 l 424 633 q 415 560 424 610 q 406 493 407 511 q 410 471 403 471 q 428 401 425 471 l 428 381 q 421 350 428 358 q 411 314 411 339 q 418 275 411 292 q 421 267 419 271 q 423 260 422 263 q 424 255 424 257 q 424 251 424 253 l 424 250 q 408 240 421 250 l 397 231 l 415 236 q 439 235 432 242 q 443 201 443 231 q 440 175 443 181 q 435 174 438 174 q 346 190 392 174 q 328 197 331 196 q 321 214 326 199 q 315 256 315 229 q 315 343 315 283 l 315 492 l 317 769 m 314 165 q 317 193 314 193 q 332 187 321 193 q 343 178 343 181 q 331 156 343 175 q 317 136 318 136 q 314 165 314 136 m 408 -58 q 403 -60 408 -53 l 401 -62 q 403 -64 400 -65 q 408 -58 408 -61 m 418 -19 q 419 -1 419 -12 q 417 11 419 11 q 414 -14 414 11 l 414 -44 l 418 -19 m 489 28 q 490 36 497 28 q 486 38 488 38 q 483 33 483 38 q 489 28 483 28 m 465 35 q 463 38 465 38 q 460 35 460 38 q 463 33 460 33 q 465 35 465 33 m 417 26 q 420 35 417 29 q 424 43 424 40 q 421 49 425 46 q 415 47 417 50 q 414 33 414 43 l 415 24 l 417 26 m 394 74 q 392 75 394 75 q 390 74 390 75 q 392 71 390 71 q 394 74 394 71 m 349 167 q 357 179 354 179 q 400 171 365 179 q 438 160 435 163 q 468 163 440 154 q 503 167 485 167 l 511 167 l 526 164 l 526 107 q 469 -81 526 -24 q 426 -112 453 -97 q 388 -128 400 -128 q 388 -118 379 -128 q 393 -100 396 -107 q 391 -95 392 -94 q 390 -101 390 -96 q 377 -124 389 -114 q 350 -137 365 -135 q 289 -140 336 -140 q 197 -135 225 -140 q 147 -119 172 -129 q 121 -103 121 -108 q 151 -72 121 -100 q 190 -26 174 -53 q 206 15 206 0 q 215 35 206 22 q 235 53 225 47 q 256 50 243 58 q 281 43 264 43 q 303 49 296 43 q 314 86 313 54 q 324 125 315 107 q 344 143 332 143 q 351 142 349 143 q 368 124 360 138 q 375 117 374 115 q 360 139 375 124 q 349 167 343 153 m 32 106 l 32 160 l 244 160 l 244 114 q 242 72 244 79 q 231 58 240 64 q 179 8 221 53 q 136 -53 142 -33 q 119 -85 131 -74 q 106 -92 113 -92 q 78 -69 94 -92 q 32 106 32 -8 m 176 -10 q 189 3 185 3 q 190 -1 190 3 q 183 -22 190 -10 q 158 -51 172 -47 q 156 -49 156 -53 q 176 -10 156 -36 z "},"K":{"ha":597,"x_min":24,"x_max":564,"o":"m 29 840 q 49 840 35 843 q 68 833 63 838 q 90 804 74 828 q 107 749 107 781 q 100 667 107 721 q 89 613 93 614 q 88 595 83 610 q 100 574 93 581 q 111 517 110 565 l 111 493 q 107 458 111 464 q 99 421 99 447 q 106 381 99 401 q 113 360 113 363 q 110 355 113 357 q 103 350 108 353 q 93 343 97 347 l 82 335 q 117 343 104 343 q 132 331 131 343 q 132 299 135 317 l 131 281 l 99 285 q 47 293 68 288 l 31 299 l 28 444 q 24 731 24 633 q 29 840 24 839 m 390 690 q 388 692 390 692 q 385 690 385 692 q 388 688 385 688 q 390 690 390 688 m 411 699 q 418 704 418 704 l 399 694 q 397 692 394 692 q 411 699 401 692 m 376 767 q 372 772 376 772 q 365 792 368 772 q 361 806 364 806 q 357 803 358 807 l 353 788 q 350 779 353 781 q 338 779 347 778 l 322 782 l 336 776 q 365 758 346 772 q 390 740 385 743 q 394 738 392 739 l 399 736 q 394 742 399 738 q 389 747 392 744 q 376 767 376 760 m 83 840 q 144 843 86 843 q 219 832 204 843 l 235 822 q 233 722 233 789 q 232 619 233 654 q 201 610 206 617 q 200 604 197 604 q 203 604 200 604 q 226 610 218 610 q 236 588 235 610 l 238 563 l 249 592 q 270 626 257 614 q 317 653 283 638 q 333 665 333 660 q 338 667 333 669 q 344 668 340 664 q 353 678 349 672 l 356 683 q 308 658 349 683 q 298 652 304 656 q 285 646 292 649 q 278 643 279 643 q 268 643 268 640 q 269 650 268 644 q 339 836 335 832 q 453 840 340 838 q 533 842 492 842 q 564 836 564 842 q 531 754 564 828 q 494 679 499 681 q 476 688 492 678 q 458 697 461 697 q 431 718 451 697 q 407 733 407 742 q 426 711 407 726 q 464 686 444 696 q 493 671 493 672 l 428 517 q 363 357 363 367 q 383 303 363 356 q 403 247 403 250 l 400 247 q 393 249 397 247 q 386 253 389 251 q 351 254 375 260 q 319 257 319 246 q 288 263 319 264 l 272 263 q 236 268 251 263 q 188 281 207 281 q 167 278 181 281 q 144 274 147 272 q 146 289 140 276 q 149 328 151 297 q 148 337 149 332 q 147 343 147 342 q 153 351 147 351 q 179 343 158 351 q 189 321 192 339 l 189 307 q 194 326 192 310 l 197 343 l 168 351 q 142 363 149 358 q 129 379 135 367 q 115 422 115 406 q 124 456 115 436 q 132 500 132 478 l 132 515 q 124 561 129 546 q 122 574 118 571 q 150 581 125 576 q 174 590 169 583 q 186 599 179 599 q 192 601 190 600 q 160 594 190 603 l 131 588 l 119 599 q 113 629 97 618 q 117 667 117 631 q 125 714 117 701 q 131 735 131 721 q 94 821 131 781 q 83 840 79 836 m 79 7 q 72 -11 79 -1 q 65 -31 65 -21 l 67 -44 l 69 -29 q 78 -11 71 -24 q 83 8 86 1 q 82 13 83 11 q 79 7 81 8 m 472 44 q 478 44 475 42 q 475 47 481 47 q 472 44 469 47 m 94 39 q 101 57 104 51 l 100 58 q 91 47 97 58 q 85 31 85 35 l 85 29 q 94 39 86 29 m 181 142 q 160 146 178 146 q 149 144 149 146 q 153 142 149 143 q 181 142 175 133 m 119 150 q 107 156 108 156 q 101 110 101 156 q 103 85 101 92 l 106 64 l 108 82 l 108 124 q 109 142 107 139 q 118 146 111 146 q 119 150 128 146 m 82 174 q 83 174 82 174 q 85 176 85 174 q 82 179 85 179 q 79 176 79 179 q 82 174 79 174 m 78 193 l 78 194 q 75 200 76 197 l 72 203 q 75 194 67 203 l 78 193 m 65 222 q 53 243 65 229 q 36 257 42 257 q 35 256 35 257 q 42 244 32 250 q 58 226 50 240 q 65 222 65 217 m 36 267 q 50 282 44 282 q 94 276 65 282 q 124 265 122 269 q 138 264 128 260 q 192 274 161 274 l 197 274 q 217 267 203 272 q 243 259 231 263 q 267 256 256 256 q 271 256 268 256 q 275 257 274 257 q 308 253 296 261 q 333 244 319 244 q 350 240 347 244 q 382 235 353 235 l 411 235 l 450 146 q 486 51 486 56 q 488 47 486 47 q 499 31 490 47 q 508 8 508 14 q 488 7 508 4 q 454 3 465 10 q 436 1 444 -3 q 428 14 428 6 q 413 31 428 18 q 392 43 397 43 q 386 46 386 43 q 378 65 389 65 q 374 63 374 64 q 381 50 378 60 q 399 32 383 40 q 419 15 410 26 q 429 -3 429 4 q 426 -7 429 -4 q 424 -19 418 -11 q 435 -25 429 -28 q 439 -28 438 -24 q 440 -40 440 -32 q 457 -72 440 -58 q 478 -83 474 -87 q 477 -77 479 -82 q 472 -67 475 -72 q 469 -60 469 -62 q 468 -53 469 -53 l 467 -57 q 453 -60 463 -69 q 447 -44 442 -49 q 453 -44 450 -43 q 453 -32 461 -49 q 449 -19 449 -24 q 475 -10 449 -10 l 488 -10 q 513 -11 508 -10 q 522 -21 518 -12 q 522 -46 528 -32 q 518 -55 518 -54 q 524 -51 518 -56 q 533 -47 532 -46 q 550 -85 536 -50 q 564 -122 564 -119 q 557 -128 564 -128 q 511 -104 539 -128 q 488 -90 494 -87 q 486 -92 485 -92 q 490 -93 488 -93 q 497 -99 496 -94 q 510 -114 497 -101 l 524 -126 l 433 -128 l 344 -128 l 339 -114 q 300 -9 338 -111 q 263 96 263 93 q 293 96 263 99 q 326 99 324 94 q 317 103 331 104 q 310 101 314 101 q 304 101 308 101 q 297 100 300 100 q 249 133 258 100 l 242 153 l 239 135 q 237 122 238 125 q 235 121 236 119 q 230 125 233 122 q 224 128 226 128 q 229 118 221 126 q 238 96 236 113 q 239 -8 239 79 l 239 -128 l 68 -128 l 72 -112 q 76 -82 76 -90 q 76 -74 76 -79 q 75 -64 75 -68 l 74 -44 l 69 -64 q 65 -104 65 -93 l 65 -128 l 28 -128 l 28 61 q 36 267 28 249 m 357 244 q 368 250 357 250 q 383 244 382 250 l 379 240 l 372 240 q 357 244 357 240 z "},"k":{"ha":597,"x_min":24,"x_max":564,"o":"m 29 840 q 49 840 35 843 q 68 833 63 838 q 90 804 74 828 q 107 749 107 781 q 100 667 107 721 q 89 613 93 614 q 88 595 83 610 q 100 574 93 581 q 111 517 110 565 l 111 493 q 107 458 111 464 q 99 421 99 447 q 106 381 99 401 q 113 360 113 363 q 110 355 113 357 q 103 350 108 353 q 93 343 97 347 l 82 335 q 117 343 104 343 q 132 331 131 343 q 132 299 135 317 l 131 281 l 99 285 q 47 293 68 288 l 31 299 l 28 444 q 24 731 24 633 q 29 840 24 839 m 390 690 q 388 692 390 692 q 385 690 385 692 q 388 688 385 688 q 390 690 390 688 m 411 699 q 418 704 418 704 l 399 694 q 397 692 394 692 q 411 699 401 692 m 376 767 q 372 772 376 772 q 365 792 368 772 q 361 806 364 806 q 357 803 358 807 l 353 788 q 350 779 353 781 q 338 779 347 778 l 322 782 l 336 776 q 365 758 346 772 q 390 740 385 743 q 394 738 392 739 l 399 736 q 394 742 399 738 q 389 747 392 744 q 376 767 376 760 m 83 840 q 144 843 86 843 q 219 832 204 843 l 235 822 q 233 722 233 789 q 232 619 233 654 q 201 610 206 617 q 200 604 197 604 q 203 604 200 604 q 226 610 218 610 q 236 588 235 610 l 238 563 l 249 592 q 270 626 257 614 q 317 653 283 638 q 333 665 333 660 q 338 667 333 669 q 344 668 340 664 q 353 678 349 672 l 356 683 q 308 658 349 683 q 298 652 304 656 q 285 646 292 649 q 278 643 279 643 q 268 643 268 640 q 269 650 268 644 q 339 836 335 832 q 453 840 340 838 q 533 842 492 842 q 564 836 564 842 q 531 754 564 828 q 494 679 499 681 q 476 688 492 678 q 458 697 461 697 q 431 718 451 697 q 407 733 407 742 q 426 711 407 726 q 464 686 444 696 q 493 671 493 672 l 428 517 q 363 357 363 367 q 383 303 363 356 q 403 247 403 250 l 400 247 q 393 249 397 247 q 386 253 389 251 q 351 254 375 260 q 319 257 319 246 q 288 263 319 264 l 272 263 q 236 268 251 263 q 188 281 207 281 q 167 278 181 281 q 144 274 147 272 q 146 289 140 276 q 149 328 151 297 q 148 337 149 332 q 147 343 147 342 q 153 351 147 351 q 179 343 158 351 q 189 321 192 339 l 189 307 q 194 326 192 310 l 197 343 l 168 351 q 142 363 149 358 q 129 379 135 367 q 115 422 115 406 q 124 456 115 436 q 132 500 132 478 l 132 515 q 124 561 129 546 q 122 574 118 571 q 150 581 125 576 q 174 590 169 583 q 186 599 179 599 q 192 601 190 600 q 160 594 190 603 l 131 588 l 119 599 q 113 629 97 618 q 117 667 117 631 q 125 714 117 701 q 131 735 131 721 q 94 821 131 781 q 83 840 79 836 m 79 7 q 72 -11 79 -1 q 65 -31 65 -21 l 67 -44 l 69 -29 q 78 -11 71 -24 q 83 8 86 1 q 82 13 83 11 q 79 7 81 8 m 472 44 q 478 44 475 42 q 475 47 481 47 q 472 44 469 47 m 94 39 q 101 57 104 51 l 100 58 q 91 47 97 58 q 85 31 85 35 l 85 29 q 94 39 86 29 m 181 142 q 160 146 178 146 q 149 144 149 146 q 153 142 149 143 q 181 142 175 133 m 119 150 q 107 156 108 156 q 101 110 101 156 q 103 85 101 92 l 106 64 l 108 82 l 108 124 q 109 142 107 139 q 118 146 111 146 q 119 150 128 146 m 82 174 q 83 174 82 174 q 85 176 85 174 q 82 179 85 179 q 79 176 79 179 q 82 174 79 174 m 78 193 l 78 194 q 75 200 76 197 l 72 203 q 75 194 67 203 l 78 193 m 65 222 q 53 243 65 229 q 36 257 42 257 q 35 256 35 257 q 42 244 32 250 q 58 226 50 240 q 65 222 65 217 m 36 267 q 50 282 44 282 q 94 276 65 282 q 124 265 122 269 q 138 264 128 260 q 192 274 161 274 l 197 274 q 217 267 203 272 q 243 259 231 263 q 267 256 256 256 q 271 256 268 256 q 275 257 274 257 q 308 253 296 261 q 333 244 319 244 q 350 240 347 244 q 382 235 353 235 l 411 235 l 450 146 q 486 51 486 56 q 488 47 486 47 q 499 31 490 47 q 508 8 508 14 q 488 7 508 4 q 454 3 465 10 q 436 1 444 -3 q 428 14 428 6 q 413 31 428 18 q 392 43 397 43 q 386 46 386 43 q 378 65 389 65 q 374 63 374 64 q 381 50 378 60 q 399 32 383 40 q 419 15 410 26 q 429 -3 429 4 q 426 -7 429 -4 q 424 -19 418 -11 q 435 -25 429 -28 q 439 -28 438 -24 q 440 -40 440 -32 q 457 -72 440 -58 q 478 -83 474 -87 q 477 -77 479 -82 q 472 -67 475 -72 q 469 -60 469 -62 q 468 -53 469 -53 l 467 -57 q 453 -60 463 -69 q 447 -44 442 -49 q 453 -44 450 -43 q 453 -32 461 -49 q 449 -19 449 -24 q 475 -10 449 -10 l 488 -10 q 513 -11 508 -10 q 522 -21 518 -12 q 522 -46 528 -32 q 518 -55 518 -54 q 524 -51 518 -56 q 533 -47 532 -46 q 550 -85 536 -50 q 564 -122 564 -119 q 557 -128 564 -128 q 511 -104 539 -128 q 488 -90 494 -87 q 486 -92 485 -92 q 490 -93 488 -93 q 497 -99 496 -94 q 510 -114 497 -101 l 524 -126 l 433 -128 l 344 -128 l 339 -114 q 300 -9 338 -111 q 263 96 263 93 q 293 96 263 99 q 326 99 324 94 q 317 103 331 104 q 310 101 314 101 q 304 101 308 101 q 297 100 300 100 q 249 133 258 100 l 242 153 l 239 135 q 237 122 238 125 q 235 121 236 119 q 230 125 233 122 q 224 128 226 128 q 229 118 221 126 q 238 96 236 113 q 239 -8 239 79 l 239 -128 l 68 -128 l 72 -112 q 76 -82 76 -90 q 76 -74 76 -79 q 75 -64 75 -68 l 74 -44 l 69 -64 q 65 -104 65 -93 l 65 -128 l 28 -128 l 28 61 q 36 267 28 249 m 357 244 q 368 250 357 250 q 383 244 382 250 l 379 240 l 372 240 q 357 244 357 240 z "},"L":{"ha":510,"x_min":24,"x_max":476,"o":"m 26 839 q 132 843 28 843 q 236 835 236 843 q 211 813 236 826 q 139 761 179 794 q 85 725 96 725 q 78 724 83 725 q 66 722 74 724 q 51 721 58 721 l 24 718 l 24 776 q 26 839 24 836 m 183 275 q 182 278 183 278 q 179 275 179 278 q 182 274 179 274 q 183 275 183 274 m 169 283 q 171 275 169 276 l 175 281 q 174 289 176 288 q 170 289 171 290 q 169 283 169 288 m 167 306 q 169 308 169 306 q 167 311 169 311 q 165 308 165 311 q 167 306 165 306 m 153 353 q 156 356 156 353 q 153 358 156 358 q 151 356 151 358 q 153 353 151 353 m 146 374 q 143 376 146 376 q 142 374 142 376 q 143 372 142 372 q 146 374 146 372 m 136 396 q 132 407 136 401 q 128 410 128 415 q 132 397 128 407 q 136 396 136 389 m 129 501 l 131 492 q 131 513 132 504 q 129 501 129 507 m 126 532 l 122 536 q 114 547 119 542 l 110 551 q 113 547 108 551 q 121 537 117 542 q 126 532 125 532 m 96 569 q 81 589 93 578 l 68 600 l 79 588 q 89 571 89 575 q 96 563 89 564 q 96 569 99 563 m 61 633 q 63 629 61 629 l 64 638 l 64 639 q 61 633 61 638 m 193 774 q 229 790 222 790 q 236 506 236 790 l 236 222 l 210 242 q 183 265 183 260 q 176 267 183 269 q 151 275 167 264 q 103 292 129 288 q 78 294 92 294 q 56 288 68 294 q 35 278 39 278 q 25 294 26 278 q 24 369 24 311 q 28 461 24 461 q 54 450 35 461 q 100 435 78 438 q 124 424 121 433 l 126 444 l 126 447 q 124 469 126 469 q 118 449 118 469 q 103 440 118 438 q 39 463 68 446 l 24 472 l 24 569 q 25 656 24 642 q 33 674 26 671 q 46 669 43 678 q 53 660 49 660 q 54 668 57 660 q 71 688 50 675 q 108 714 75 690 q 193 774 150 750 m 51 276 q 92 286 78 286 q 146 267 107 286 q 199 233 185 247 q 225 215 214 218 q 236 193 236 211 q 217 151 236 176 q 143 83 182 108 q 82 28 117 67 q 40 -33 47 -11 q 28 -58 31 -58 q 24 103 24 -58 l 24 267 l 51 276 m 301 -86 q 281 -106 300 -78 q 301 -86 301 -90 m 297 -71 l 299 -76 q 300 -64 303 -71 q 297 -71 299 -68 m 306 -50 q 304 -47 306 -47 q 301 -50 301 -47 q 304 -51 301 -51 q 306 -50 306 -51 m 314 -36 q 319 -21 322 -31 q 317 -21 317 -4 q 311 -36 317 -31 q 310 -39 308 -39 q 314 -36 311 -39 m 325 25 q 324 43 325 43 q 319 29 321 43 q 319 13 317 15 q 325 25 324 18 m 203 121 l 233 153 l 236 106 l 238 58 l 275 57 q 319 51 317 54 q 325 50 325 47 q 400 56 325 56 l 475 56 l 475 43 q 447 36 475 19 q 441 38 440 40 q 449 31 442 36 q 468 21 464 21 q 475 -53 472 21 l 476 -128 l 24 -128 l 24 -104 q 28 -80 24 -87 q 58 -49 33 -72 q 90 -15 82 -26 q 106 19 97 -4 q 126 60 117 49 q 156 81 135 71 q 203 121 174 90 m 76 4 q 92 19 88 19 q 93 18 93 19 q 85 -6 93 11 q 69 -28 76 -22 q 64 -31 67 -31 q 61 -28 61 -31 q 76 4 61 -15 z "},"l":{"ha":510,"x_min":24,"x_max":476,"o":"m 26 839 q 132 843 28 843 q 236 835 236 843 q 211 813 236 826 q 139 761 179 794 q 85 725 96 725 q 78 724 83 725 q 66 722 74 724 q 51 721 58 721 l 24 718 l 24 776 q 26 839 24 836 m 183 275 q 182 278 183 278 q 179 275 179 278 q 182 274 179 274 q 183 275 183 274 m 169 283 q 171 275 169 276 l 175 281 q 174 289 176 288 q 170 289 171 290 q 169 283 169 288 m 167 306 q 169 308 169 306 q 167 311 169 311 q 165 308 165 311 q 167 306 165 306 m 153 353 q 156 356 156 353 q 153 358 156 358 q 151 356 151 358 q 153 353 151 353 m 146 374 q 143 376 146 376 q 142 374 142 376 q 143 372 142 372 q 146 374 146 372 m 136 396 q 132 407 136 401 q 128 410 128 415 q 132 397 128 407 q 136 396 136 389 m 129 501 l 131 492 q 131 513 132 504 q 129 501 129 507 m 126 532 l 122 536 q 114 547 119 542 l 110 551 q 113 547 108 551 q 121 537 117 542 q 126 532 125 532 m 96 569 q 81 589 93 578 l 68 600 l 79 588 q 89 571 89 575 q 96 563 89 564 q 96 569 99 563 m 61 633 q 63 629 61 629 l 64 638 l 64 639 q 61 633 61 638 m 193 774 q 229 790 222 790 q 236 506 236 790 l 236 222 l 210 242 q 183 265 183 260 q 176 267 183 269 q 151 275 167 264 q 103 292 129 288 q 78 294 92 294 q 56 288 68 294 q 35 278 39 278 q 25 294 26 278 q 24 369 24 311 q 28 461 24 461 q 54 450 35 461 q 100 435 78 438 q 124 424 121 433 l 126 444 l 126 447 q 124 469 126 469 q 118 449 118 469 q 103 440 118 438 q 39 463 68 446 l 24 472 l 24 569 q 25 656 24 642 q 33 674 26 671 q 46 669 43 678 q 53 660 49 660 q 54 668 57 660 q 71 688 50 675 q 108 714 75 690 q 193 774 150 750 m 51 276 q 92 286 78 286 q 146 267 107 286 q 199 233 185 247 q 225 215 214 218 q 236 193 236 211 q 217 151 236 176 q 143 83 182 108 q 82 28 117 67 q 40 -33 47 -11 q 28 -58 31 -58 q 24 103 24 -58 l 24 267 l 51 276 m 301 -86 q 281 -106 300 -78 q 301 -86 301 -90 m 297 -71 l 299 -76 q 300 -64 303 -71 q 297 -71 299 -68 m 306 -50 q 304 -47 306 -47 q 301 -50 301 -47 q 304 -51 301 -51 q 306 -50 306 -51 m 314 -36 q 319 -21 322 -31 q 317 -21 317 -4 q 311 -36 317 -31 q 310 -39 308 -39 q 314 -36 311 -39 m 325 25 q 324 43 325 43 q 319 29 321 43 q 319 13 317 15 q 325 25 324 18 m 203 121 l 233 153 l 236 106 l 238 58 l 275 57 q 319 51 317 54 q 325 50 325 47 q 400 56 325 56 l 475 56 l 475 43 q 447 36 475 19 q 441 38 440 40 q 449 31 442 36 q 468 21 464 21 q 475 -53 472 21 l 476 -128 l 24 -128 l 24 -104 q 28 -80 24 -87 q 58 -49 33 -72 q 90 -15 82 -26 q 106 19 97 -4 q 126 60 117 49 q 156 81 135 71 q 203 121 174 90 m 76 4 q 92 19 88 19 q 93 18 93 19 q 85 -6 93 11 q 69 -28 76 -22 q 64 -31 67 -31 q 61 -28 61 -31 q 76 4 61 -15 z "},"M":{"ha":760,"x_min":24,"x_max":735,"o":"m 140 806 q 151 810 144 806 q 165 814 157 814 q 204 826 182 814 q 221 835 214 832 q 228 838 228 839 q 328 469 328 497 q 285 458 328 458 q 264 463 267 458 q 222 468 260 468 q 165 478 188 468 q 136 483 153 483 q 113 482 122 483 q 81 488 81 479 q 85 494 81 494 q 88 525 89 494 l 86 557 l 103 553 q 132 538 132 547 q 129 522 132 536 q 122 500 122 504 l 122 499 q 132 515 125 499 q 140 538 139 531 q 138 549 142 546 q 114 556 133 551 q 81 563 83 561 q 65 586 75 564 q 56 622 56 608 q 71 665 56 633 q 75 703 75 674 q 68 763 75 751 q 63 772 64 769 q 63 778 61 775 q 69 781 64 781 q 83 783 74 782 q 118 796 106 786 l 129 806 l 115 803 q 101 799 111 801 q 90 796 92 796 q 82 794 88 794 q 63 802 71 794 q 54 821 54 810 q 63 838 54 832 q 82 840 71 843 q 149 838 93 838 q 197 836 197 838 q 189 831 197 835 q 163 824 175 824 q 143 814 150 824 q 140 806 136 806 m 26 546 q 25 546 26 546 q 24 692 24 546 q 31 838 24 838 q 38 828 36 838 q 33 817 39 819 q 32 798 29 814 q 40 782 35 782 q 57 714 57 782 q 47 657 57 671 q 38 621 38 640 q 46 583 38 603 q 51 565 51 569 q 42 556 50 561 q 26 546 29 546 m 613 -104 l 614 -110 q 615 -97 618 -104 q 613 -104 614 -101 m 617 -82 q 614 -81 617 -81 q 613 -82 613 -81 q 614 -85 613 -85 q 617 -82 617 -85 m 622 19 q 615 15 622 31 q 613 11 614 14 q 610 4 611 8 l 611 3 q 614 7 613 6 q 622 19 622 18 m 617 89 q 618 85 617 85 q 619 93 621 88 q 617 89 618 92 m 613 111 l 614 104 l 615 119 q 613 111 614 117 m 618 217 q 606 220 608 221 q 603 210 603 219 q 604 201 603 201 q 615 206 606 200 q 618 217 628 214 m 294 300 q 300 294 297 292 q 297 303 303 297 q 294 306 294 306 q 294 300 293 306 m 271 304 q 268 311 281 311 q 233 297 258 311 l 247 297 q 271 304 257 297 m 454 329 q 456 329 454 329 q 457 332 457 329 q 454 335 457 335 q 451 332 451 335 q 454 329 451 329 m 160 329 q 172 319 160 326 q 183 311 183 313 q 190 307 183 307 q 195 306 192 307 q 204 304 199 306 q 214 303 210 303 l 233 301 l 219 308 q 200 315 208 315 q 161 331 168 331 l 160 329 m 471 351 q 468 353 471 353 q 467 351 467 353 q 468 349 467 349 q 471 351 471 349 m 126 343 q 92 351 118 349 l 64 353 l 88 346 q 125 339 113 339 q 129 340 129 339 q 126 343 129 342 m 485 365 q 493 399 494 374 l 492 421 l 490 399 q 474 356 490 375 l 485 365 m 729 426 l 725 438 q 715 458 719 449 q 710 467 711 467 q 710 460 708 465 q 715 447 711 456 q 722 433 718 439 l 729 426 m 511 450 q 513 468 514 465 l 507 458 q 506 456 506 457 q 502 447 504 453 q 499 438 500 442 q 497 431 497 433 q 494 424 494 425 q 500 428 494 424 q 511 450 508 433 m 515 475 q 518 478 518 475 q 515 481 518 481 q 514 478 514 481 q 515 475 514 475 m 528 482 q 525 485 528 485 q 522 482 522 485 q 525 481 522 481 q 528 482 528 481 m 546 508 q 550 512 547 508 q 554 519 553 515 q 554 522 556 522 q 546 515 550 522 q 546 508 542 508 m 604 549 q 615 543 613 540 q 607 551 618 546 q 599 556 600 556 q 604 549 599 556 m 576 561 q 576 567 582 567 q 565 553 572 567 q 557 532 557 539 q 563 538 557 528 q 576 561 576 561 m 561 593 q 563 583 561 583 q 564 601 567 588 q 561 593 563 599 m 556 638 q 553 640 556 640 q 551 638 551 640 q 553 636 551 636 q 556 638 556 636 m 714 678 q 715 681 715 678 q 714 683 715 683 q 711 681 711 683 q 714 678 711 678 m 528 706 q 529 701 528 701 q 531 710 532 704 q 528 706 529 708 m 528 722 q 529 718 528 718 l 531 726 l 531 728 q 528 722 528 726 m 693 738 q 694 729 693 729 l 696 746 q 693 738 694 743 m 679 771 q 668 785 674 782 q 665 783 664 786 q 668 778 665 782 q 679 765 672 768 q 682 765 682 764 q 679 771 682 765 m 657 790 q 660 794 658 790 q 662 802 661 799 q 660 806 663 806 q 654 799 654 806 q 657 790 654 790 m 699 824 q 701 828 701 826 q 692 824 701 832 q 690 819 688 819 q 699 824 697 819 m 706 479 q 701 491 706 486 q 697 500 697 496 q 710 504 697 504 q 728 500 722 504 q 735 347 733 497 l 735 197 l 719 197 q 613 192 663 197 q 596 185 600 192 q 576 179 592 179 q 522 190 553 179 q 490 214 492 201 q 482 243 485 238 q 474 260 478 257 q 460 265 469 264 q 442 264 442 268 q 421 253 438 260 q 417 247 399 243 q 426 249 419 247 q 440 251 433 250 q 450 253 446 253 l 469 256 l 478 232 q 483 210 485 211 q 450 211 468 210 q 425 213 440 213 q 401 208 411 213 q 372 219 372 196 q 354 238 372 225 q 331 263 335 251 q 321 272 328 271 q 308 276 314 272 q 306 279 306 279 l 311 272 q 326 251 324 260 q 343 235 326 243 q 371 204 371 222 q 368 197 371 203 q 367 185 361 194 q 374 172 372 176 q 407 126 378 143 q 424 119 417 119 q 425 121 425 119 q 415 142 425 122 q 410 144 410 153 q 400 142 410 136 q 390 157 386 149 q 397 158 392 160 q 404 158 404 156 q 397 172 404 161 q 393 183 393 178 q 433 194 393 194 q 474 182 474 194 q 469 167 474 178 q 463 145 461 147 q 478 158 464 143 l 493 175 l 521 168 q 581 160 551 160 q 608 158 603 160 q 614 149 613 156 q 617 154 615 146 q 630 174 618 169 q 685 179 642 179 l 735 179 l 735 -128 l 528 -128 l 528 43 l 543 40 q 568 29 556 38 q 575 24 572 26 q 568 32 572 26 q 543 53 556 44 l 528 61 q 526 107 528 76 q 525 153 525 138 l 517 115 q 500 74 507 74 q 494 78 499 74 q 481 85 490 85 q 456 101 475 85 q 433 113 433 119 q 449 94 433 107 q 481 74 464 82 l 503 61 l 486 -6 q 474 -60 482 -26 q 464 -99 465 -93 l 458 -125 l 304 -125 l 271 13 q 233 154 239 149 l 233 136 q 231 85 232 118 q 231 15 231 53 l 231 -128 l 24 -128 l 24 224 l 36 249 q 49 310 49 274 q 54 350 49 344 q 55 356 57 353 q 49 360 53 358 l 44 361 q 42 308 43 336 q 32 250 40 260 q 28 247 29 247 q 24 306 24 247 q 29 367 24 367 q 29 372 35 367 q 24 429 24 378 l 24 482 l 42 479 q 61 471 58 476 q 88 472 63 468 q 125 476 108 476 q 169 468 149 476 q 215 461 190 461 q 251 456 240 461 q 318 439 267 447 l 336 436 l 354 372 q 374 294 371 315 q 378 285 376 285 q 407 379 383 285 q 433 472 431 468 q 438 489 438 478 q 472 628 438 496 q 517 796 506 761 l 525 822 q 528 801 525 815 q 531 779 531 786 l 531 800 q 538 829 531 815 q 590 838 540 838 l 638 838 l 732 836 l 733 754 l 733 726 q 729 674 733 674 q 729 664 722 674 q 735 581 735 653 l 735 507 l 717 510 q 685 507 700 513 q 656 513 672 501 q 638 518 636 525 q 637 515 639 517 q 631 513 635 514 q 621 513 626 513 q 589 506 600 513 q 565 499 578 499 l 558 497 q 561 496 558 496 q 564 488 569 494 q 565 481 558 481 q 585 490 574 482 q 633 500 599 500 q 675 496 654 500 q 701 481 699 490 q 706 479 706 464 m 42 546 q 64 549 51 549 q 69 511 69 546 q 67 489 69 492 q 43 488 63 485 l 24 490 l 24 515 q 26 539 24 535 q 42 546 28 543 m 315 443 q 304 447 306 443 q 307 450 303 450 q 315 451 310 451 q 326 449 324 451 q 324 444 329 447 l 315 443 z "}}}
